<svg xmlns="http://www.w3.org/2000/svg" viewBox="0 0 171.75 120.95"><defs><style>.cls-1,.cls-2{fill:none;stroke:#f94b1c;}.cls-1{stroke-miterlimit:10;stroke-width:2px;}.cls-2{stroke-linecap:round;stroke-linejoin:round;stroke-width:3px;}</style></defs><g id="Слой_2" data-name="Слой 2"><g id="Layer_1" data-name="Layer 1"><path class="cls-1" d="M2.42,1H99.53A3.65,3.65,0,0,1,101,4.29q-.06,56.27,0,112.54c0,2.43-.68,3.11-3.08,3.12H4.11c-2.4,0-3.08-.69-3.08-3.12Q1,60.56,1,4.28A3.64,3.64,0,0,1,2.42,1ZM19.61,115.22H96.22v-77H5.75v63.12H16.86c1.93,0,2.75.82,2.75,2.75ZM5.76,5.7V33.43H96.21V5.7Zm9.12,109.56v-9.2H5.74v9.2Z"/><path class="cls-1" d="M19.68,10.29a9.3,9.3,0,1,1-9.36,9.2A9.25,9.25,0,0,1,19.68,10.29Zm-.07,13.94a4.76,4.76,0,0,0,4.64-4.68,4.75,4.75,0,0,0-4.58-4.61A4.74,4.74,0,0,0,15,19.56,4.76,4.76,0,0,0,19.61,24.23Z"/><path class="cls-1" d="M47.49,14.94c-1.5,0-3,0-4.52,0a2.32,2.32,0,1,1,0-4.63q4.53,0,9,0a2.25,2.25,0,0,1,2.45,2.33A2.26,2.26,0,0,1,52,14.93C50.51,15,49,14.94,47.49,14.94Z"/><path class="cls-1" d="M63.81,14.94c-.77,0-1.55,0-2.32,0a2.32,2.32,0,1,1,0-4.63c1.55,0,3.1,0,4.64,0a2.23,2.23,0,0,1,2.27,2.28,2.25,2.25,0,0,1-2.31,2.35C65.36,15,64.58,14.94,63.81,14.94Z"/><path class="cls-1" d="M77.71,14.94c-.77,0-1.54,0-2.32,0a2.32,2.32,0,1,1,0-4.63c1.59,0,3.17,0,4.76,0a2.22,2.22,0,0,1,2.23,2.31,2.23,2.23,0,0,1-2.23,2.31C79.34,15,78.52,14.94,77.71,14.94Z"/><path class="cls-1" d="M89.3,14.94a2.32,2.32,0,1,1,.17-4.64,2.32,2.32,0,0,1-.17,4.64Z"/><path class="cls-1" d="M51.44,100.87A28.6,28.6,0,1,1,80,72.27,28.63,28.63,0,0,1,51.44,100.87Zm0-52.77A24.18,24.18,0,1,0,75.61,72.27,24.2,24.2,0,0,0,51.44,48.1Z"/><path class="cls-1" d="M40.28,86.87A1.06,1.06,0,0,1,39.22,86a1,1,0,0,1,.6-1.12,8.68,8.68,0,0,0,4.65-5.16,7,7,0,0,0-.36-5.71,19.19,19.19,0,0,0-1.82-2.83,12.54,12.54,0,0,1-2.36-4.73,8.08,8.08,0,0,1,1.7-7,12.05,12.05,0,0,1,.89-1,1,1,0,0,1,1.53-.11A1,1,0,0,1,44,59.93a7.15,7.15,0,0,0-2,3.24,6.07,6.07,0,0,0,.53,4.52,21.71,21.71,0,0,0,1.79,2.76,12.35,12.35,0,0,1,2.45,5.12,9.57,9.57,0,0,1-1.83,7.66,10.64,10.64,0,0,1-3.65,3.28c-.25.13-.53.22-.79.33Z"/><path class="cls-1" d="M49.48,86.87a1.11,1.11,0,0,1-1.15-.81,1,1,0,0,1,.59-1.13,8.67,8.67,0,0,0,4.5-4.76,7.12,7.12,0,0,0-.37-6.46c-.6-1.09-1.39-2.08-2.1-3.11A11.1,11.1,0,0,1,49,66a7.71,7.71,0,0,1,1.12-5.52,16.62,16.62,0,0,1,1.58-2,1,1,0,0,1,1.52-.07,1,1,0,0,1-.1,1.5,7.3,7.3,0,0,0-2,3.23,6.06,6.06,0,0,0,.54,4.57,22.13,22.13,0,0,0,1.77,2.71,12.7,12.7,0,0,1,2.47,5.2,9.41,9.41,0,0,1-1.33,6.84,11,11,0,0,1-4.15,4C50.05,86.67,49.69,86.78,49.48,86.87Z"/><path class="cls-1" d="M63.08,77.35A8.82,8.82,0,0,0,61,71.85a16,16,0,0,1-2.5-4.14,8.36,8.36,0,0,1,2.34-9.3,1,1,0,0,1,1.44,0,1,1,0,0,1,0,1.44,7.86,7.86,0,0,0-1.89,2.77,6.06,6.06,0,0,0,.37,5.08,19.67,19.67,0,0,0,1.75,2.69A12.56,12.56,0,0,1,65,75.66a9.45,9.45,0,0,1-1.41,6.94A11.23,11.23,0,0,1,60,86.2a6.46,6.46,0,0,1-1.27.61,1,1,0,0,1-1.24-.6A1,1,0,0,1,58,84.93,8.77,8.77,0,0,0,63,78.68a4.08,4.08,0,0,0,.11-.7C63.1,77.77,63.08,77.56,63.08,77.35Z"/><polyline class="cls-2" points="170.25 42.83 146.9 66.19 123.54 42.83"/><polyline class="cls-2" points="170.25 78.03 146.9 101.38 123.54 78.03"/></g></g></svg>