<svg xmlns="http://www.w3.org/2000/svg" viewBox="0 0 178.32 128.58"><defs><style>.cls-1,.cls-2{fill:none;stroke:#f94b1c;}.cls-1{stroke-linecap:round;stroke-linejoin:round;stroke-width:3px;}.cls-2{stroke-miterlimit:10;stroke-width:2px;}</style></defs><g id="Слой_2" data-name="Слой 2"><g id="Layer_1" data-name="Layer 1"><polyline class="cls-1" points="176.82 34.89 153.46 58.25 130.11 34.89"/><polyline class="cls-1" points="176.82 70.08 153.46 93.44 130.11 70.08"/><path class="cls-2" d="M53.57,1c1.84.41,3.71.71,5.51,1.25C77.61,7.79,89.3,19.94,92.88,39,97.19,61.84,84.05,83.57,62,91.16c-.27.09-.53.21-.91.35C61.77,94,62.4,96.54,63,99c.48,1.88,1,3.74,1.43,5.62.22,1,.58,1.34,1.64,1.31,3.14-.08,6.28,0,9.41,0,5.15,0,8.42,3.29,8.44,8.44a59.82,59.82,0,0,1-.17,6.43,7.62,7.62,0,0,1-7.61,6.75q-28.79,0-57.59,0A7.53,7.53,0,0,1,11,121a45.22,45.22,0,0,1,0-8.39A7.36,7.36,0,0,1,18.08,106c3.55-.14,7.1-.09,10.65,0a1.28,1.28,0,0,0,1.51-1.16c1-4.15,2.12-8.28,3.19-12.43a6.48,6.48,0,0,0,.11-.75C31,90.48,28.36,89.53,26,88.22,12.49,80.91,4.23,69.68,1.65,54.6A46.38,46.38,0,0,1,36.13,2.11c1.75-.44,3.54-.74,5.3-1.11ZM35.26,109.84a2.87,2.87,0,0,0-.49-.11c-5.45,0-10.9,0-16.35,0a3.88,3.88,0,0,0-3.76,3.72c-.07,1.81,0,3.63,0,5.44,0,3.47,1.5,5,5,5h55.6c.25,0,.5,0,.74,0a4.08,4.08,0,0,0,4.19-4.25c0-1.81,0-3.63,0-5.44,0-2.85-1.61-4.44-4.45-4.44q-8.3,0-16.59,0c-.4,0-.8,0-1.31,0,0,.94,0,1.79,0,2.65a1.94,1.94,0,0,1-1.94,2,1.9,1.9,0,0,1-1.79-2c0-.86,0-1.72,0-2.62H48.37c0,.93,0,1.75,0,2.57a1.86,1.86,0,1,1-3.7,0c0-.85,0-1.7,0-2.54H39c0,.74,0,1.4,0,2,0,1.64-.67,2.55-1.85,2.56s-1.9-.92-1.9-2.53C35.25,111.23,35.26,110.58,35.26,109.84Zm25.67-4c-1.19-4.59-2.33-9-3.48-13.45a47.05,47.05,0,0,1-20.15,0c-1.15,4.5-2.3,8.94-3.47,13.47Z"/><path class="cls-2" d="M53.35,38.77c1.08,1.32,2,2.49,3,3.57a1.86,1.86,0,0,0,1.34.44A26.88,26.88,0,0,1,71,45.14c6.23,2.86,8.4,8.26,5.83,14.62a21.47,21.47,0,0,1-9.6,10.95,14.34,14.34,0,0,1-5.38,1.56,4.86,4.86,0,0,1-5.54-3.74c-.68-2.15-.93-4.43-1.55-6.6-.51-1.8-1.29-3.52-1.84-5-2.15.39-4,.68-5.81,1.08a1.66,1.66,0,0,0-.86.85,28.15,28.15,0,0,1-8,9.77,13.2,13.2,0,0,1-7,3,9.76,9.76,0,0,1-8-3.11c-3.53-3.58-5.2-8-5.88-12.92a13.28,13.28,0,0,1,1-7.49c1.34-3,3.71-4.15,6.86-3.29,2.62.7,5.17,1.66,7.78,2.37a28.4,28.4,0,0,0,3.86.5,11.38,11.38,0,0,1,1.9-6.06,1.3,1.3,0,0,0-.09-1.08,28.1,28.1,0,0,1-3.63-12.09c-.51-8.06,4-13.29,12.92-12.78a20.9,20.9,0,0,1,11.74,4.06,16.18,16.18,0,0,1,3.84,4.43,4.79,4.79,0,0,1-.91,6.22c-1.3,1.26-2.83,2.26-4.24,3.4-1,.83-2,1.67-3,2.59S54,38,53.35,38.77ZM43,57.07a10.29,10.29,0,0,1-4.91-4.81,1.43,1.43,0,0,0-1.51-.94,24,24,0,0,1-8.78-1.75c-1.07-.42-2.17-.78-3.27-1.1C23,48,22.43,48.34,21.8,49.8A9.44,9.44,0,0,0,21.38,51c-1.33,4.7,1.55,12.83,5.52,15.69a6.06,6.06,0,0,0,6.76.43C37.9,64.86,40.75,61.31,43,57.07ZM42,38.65a10.55,10.55,0,0,1,7.13-1.29c.3.06.82-.29,1-.59a26.86,26.86,0,0,1,6.72-6.52c.88-.6,1.75-1.25,2.57-1.93,1.27-1.07,1.42-1.76.47-3.07a10.05,10.05,0,0,0-2.45-2.58,18.37,18.37,0,0,0-12.8-3.09,6,6,0,0,0-5.5,5.06C38.21,29.66,39.68,34.23,42,38.65Zm15.76,7.93a11.28,11.28,0,0,1-1.94,7.11c-.15.23,0,.74.14,1.08.9,2.33,1.93,4.62,2.7,7,.55,1.71.69,3.55,1.14,5.29.35,1.34,1.05,1.69,2.42,1.46a7.31,7.31,0,0,0,1.33-.28c5.38-2.08,8.65-6.11,10.34-11.48a5.82,5.82,0,0,0-2.31-6.89C67.45,46.93,62.74,46.33,57.75,46.58ZM47.4,54.26a6.64,6.64,0,1,0-6.71-6.55A6.69,6.69,0,0,0,47.4,54.26Z"/><path class="cls-2" d="M7.51,47.07C7.79,27.5,21.77,10.88,41.11,8c15.65-2.35,28.4,3.15,38.18,15.55.88,1.11.81,2.28-.07,3s-2,.47-2.89-.63l-.3-.39a35.8,35.8,0,1,0,4.85,8.7c-.68-1.79.3-3.33,1.91-2.9a2.77,2.77,0,0,1,1.55,1.51A37.68,37.68,0,0,1,87,47.24a39.8,39.8,0,0,1-32,38.89C33.85,90.46,12.53,76.19,8.5,54.9,8,52.32,7.83,49.68,7.51,47.07Z"/><path class="cls-2" d="M66.13,118.64a1.85,1.85,0,0,1-1.69-2,1.88,1.88,0,0,1,3.75.37A1.86,1.86,0,0,1,66.13,118.64Z"/><path class="cls-2" d="M75.69,116.81a1.88,1.88,0,0,1-1.9,1.84,1.85,1.85,0,0,1-1.88-2,1.89,1.89,0,0,1,3.78.13Z"/></g></g></svg>