<svg xmlns="http://www.w3.org/2000/svg" viewBox="0 0 181.04 144.48"><defs><style>.cls-1,.cls-2{fill:none;stroke:#f94b1c;}.cls-1{stroke-miterlimit:10;stroke-width:2px;}.cls-2{stroke-linecap:round;stroke-linejoin:round;stroke-width:3px;}</style></defs><g id="Слой_2" data-name="Слой 2"><g id="Layer_1" data-name="Layer 1"><path class="cls-1" d="M25.61,134.34a6.36,6.36,0,0,1,1.68-4.54c.77-.87,1.11-1.81.22-2.7s-1.81-.54-2.71.2c-3.61,3-8.08,2.15-10.15-2a48,48,0,0,1-3.28-8.21,6.45,6.45,0,0,1,5.79-8,8.59,8.59,0,0,0,1-.09,1.68,1.68,0,0,0,1.52-1.83A1.71,1.71,0,0,0,18,105.6a9.18,9.18,0,0,1-2.28-.42A6.4,6.4,0,0,1,11.45,97a55.34,55.34,0,0,1,3.38-8,6.29,6.29,0,0,1,9.61-2c.23.17.45.37.67.56a1.61,1.61,0,0,0,2.46-.09,1.65,1.65,0,0,0-.05-2.37,6.94,6.94,0,0,1-1.91-4.74,5.52,5.52,0,0,1,3-5.3,59.32,59.32,0,0,1,9-3.72c3.61-1.11,7.51,1.93,7.89,5.78a8.59,8.59,0,0,0,.08,1,1.65,1.65,0,0,0,1.81,1.53c1-.06,1.42-.71,1.67-1.68a14.42,14.42,0,0,1,1.47-4.18,5.74,5.74,0,0,1,6.77-2.4,61.31,61.31,0,0,1,8.18,3.35c3.86,2,4.65,6.51,1.93,9.91l-.29.33a1.66,1.66,0,0,0,0,2.57c.81.78,1.61.51,2.49-.07a10.8,10.8,0,0,1,3.3-1.7,5.86,5.86,0,0,1,6.94,3.26A57.29,57.29,0,0,1,83,96.75a6.61,6.61,0,0,1-6,8.83c-1.21.11-2.16.39-2.15,1.79s1.07,1.67,2.22,1.77A6.51,6.51,0,0,1,83,117.72a48.29,48.29,0,0,1-3,7.38,5.7,5.7,0,0,1-8.81,1.84,4.88,4.88,0,0,1-.55-.47,1.9,1.9,0,0,0-2.85-.17c-.88.78-.85,1.81.12,3a6.92,6.92,0,0,1,1.76,4.66,5.37,5.37,0,0,1-2.73,5,62.44,62.44,0,0,1-9.67,4.26c-4,1.28-7.89-1.73-8.25-6.08-.11-1.23-.45-2.2-1.77-2.19s-1.7,1-1.8,2.22c-.36,4.54-4.36,7.37-8.66,6a66.48,66.48,0,0,1-7.88-3.34A5.71,5.71,0,0,1,25.61,134.34ZM77.3,115.47c-2.71-.15-4.86-.79-6.52-2.54a8,8,0,0,1-2.26-6.24c.24-4,2.78-6.29,8.72-7.68-1-2.38-1.93-4.71-2.9-7.07-5.35,3.16-8.91,3.12-11.9,0s-2.91-6.68.23-11.71L55.6,77.35c-1.5,5.94-3.52,8.44-7.38,8.66-5.79.33-8.54-3-9.2-8.74l-7.13,3c3.17,5.28,3.15,8.8.08,11.84a8,8,0,0,1-5.06,2.3,8.66,8.66,0,0,1-6.66-2.6c-1.05,2.52-2,4.85-3.05,7.36,4.66.37,8,2.3,8.61,6.78.82,6.06-2.73,8.95-8.62,9.68l3,7.16c4.68-3.22,8.4-3.28,11.51-.38s3.31,6.5.15,12l7.12,3c.62-5.52,3.18-9,8.87-8.69,5,.3,7.1,3.77,7.6,8.74l8-3.49c-3.26-4.6-3.34-8.64-.45-11.83s6.79-3.43,11.89-.56C75.67,119.63,76.42,117.72,77.3,115.47Z"/><path class="cls-1" d="M32.18,42.1c0,5.79,0,11.57,0,17.36,0,2.19-.84,3.46-2.43,3.81a3.11,3.11,0,0,1-3.82-3.11c0-3.5,0-7,0-10.5,0-7.78,0-15.55,0-23.33A9.3,9.3,0,1,0,14.5,35a15.18,15.18,0,0,0,2,.28,3.13,3.13,0,1,1-.23,6.24A15.58,15.58,0,1,1,31.92,23.3a37.58,37.58,0,0,1,.25,5.82C32.2,33.45,32.18,37.77,32.18,42.1Z"/><path class="cls-1" d="M66.43,45.84V62.91a3.31,3.31,0,0,1-1.82,3.23,2.89,2.89,0,0,1-3.16-.27,3.57,3.57,0,0,1-1.38-3.2c0-5.88,0-11.77,0-17.65,0-5.4-.07-10.79,0-16.19a12.48,12.48,0,1,1,17.45,11.7c-2.13.92-3.89.41-4.69-1.35s0-3.4,2.1-4.4a6,6,0,0,0,3.76-5.73,5.7,5.7,0,0,0-3.42-5.48,5.91,5.91,0,0,0-6.57.69,5.76,5.76,0,0,0-2.3,4.81c0,.1,0,.19,0,.29Z"/><path class="cls-1" d="M41.41,28.79c0-6.12-.08-12.25,0-18.37a8.9,8.9,0,0,1,5.68-8.59A8.93,8.93,0,0,1,57,3.43a9.37,9.37,0,0,1,.76,13.21c-1.34,1.51-3.11,1.77-4.52.66s-1.59-3-.35-4.65c1.55-2.08,1.07-4.3-1.09-5.11a3,3,0,0,0-4,2.39,12.22,12.22,0,0,0,0,1.6V47.11c0,2-.88,3.33-2.43,3.67-2.19.48-3.91-1-3.92-3.47C41.39,41.14,41.41,35,41.41,28.79Z"/><path class="cls-1" d="M62.93,107.36a15.29,15.29,0,1,1-15.29-15.3A15.31,15.31,0,0,1,62.93,107.36Zm-27.46,0A12.18,12.18,0,1,0,47.64,95.18,12.18,12.18,0,0,0,35.47,107.36Z"/><polyline class="cls-2" points="179.54 47.79 156.18 71.15 132.83 47.79"/><polyline class="cls-2" points="179.54 82.98 156.18 106.34 132.83 82.98"/></g></g></svg>