<svg xmlns="http://www.w3.org/2000/svg" viewBox="0 0 173.98 173.72"><defs><style>.cls-1,.cls-2{fill:none;stroke:#f94b1c;}.cls-1{stroke-miterlimit:10;stroke-width:2px;}.cls-2{stroke-linecap:round;stroke-linejoin:round;stroke-width:3px;}</style></defs><g id="Слой_2" data-name="Слой 2"><g id="Layer_1" data-name="Layer 1"><path class="cls-1" d="M18.43,161.73a7.59,7.59,0,0,1,2-5.45c.92-1.05,1.33-2.18.26-3.26s-2.18-.64-3.26.24c-4.34,3.55-9.73,2.6-12.21-2.38A56,56,0,0,1,1.31,141c-1.31-4.57,2.21-9.14,7-9.58a8.14,8.14,0,0,0,1.22-.11,2.08,2.08,0,0,0-.28-4.14,12,12,0,0,1-2.73-.52,7.68,7.68,0,0,1-5.08-9.78,65.93,65.93,0,0,1,4.07-9.65c2.27-4.37,7.61-5.34,11.55-2.36.28.21.54.45.81.67a1.93,1.93,0,0,0,3-.1,2,2,0,0,0-.06-2.85,8.37,8.37,0,0,1-2.29-5.7c0-2.83,1.12-5.16,3.59-6.38A72.26,72.26,0,0,1,32.8,86c4.35-1.34,9,2.32,9.49,6.95a10,10,0,0,0,.1,1.23,2,2,0,0,0,2.17,1.84c1.25-.08,1.71-.86,2-2a17.13,17.13,0,0,1,1.77-5,6.92,6.92,0,0,1,8.14-2.89,73.89,73.89,0,0,1,9.84,4C71,92.5,71.91,98,68.64,102.07c-.11.14-.23.26-.35.39-.9,1-1.08,2.11,0,3.1s1.94.61,3-.08a13.06,13.06,0,0,1,4-2,7.05,7.05,0,0,1,8.35,3.93,70.74,70.74,0,0,1,3.86,9.16c1.73,5.23-1.67,10.15-7.18,10.63-1.45.13-2.59.46-2.57,2.15s1.28,2,2.66,2.13c5.35.44,8.76,5.2,7.15,10.31a58.11,58.11,0,0,1-3.64,8.88c-2.07,4.09-6.95,5-10.6,2.22-.23-.18-.46-.37-.67-.57-1.08-1-2.24-1.27-3.42-.21s-1,2.18.14,3.57a8.25,8.25,0,0,1,2.11,5.59c0,2.59-1,4.87-3.27,6a76.61,76.61,0,0,1-11.64,5.12c-4.86,1.53-9.48-2.09-9.92-7.32-.12-1.47-.54-2.64-2.13-2.63s-2,1.24-2.15,2.67c-.45,5.46-5.26,8.87-10.43,7.16a77.14,77.14,0,0,1-9.48-4A6.88,6.88,0,0,1,18.43,161.73ZM80.59,139c-3.26-.18-5.85-.95-7.84-3A9.62,9.62,0,0,1,70,128.48c.28-4.78,3.34-7.56,10.49-9.23-1.18-2.86-2.33-5.66-3.49-8.51-6.44,3.8-10.72,3.76-14.32,0s-3.5-8,.28-14.08l-8.5-3.5c-1.81,7.15-4.24,10.15-8.88,10.42-7,.4-10.27-3.6-11.06-10.51L26,96.69c3.81,6.34,3.79,10.57.09,14.23A9.46,9.46,0,0,1,20,113.69c-3,.24-5.54-.93-8-3.13l-3.67,8.85c5.6.44,9.63,2.77,10.36,8.16,1,7.29-3.28,10.76-10.36,11.64L12,147.82c5.63-3.88,10.1-3.95,13.85-.45s4,7.81.17,14.46l8.57,3.59c.74-6.64,3.82-10.86,10.66-10.45,6,.36,8.54,4.53,9.14,10.5L64,161.28c-3.92-5.54-4-10.4-.54-14.23s8.17-4.13,14.3-.67Z"/><path class="cls-1" d="M63.32,129.28a18.4,18.4,0,1,1-18.39-18.39A18.41,18.41,0,0,1,63.32,129.28Zm-33,0a14.65,14.65,0,1,0,14.65-14.64A14.66,14.66,0,0,0,30.28,129.28Z"/><path class="cls-1" d="M19.79,44.58c-.6-.18-1.22-.31-1.8-.53a13.33,13.33,0,0,1-8.9-10.69A13.58,13.58,0,0,1,19.43,17.84c.31-.08.44-.18.44-.53a16.35,16.35,0,0,1,13.4-16A16,16,0,0,1,45.08,3.57c.23.14.39.22.65,0a10.86,10.86,0,0,1,14.42.37,10.73,10.73,0,0,1,3.52,7.65c0,.11,0,.22,0,.36a16.36,16.36,0,0,1,12.4,5.72,15.89,15.89,0,0,1,4,9.91A16.34,16.34,0,0,1,69.19,43.8c0-.13,0-.25,0-.36,0-1.7,0-3.4,0-5.1a.78.78,0,0,1,.41-.76,10.55,10.55,0,0,0,5-7.94A10.58,10.58,0,0,0,70.63,20a10.49,10.49,0,0,0-7.3-2.5,11.49,11.49,0,0,0-2.24.36,2.71,2.71,0,0,1-3.5-2.33,3.71,3.71,0,0,1,.26-1.57A5.47,5.47,0,0,0,48.1,9.07a2.58,2.58,0,0,1-2.83,1.21,3.28,3.28,0,0,1-1.47-.8,11.43,11.43,0,0,0-5.24-2.74A11,11,0,0,0,25.5,15.56a12.63,12.63,0,0,0,0,4.07A2.76,2.76,0,0,1,22.68,23a8.44,8.44,0,0,0-5.92,2.44A8.1,8.1,0,0,0,19.5,38.7a.47.47,0,0,1,.37.52c0,1.71,0,3.43,0,5.14A.78.78,0,0,1,19.79,44.58Z"/><path class="cls-1" d="M47.25,50.32v19.2a2.74,2.74,0,0,1-2.32,2.72,2.71,2.71,0,0,1-3.06-2,3.67,3.67,0,0,1-.11-1c0-3.25,0-6.5,0-9.76s0-6.63,0-9.94c0-2.38,0-4.76,0-7.14s0-4.73,0-7.09c0-1.43,0-2.86,0-4.28a2.68,2.68,0,0,1,2.83-2.7,2.71,2.71,0,0,1,2.63,2.86V50.32Z"/><path class="cls-1" d="M52.73,69.31c.16-1,.36-2.22.55-3.4.63-3.8,1.26-7.61,1.89-11.4.46-2.77.94-5.53,1.4-8.3.55-3.31,1.09-6.63,1.64-9.94a2.8,2.8,0,0,1,2.55-2.43,2.65,2.65,0,0,1,2.81,2.07A6.06,6.06,0,0,1,63.5,38c-.83,5.08-1.69,10.16-2.54,15.23-.59,3.5-1.19,7-1.77,10.5-.34,2-.7,4-1,6a2.75,2.75,0,0,1-5.48-.45Z"/><path class="cls-1" d="M25.33,36.8a2.81,2.81,0,0,1,2.53-3,2.73,2.73,0,0,1,2.89,2.22c.63,3.69,1.23,7.38,1.84,11.06.54,3.27,1.09,6.53,1.63,9.79q.9,5.37,1.79,10.73c.08.47.17.94.24,1.41a2.74,2.74,0,1,1-5.41.86c-.77-4.67-1.57-9.34-2.34-14Q27.18,48,25.89,40.14C25.7,39,25.49,37.77,25.33,36.8Z"/><polyline class="cls-2" points="172.48 78.1 149.12 101.46 125.77 78.1"/><polyline class="cls-2" points="172.48 113.3 149.12 136.65 125.77 113.3"/></g></g></svg>