<svg xmlns="http://www.w3.org/2000/svg" viewBox="0 0 188.74 188.81"><defs><style>.cls-1{fill:none;stroke:#f94b1c;stroke-miterlimit:10;stroke-width:2px;}</style></defs><g id="Слой_2" data-name="Слой 2"><g id="Layer_1" data-name="Layer 1"><path class="cls-1" d="M94.37,162.31c0,6.95,0,13.59,0,20.23,0,4.56-3.12,6.65-7,4.25s-7.49-2.9-11.32,0a4.74,4.74,0,0,1-6-.07c-3.69-2.72-7.22-2.69-10.9,0a4.89,4.89,0,0,1-6.14,0c-3.61-2.65-7.09-2.72-10.72,0a5,5,0,0,1-6.32,0c-3.54-2.62-7-2.7-10.53-.05a5.26,5.26,0,0,1-6.7-.08C15.36,184,12,184,8.65,186.54a7.09,7.09,0,0,1-1.9.91A4.2,4.2,0,0,1,1,183.86c-.07-.7,0-1.41,0-2.12V57.83C1,48.6,6.1,43.48,15.27,43.48H68.91v-37c0-4.75,3.07-6.87,7-4.41s7.5,2.83,11.32,0A4.62,4.62,0,0,1,93,2c3.73,2.75,7.32,2.89,11.09.06a4.73,4.73,0,0,1,6,0c3.76,2.81,7.34,2.77,11.09,0a4.77,4.77,0,0,1,5.95.05c3.68,2.7,7.21,2.75,10.9,0a4.9,4.9,0,0,1,6.14,0c3.61,2.63,7,2.73,10.72.06,4.06-2.94,7.57.21,7.51,4.51-.23,15.7-.1,31.4-.1,47.11v2.26h-8.45V12c-4.25,3.5-7.47.68-10.78-1a3.79,3.79,0,0,0-3.9,0c-7.58,3.82-5.63,3.78-13.14,0a3.81,3.81,0,0,0-3.9.06c-7.52,3.77-5.58,3.72-12.95,0a4,4,0,0,0-4.09,0c-7.42,3.7-5.48,3.72-13,0-1.4-.71-2.58-.94-3.89,0a13.38,13.38,0,0,1-1.51.77c-2.91,1.62-5.8,3.3-9.18.18V43.48h2.15c6,0,12.07-.43,18,.12,6.53.6,14.14,5.39,13.66,13.42-.14,2.46,0,4.93,0,7.68h53.93c13.42,0,22.45,9.06,22.46,22.51v52.62c0,13.43-9.06,22.47-22.5,22.48H94.37ZM9.5,176.86c3.43-2.83,6.3-1.57,9.15.11.54.33,1.18.51,1.69.88,1.32,1,2.49.68,3.89,0,7.46-3.75,5.5-3.75,12.94,0a4,4,0,0,0,4.09,0c7.37-3.7,5.42-3.76,13,0a3.81,3.81,0,0,0,3.9.06c7.5-3.8,5.55-3.83,13.12,0a3.83,3.83,0,0,0,3.91,0c3.3-1.69,6.52-4.53,10.75-1v-3q0-53.86,0-107.74c0-4.69-1.15-9.55,1.57-14.13H15.35C10.71,52,9.5,53.2,9.5,57.91v119Zm169.71-69.58H94.53v46.54h42.13c10,0,19.93.05,29.9,0,6.73-.05,12.42-5,12.58-11.6C179.4,130.62,179.21,119,179.21,107.28Zm0-17.2V87.73c0-9.57-4.92-14.54-14.43-14.54H94.53V90.08ZM102.84,64.6c0-3,.09-5.87,0-8.67A4.06,4.06,0,0,0,98.87,52c-2.06-.12-4.15,1.19-4.31,3.24-.25,3.11-.07,6.25-.07,9.37Z"/><path class="cls-1" d="M100.69,35c-3.39,0-6.78,0-10.16,0-2.89,0-4.72-1.77-4.67-4.34s1.86-4.12,4.65-4.13q10.27,0,20.55,0c2.76,0,4.55,1.74,4.55,4.22S113.82,35,111.07,35C107.61,35,104.15,35,100.69,35Z"/><path class="cls-1" d="M136.8,26.51c1.41,0,2.82-.05,4.23,0a4.23,4.23,0,0,1,.13,8.45c-2.89.08-5.79.08-8.68,0a4.23,4.23,0,1,1,.09-8.45C134,26.46,135.39,26.51,136.8,26.51Z"/><path class="cls-1" d="M137,52c-1.48,0-3,.06-4.44,0a4.23,4.23,0,1,1,0-8.45c2.89-.07,5.79-.08,8.67,0a4.12,4.12,0,0,1,4.11,4.23A4.17,4.17,0,0,1,141.18,52C139.78,52,138.36,52,137,52Z"/><path class="cls-1" d="M32.9,81.68c3.39,0,6.77,0,10.16,0,2.8,0,4.6,1.67,4.65,4.14s-1.77,4.32-4.66,4.33q-10.27,0-20.54,0c-2.76,0-4.55-1.75-4.55-4.24s1.8-4.19,4.56-4.22C26,81.65,29.44,81.68,32.9,81.68Z"/><path class="cls-1" d="M32.83,115.63c3.32,0,6.64,0,10,0,3.1,0,5,1.64,4.92,4.28s-1.85,4.19-4.81,4.2q-10,0-20.12,0c-3,0-4.78-1.63-4.82-4.18s1.82-4.28,4.92-4.3C26.2,115.61,29.51,115.63,32.83,115.63Z"/><path class="cls-1" d="M28.64,132.6c2.05,0,4.1,0,6.14,0,2.72.07,4.5,1.84,4.45,4.34a4.17,4.17,0,0,1-4.44,4.12c-4.16.05-8.33.06-12.49,0a4.23,4.23,0,1,1,0-8.45C24.41,132.56,26.53,132.6,28.64,132.6Z"/><path class="cls-1" d="M68.9,90.16c-1.41,0-2.82,0-4.23,0a4.17,4.17,0,0,1-4.27-4.3,4.12,4.12,0,0,1,4.18-4.15c2.89-.08,5.79-.08,8.68,0a4.12,4.12,0,0,1,4.16,4.17,4.17,4.17,0,0,1-4.08,4.27c-1.47.08-3,0-4.44,0Z"/><path class="cls-1" d="M26.48,98.66c1.49,0,3-.07,4.45,0A4.15,4.15,0,0,1,35,103a4.1,4.1,0,0,1-4,4.14c-3,.11-6.07.11-9.1,0A4.09,4.09,0,0,1,18,102.93,4.14,4.14,0,0,1,22,98.68C23.52,98.59,25,98.66,26.48,98.66Z"/><path class="cls-1" d="M68.86,107.12c-1.48,0-3,.08-4.44,0a4.15,4.15,0,0,1-4-4.32,4.09,4.09,0,0,1,4-4.1c3-.1,6.07-.11,9.1,0a4.08,4.08,0,0,1,3.91,4.19,4.14,4.14,0,0,1-3.91,4.21C72,107.21,70.41,107.12,68.86,107.12Z"/><path class="cls-1" d="M68.78,124.11c-1.41,0-2.83,0-4.23,0a4.16,4.16,0,0,1-4.15-4.2,4.11,4.11,0,0,1,4.1-4.23c3-.1,5.92-.1,8.88,0a4.11,4.11,0,0,1,4,4.29,4.22,4.22,0,0,1-4,4.15H68.78Z"/><path class="cls-1" d="M68.93,141.08c-1.48,0-3,.06-4.44,0a4.22,4.22,0,0,1,.07-8.43c2.89-.09,5.78-.08,8.67,0a4.12,4.12,0,0,1,4.19,4.14,4.17,4.17,0,0,1-4.26,4.3c-1.41.06-2.82,0-4.23,0Z"/></g></g></svg>