<svg xmlns="http://www.w3.org/2000/svg" xmlns:xlink="http://www.w3.org/1999/xlink" viewBox="0 0 930.37 417.52"><defs><style>.cls-1{fill:#f94b1c;}.cls-2{fill:url(#linear-gradient);}</style><linearGradient id="linear-gradient" y1="208.76" x2="930.37" y2="208.76" gradientUnits="userSpaceOnUse"><stop offset="0" stop-color="#cd3124"/><stop offset="1"/></linearGradient></defs><g id="Слой_2" data-name="Слой 2"><g id="Layer_1" data-name="Layer 1"><path class="cls-1" d="M0,39.63,28.55,0h4.28l7.3,39.63H35.58l-1.8-10.4H12.31L4.89,39.63ZM15.12,25.24H33.05L29.51,5.06Z"/><path class="cls-1" d="M46.71,39.63,57.28.28h4.44L55.48,23.66,83.69.28H90L68.85,17.59,80,39.63H75L65.26,20.18,53.85,29.57l-2.7,10.06Z"/><path class="cls-1" d="M116.12,48.4l2.37-8.77H87.07L97.63.28h4.44l-9.5,35.3h21.87l9.5-35.3h4.38l-9.5,35.3h5.29L120,48.4Z"/><path class="cls-1" d="M130,39.63,140.52.28h4.38l-8.65,32.38,32-32.38h4.21L162,39.63h-4.38l8.6-32.38-32.1,32.38Z"/><path class="cls-1" d="M173.06,39.63,183.63.28H188l-8.65,32.38L211.4.28h4.21L205.1,39.63h-4.38l8.6-32.38-32.1,32.38Z"/><path class="cls-1" d="M0,113.45,28.55,73.82h4.28l7.3,39.63H35.58l-1.8-10.4H12.31l-7.42,10.4ZM15.12,99.06H33.05L29.51,78.88Z"/><path class="cls-1" d="M46.71,113.45,57.28,74.11h4.44L55.48,97.49,83.69,74.11H90L68.85,91.42l11.19,22H75L65.26,94l-11.41,9.39-2.7,10.06Z"/><path class="cls-1" d="M116.12,122.22l2.37-8.77H87.07L97.63,74.11h4.44l-9.5,35.29h21.87l9.5-35.29h4.38l-9.5,35.29h5.29L120,122.22Z"/><path class="cls-1" d="M130,113.45l10.57-39.34h4.38l-8.65,32.37,32-32.37h4.21L162,113.45h-4.38l8.6-32.37-32.1,32.37Z"/><path class="cls-1" d="M173.06,113.45l10.57-39.34H188l-8.65,32.37,32-32.37h4.21L205.1,113.45h-4.38l8.6-32.37-32.1,32.37Z"/><path class="cls-1" d="M0,187.28l28.55-39.63h4.28l7.3,39.63H35.58l-1.8-10.4H12.31l-7.42,10.4Zm15.12-14.39H33.05l-3.54-20.18Z"/><path class="cls-1" d="M46.71,187.28l10.57-39.35h4.44l-6.24,23.38,28.21-23.38H90L68.85,165.24l11.19,22H75l-9.78-19.45-11.41,9.38-2.7,10.07Z"/><path class="cls-1" d="M116.12,196l2.37-8.76H87.07l10.56-39.35h4.44l-9.5,35.3h21.87l9.5-35.3h4.38l-9.5,35.3h5.29L120,196Z"/><path class="cls-1" d="M130,187.28l10.57-39.35h4.38l-8.65,32.38,32-32.38h4.21L162,187.28h-4.38l8.6-32.38-32.1,32.38Z"/><path class="cls-1" d="M173.06,187.28l10.57-39.35H188l-8.65,32.38,32-32.38h4.21L205.1,187.28h-4.38l8.6-32.38-32.1,32.38Z"/><path class="cls-1" d="M0,261.1l28.55-39.63h4.28l7.3,39.63H35.58l-1.8-10.4H12.31L4.89,261.1Zm15.12-14.39H33.05l-3.54-20.18Z"/><path class="cls-1" d="M46.71,261.1l10.57-39.35h4.44l-6.24,23.39,28.21-23.39H90L68.85,239.07,80,261.1H75l-9.78-19.45L53.85,251l-2.7,10.06Z"/><path class="cls-1" d="M116.12,269.87l2.37-8.77H87.07l10.56-39.35h4.44l-9.5,35.3h21.87l9.5-35.3h4.38l-9.5,35.3h5.29L120,269.87Z"/><path class="cls-1" d="M130,261.1l10.57-39.35h4.38l-8.65,32.38,32-32.38h4.21L162,261.1h-4.38l8.6-32.38-32.1,32.38Z"/><path class="cls-1" d="M173.06,261.1l10.57-39.35H188l-8.65,32.38,32-32.38h4.21L205.1,261.1h-4.38l8.6-32.38-32.1,32.38Z"/><path class="cls-1" d="M0,334.92,28.55,295.3h4.28l7.3,39.62H35.58l-1.8-10.39H12.31L4.89,334.92Zm15.12-14.39H33.05l-3.54-20.17Z"/><path class="cls-1" d="M46.71,334.92l10.57-39.34h4.44L55.48,319l28.21-23.38H90L68.85,312.89l11.19,22H75l-9.78-19.44-11.41,9.38-2.7,10.06Z"/><path class="cls-1" d="M116.12,343.69l2.37-8.77H87.07l10.56-39.34h4.44l-9.5,35.3h21.87l9.5-35.3h4.38l-9.5,35.3h5.29L120,343.69Z"/><path class="cls-1" d="M130,334.92l10.57-39.34h4.38L136.25,328l32-32.37h4.21L162,334.92h-4.38l8.6-32.37-32.1,32.37Z"/><path class="cls-1" d="M173.06,334.92l10.57-39.34H188L179.36,328l32-32.37h4.21L205.1,334.92h-4.38l8.6-32.37-32.1,32.37Z"/><path class="cls-1" d="M0,408.75l28.55-39.63h4.28l7.3,39.63H35.58l-1.8-10.4H12.31l-7.42,10.4Zm15.12-14.39H33.05l-3.54-20.18Z"/><path class="cls-1" d="M46.71,408.75,57.28,369.4h4.44l-6.24,23.39L83.69,369.4H90L68.85,386.71l11.19,22H75L65.26,389.3l-11.41,9.39-2.7,10.06Z"/><path class="cls-1" d="M116.12,417.52l2.37-8.77H87.07L97.63,369.4h4.44l-9.5,35.3h21.87l9.5-35.3h4.38l-9.5,35.3h5.29L120,417.52Z"/><path class="cls-1" d="M130,408.75l10.57-39.35h4.38l-8.65,32.38,32-32.38h4.21L162,408.75h-4.38l8.6-32.38-32.1,32.38Z"/><path class="cls-1" d="M173.06,408.75l10.57-39.35H188l-8.65,32.38,32-32.38h4.21L205.1,408.75h-4.38l8.6-32.38-32.1,32.38Z"/><path class="cls-1" d="M238.25,39.63,266.81,0h4.27l7.3,39.63h-4.55L272,29.23H250.56l-7.42,10.4Zm15.12-14.39H271.3L267.76,5.06Z"/><path class="cls-1" d="M285,39.63,295.53.28H300l-6.24,23.38L321.94.28h6.3L307.11,17.59l11.18,22h-5l-9.78-19.45L292.1,29.57l-2.7,10.06Z"/><path class="cls-1" d="M354.38,48.4l2.36-8.77H325.32L335.88.28h4.44l-9.49,35.3h21.86l9.5-35.3h4.38l-9.5,35.3h5.29L358.2,48.4Z"/><path class="cls-1" d="M368.2,39.63,378.77.28h4.38L374.5,32.66l32-32.38h4.21L400.24,39.63h-4.38l8.6-32.38-32.1,32.38Z"/><path class="cls-1" d="M411.31,39.63,421.88.28h4.39l-8.66,32.38,32-32.38h4.22L443.35,39.63H439l8.6-32.38-32.1,32.38Z"/><path class="cls-1" d="M238.25,113.45l28.56-39.63h4.27l7.3,39.63h-4.55l-1.8-10.4H250.56l-7.42,10.4Zm15.12-14.39H271.3l-3.54-20.18Z"/><path class="cls-1" d="M285,113.45l10.57-39.34H300l-6.24,23.38,28.21-23.38h6.3L307.11,91.42l11.18,22h-5L303.51,94l-11.41,9.39-2.7,10.06Z"/><path class="cls-1" d="M354.38,122.22l2.36-8.77H325.32l10.56-39.34h4.44l-9.49,35.29h21.86l9.5-35.29h4.38l-9.5,35.29h5.29l-4.16,12.82Z"/><path class="cls-1" d="M368.2,113.45l10.57-39.34h4.38l-8.65,32.37,32-32.37h4.21l-10.51,39.34h-4.38l8.6-32.37-32.1,32.37Z"/><path class="cls-1" d="M411.31,113.45l10.57-39.34h4.39l-8.66,32.37,32-32.37h4.22l-10.52,39.34H439l8.6-32.37-32.1,32.37Z"/><path class="cls-1" d="M238.25,187.28l28.56-39.63h4.27l7.3,39.63h-4.55l-1.8-10.4H250.56l-7.42,10.4Zm15.12-14.39H271.3l-3.54-20.18Z"/><path class="cls-1" d="M285,187.28l10.57-39.35H300l-6.24,23.38,28.21-23.38h6.3l-21.13,17.31,11.18,22h-5l-9.78-19.45-11.41,9.38-2.7,10.07Z"/><path class="cls-1" d="M354.38,196l2.36-8.76H325.32l10.56-39.35h4.44l-9.49,35.3h21.86l9.5-35.3h4.38l-9.5,35.3h5.29L358.2,196Z"/><path class="cls-1" d="M368.2,187.28l10.57-39.35h4.38l-8.65,32.38,32-32.38h4.21l-10.51,39.35h-4.38l8.6-32.38-32.1,32.38Z"/><path class="cls-1" d="M411.31,187.28l10.57-39.35h4.39l-8.66,32.38,32-32.38h4.22l-10.52,39.35H439l8.6-32.38-32.1,32.38Z"/><path class="cls-1" d="M238.25,261.1l28.56-39.63h4.27l7.3,39.63h-4.55L272,250.7H250.56l-7.42,10.4Zm15.12-14.39H271.3l-3.54-20.18Z"/><path class="cls-1" d="M285,261.1l10.57-39.35H300l-6.24,23.39,28.21-23.39h6.3l-21.13,17.32,11.18,22h-5l-9.78-19.45L292.1,251l-2.7,10.06Z"/><path class="cls-1" d="M354.38,269.87l2.36-8.77H325.32l10.56-39.35h4.44l-9.49,35.3h21.86l9.5-35.3h4.38l-9.5,35.3h5.29l-4.16,12.82Z"/><path class="cls-1" d="M368.2,261.1l10.57-39.35h4.38l-8.65,32.38,32-32.38h4.21L400.24,261.1h-4.38l8.6-32.38-32.1,32.38Z"/><path class="cls-1" d="M411.31,261.1l10.57-39.35h4.39l-8.66,32.38,32-32.38h4.22L443.35,261.1H439l8.6-32.38-32.1,32.38Z"/><path class="cls-1" d="M238.25,334.92l28.56-39.62h4.27l7.3,39.62h-4.55L272,324.53H250.56l-7.42,10.39Zm15.12-14.39H271.3l-3.54-20.17Z"/><path class="cls-1" d="M285,334.92l10.57-39.34H300L293.73,319l28.21-23.38h6.3l-21.13,17.31,11.18,22h-5l-9.78-19.44-11.41,9.38-2.7,10.06Z"/><path class="cls-1" d="M354.38,343.69l2.36-8.77H325.32l10.56-39.34h4.44l-9.49,35.3h21.86l9.5-35.3h4.38l-9.5,35.3h5.29l-4.16,12.81Z"/><path class="cls-1" d="M368.2,334.92l10.57-39.34h4.38L374.5,328l32-32.37h4.21l-10.51,39.34h-4.38l8.6-32.37-32.1,32.37Z"/><path class="cls-1" d="M411.31,334.92l10.57-39.34h4.39L417.61,328l32-32.37h4.22l-10.52,39.34H439l8.6-32.37-32.1,32.37Z"/><path class="cls-1" d="M238.25,408.75l28.56-39.63h4.27l7.3,39.63h-4.55l-1.8-10.4H250.56l-7.42,10.4Zm15.12-14.39H271.3l-3.54-20.18Z"/><path class="cls-1" d="M285,408.75l10.57-39.35H300l-6.24,23.39,28.21-23.39h6.3l-21.13,17.31,11.18,22h-5l-9.78-19.45-11.41,9.39-2.7,10.06Z"/><path class="cls-1" d="M354.38,417.52l2.36-8.77H325.32l10.56-39.35h4.44l-9.49,35.3h21.86l9.5-35.3h4.38l-9.5,35.3h5.29l-4.16,12.82Z"/><path class="cls-1" d="M368.2,408.75l10.57-39.35h4.38l-8.65,32.38,32-32.38h4.21l-10.51,39.35h-4.38l8.6-32.38-32.1,32.38Z"/><path class="cls-1" d="M411.31,408.75l10.57-39.35h4.39l-8.66,32.38,32-32.38h4.22l-10.52,39.35H439l8.6-32.38-32.1,32.38Z"/><path class="cls-1" d="M476.5,39.63,505.06,0h4.27l7.31,39.63h-4.56l-1.8-10.4H488.81l-7.42,10.4Zm15.12-14.39h17.93L506,5.06Z"/><path class="cls-1" d="M523.21,39.63,533.78.28h4.44L532,23.66,560.2.28h6.29L545.36,17.59l11.18,22h-5l-9.78-19.45-11.41,9.39-2.7,10.06Z"/><path class="cls-1" d="M592.63,48.4,595,39.63H563.57L574.14.28h4.44l-9.5,35.3h21.86l9.5-35.3h4.38l-9.49,35.3h5.28L596.45,48.4Z"/><path class="cls-1" d="M606.45,39.63,617,.28h4.39l-8.66,32.38,32-32.38H649L638.49,39.63h-4.38l8.6-32.38-32.1,32.38Z"/><path class="cls-1" d="M649.57,39.63,660.13.28h4.39l-8.66,32.38L687.9.28h4.22L681.61,39.63h-4.39l8.6-32.38L653.73,39.63Z"/><path class="cls-1" d="M476.5,113.45l28.56-39.63h4.27l7.31,39.63h-4.56l-1.8-10.4H488.81l-7.42,10.4Zm15.12-14.39h17.93L506,78.88Z"/><path class="cls-1" d="M523.21,113.45l10.57-39.34h4.44L532,97.49,560.2,74.11h6.29L545.36,91.42l11.18,22h-5L541.76,94l-11.41,9.39-2.7,10.06Z"/><path class="cls-1" d="M592.63,122.22l2.36-8.77H563.57l10.57-39.34h4.44l-9.5,35.29h21.86l9.5-35.29h4.38l-9.49,35.29h5.28l-4.16,12.82Z"/><path class="cls-1" d="M606.45,113.45,617,74.11h4.39l-8.66,32.37,32-32.37H649l-10.51,39.34h-4.38l8.6-32.37-32.1,32.37Z"/><path class="cls-1" d="M649.57,113.45l10.56-39.34h4.39l-8.66,32.37,32-32.37h4.22l-10.51,39.34h-4.39l8.6-32.37-32.09,32.37Z"/><path class="cls-1" d="M476.5,187.28l28.56-39.63h4.27l7.31,39.63h-4.56l-1.8-10.4H488.81l-7.42,10.4Zm15.12-14.39h17.93L506,152.71Z"/><path class="cls-1" d="M523.21,187.28l10.57-39.35h4.44L532,171.31l28.22-23.38h6.29l-21.13,17.31,11.18,22h-5l-9.78-19.45-11.41,9.38-2.7,10.07Z"/><path class="cls-1" d="M592.63,196l2.36-8.76H563.57l10.57-39.35h4.44l-9.5,35.3h21.86l9.5-35.3h4.38l-9.49,35.3h5.28L596.45,196Z"/><path class="cls-1" d="M606.45,187.28,617,147.93h4.39l-8.66,32.38,32-32.38H649l-10.51,39.35h-4.38l8.6-32.38-32.1,32.38Z"/><path class="cls-1" d="M649.57,187.28l10.56-39.35h4.39l-8.66,32.38,32-32.38h4.22l-10.51,39.35h-4.39l8.6-32.38-32.09,32.38Z"/><path class="cls-1" d="M476.5,261.1l28.56-39.63h4.27l7.31,39.63h-4.56l-1.8-10.4H488.81l-7.42,10.4Zm15.12-14.39h17.93L506,226.53Z"/><path class="cls-1" d="M523.21,261.1l10.57-39.35h4.44L532,245.14l28.22-23.39h6.29l-21.13,17.32,11.18,22h-5l-9.78-19.45L530.35,251l-2.7,10.06Z"/><path class="cls-1" d="M592.63,269.87,595,261.1H563.57l10.57-39.35h4.44l-9.5,35.3h21.86l9.5-35.3h4.38l-9.49,35.3h5.28l-4.16,12.82Z"/><path class="cls-1" d="M606.45,261.1,617,221.75h4.39l-8.66,32.38,32-32.38H649L638.49,261.1h-4.38l8.6-32.38-32.1,32.38Z"/><path class="cls-1" d="M649.57,261.1l10.56-39.35h4.39l-8.66,32.38,32-32.38h4.22L681.61,261.1h-4.39l8.6-32.38L653.73,261.1Z"/><path class="cls-1" d="M476.5,334.92l28.56-39.62h4.27l7.31,39.62h-4.56l-1.8-10.39H488.81l-7.42,10.39Zm15.12-14.39h17.93L506,300.36Z"/><path class="cls-1" d="M523.21,334.92l10.57-39.34h4.44L532,319l28.22-23.38h6.29l-21.13,17.31,11.18,22h-5l-9.78-19.44-11.41,9.38-2.7,10.06Z"/><path class="cls-1" d="M592.63,343.69l2.36-8.77H563.57l10.57-39.34h4.44l-9.5,35.3h21.86l9.5-35.3h4.38l-9.49,35.3h5.28l-4.16,12.81Z"/><path class="cls-1" d="M606.45,334.92,617,295.58h4.39L612.75,328l32-32.37H649l-10.51,39.34h-4.38l8.6-32.37-32.1,32.37Z"/><path class="cls-1" d="M649.57,334.92l10.56-39.34h4.39L655.86,328l32-32.37h4.22l-10.51,39.34h-4.39l8.6-32.37-32.09,32.37Z"/><path class="cls-1" d="M476.5,408.75l28.56-39.63h4.27l7.31,39.63h-4.56l-1.8-10.4H488.81l-7.42,10.4Zm15.12-14.39h17.93L506,374.18Z"/><path class="cls-1" d="M523.21,408.75l10.57-39.35h4.44L532,392.79,560.2,369.4h6.29l-21.13,17.31,11.18,22h-5l-9.78-19.45-11.41,9.39-2.7,10.06Z"/><path class="cls-1" d="M592.63,417.52l2.36-8.77H563.57l10.57-39.35h4.44l-9.5,35.3h21.86l9.5-35.3h4.38l-9.49,35.3h5.28l-4.16,12.82Z"/><path class="cls-1" d="M606.45,408.75,617,369.4h4.39l-8.66,32.38,32-32.38H649l-10.51,39.35h-4.38l8.6-32.38-32.1,32.38Z"/><path class="cls-1" d="M649.57,408.75l10.56-39.35h4.39l-8.66,32.38,32-32.38h4.22l-10.51,39.35h-4.39l8.6-32.38-32.09,32.38Z"/><path class="cls-1" d="M714.75,39.63,743.31,0h4.27l7.31,39.63h-4.56l-1.79-10.4H727.06l-7.42,10.4Zm15.12-14.39H747.8L744.26,5.06Z"/><path class="cls-1" d="M761.46,39.63,772,.28h4.44l-6.24,23.38L798.45.28h6.29L783.61,17.59l11.18,22h-5L780,20.18,768.6,29.57l-2.7,10.06Z"/><path class="cls-1" d="M830.88,48.4l2.36-8.77H801.82L812.39.28h4.44l-9.5,35.3h21.86l9.5-35.3h4.39l-9.5,35.3h5.28L834.7,48.4Z"/><path class="cls-1" d="M844.71,39.63,855.27.28h4.39L851,32.66,883,.28h4.22L876.74,39.63h-4.38L881,7.25,848.87,39.63Z"/><path class="cls-1" d="M887.82,39.63,898.38.28h4.39l-8.66,32.38,32-32.38h4.22L919.86,39.63h-4.39l8.6-32.38L892,39.63Z"/><path class="cls-1" d="M714.75,113.45l28.56-39.63h4.27l7.31,39.63h-4.56l-1.79-10.4H727.06l-7.42,10.4Zm15.12-14.39H747.8l-3.54-20.18Z"/><path class="cls-1" d="M761.46,113.45,772,74.11h4.44l-6.24,23.38,28.22-23.38h6.29L783.61,91.42l11.18,22h-5L780,94l-11.41,9.39-2.7,10.06Z"/><path class="cls-1" d="M830.88,122.22l2.36-8.77H801.82l10.57-39.34h4.44l-9.5,35.29h21.86l9.5-35.29h4.39l-9.5,35.29h5.28l-4.16,12.82Z"/><path class="cls-1" d="M844.71,113.45l10.56-39.34h4.39L851,106.48l32-32.37h4.22l-10.52,39.34h-4.38L881,81.08l-32.09,32.37Z"/><path class="cls-1" d="M887.82,113.45l10.56-39.34h4.39l-8.66,32.37,32-32.37h4.22l-10.51,39.34h-4.39l8.6-32.37L892,113.45Z"/><path class="cls-1" d="M714.75,187.28l28.56-39.63h4.27l7.31,39.63h-4.56l-1.79-10.4H727.06l-7.42,10.4Zm15.12-14.39H747.8l-3.54-20.18Z"/><path class="cls-1" d="M761.46,187.28,772,147.93h4.44l-6.24,23.38,28.22-23.38h6.29l-21.13,17.31,11.18,22h-5L780,167.83l-11.41,9.38-2.7,10.07Z"/><path class="cls-1" d="M830.88,196l2.36-8.76H801.82l10.57-39.35h4.44l-9.5,35.3h21.86l9.5-35.3h4.39l-9.5,35.3h5.28L834.7,196Z"/><path class="cls-1" d="M844.71,187.28l10.56-39.35h4.39L851,180.31l32-32.38h4.22l-10.52,39.35h-4.38L881,154.9l-32.09,32.38Z"/><path class="cls-1" d="M887.82,187.28l10.56-39.35h4.39l-8.66,32.38,32-32.38h4.22l-10.51,39.35h-4.39l8.6-32.38L892,187.28Z"/><path class="cls-1" d="M714.75,261.1l28.56-39.63h4.27l7.31,39.63h-4.56l-1.79-10.4H727.06l-7.42,10.4Zm15.12-14.39H747.8l-3.54-20.18Z"/><path class="cls-1" d="M761.46,261.1,772,221.75h4.44l-6.24,23.39,28.22-23.39h6.29l-21.13,17.32,11.18,22h-5L780,241.65,768.6,251l-2.7,10.06Z"/><path class="cls-1" d="M830.88,269.87l2.36-8.77H801.82l10.57-39.35h4.44l-9.5,35.3h21.86l9.5-35.3h4.39l-9.5,35.3h5.28l-4.16,12.82Z"/><path class="cls-1" d="M844.71,261.1l10.56-39.35h4.39L851,254.13l32-32.38h4.22L876.74,261.1h-4.38l8.6-32.38L848.87,261.1Z"/><path class="cls-1" d="M887.82,261.1l10.56-39.35h4.39l-8.66,32.38,32-32.38h4.22L919.86,261.1h-4.39l8.6-32.38L892,261.1Z"/><path class="cls-1" d="M714.75,334.92l28.56-39.62h4.27l7.31,39.62h-4.56l-1.79-10.39H727.06l-7.42,10.39Zm15.12-14.39H747.8l-3.54-20.17Z"/><path class="cls-1" d="M761.46,334.92,772,295.58h4.44L770.23,319l28.22-23.38h6.29l-21.13,17.31,11.18,22h-5L780,315.48l-11.41,9.38-2.7,10.06Z"/><path class="cls-1" d="M830.88,343.69l2.36-8.77H801.82l10.57-39.34h4.44l-9.5,35.3h21.86l9.5-35.3h4.39l-9.5,35.3h5.28l-4.16,12.81Z"/><path class="cls-1" d="M844.71,334.92l10.56-39.34h4.39L851,328l32-32.37h4.22l-10.52,39.34h-4.38l8.6-32.37-32.09,32.37Z"/><path class="cls-1" d="M887.82,334.92l10.56-39.34h4.39L894.11,328l32-32.37h4.22l-10.51,39.34h-4.39l8.6-32.37L892,334.92Z"/><path class="cls-1" d="M714.75,408.75l28.56-39.63h4.27l7.31,39.63h-4.56l-1.79-10.4H727.06l-7.42,10.4Zm15.12-14.39H747.8l-3.54-20.18Z"/><path class="cls-1" d="M761.46,408.75,772,369.4h4.44l-6.24,23.39,28.22-23.39h6.29l-21.13,17.31,11.18,22h-5L780,389.3l-11.41,9.39-2.7,10.06Z"/><path class="cls-1" d="M830.88,417.52l2.36-8.77H801.82l10.57-39.35h4.44l-9.5,35.3h21.86l9.5-35.3h4.39l-9.5,35.3h5.28l-4.16,12.82Z"/><path class="cls-1" d="M844.71,408.75l10.56-39.35h4.39L851,401.78l32-32.38h4.22l-10.52,39.35h-4.38l8.6-32.38-32.09,32.38Z"/><path class="cls-1" d="M887.82,408.75l10.56-39.35h4.39l-8.66,32.38,32-32.38h4.22l-10.51,39.35h-4.39l8.6-32.38L892,408.75Z"/><path class="cls-2" d="M0,39.63,28.55,0h4.28l7.3,39.63H35.58l-1.8-10.4H12.31L4.89,39.63ZM15.12,25.24H33.05L29.51,5.06Z"/><path class="cls-2" d="M46.71,39.63,57.28.28h4.44L55.48,23.66,83.69.28H90L68.85,17.59,80,39.63H75L65.26,20.18,53.85,29.57l-2.7,10.06Z"/><path class="cls-2" d="M116.12,48.4l2.37-8.77H87.07L97.63.28h4.44l-9.5,35.3h21.87l9.5-35.3h4.38l-9.5,35.3h5.29L120,48.4Z"/><path class="cls-2" d="M130,39.63,140.52.28h4.38l-8.65,32.38,32-32.38h4.21L162,39.63h-4.38l8.6-32.38-32.1,32.38Z"/><path class="cls-2" d="M173.06,39.63,183.63.28H188l-8.65,32.38L211.4.28h4.21L205.1,39.63h-4.38l8.6-32.38-32.1,32.38Z"/><path class="cls-2" d="M0,39.63,28.55,0h4.28l7.3,39.63H35.58l-1.8-10.4H12.31L4.89,39.63ZM15.12,25.24H33.05L29.51,5.06Z"/><path class="cls-2" d="M46.71,39.63,57.28.28h4.44L55.48,23.66,83.69.28H90L68.85,17.59,80,39.63H75L65.26,20.18,53.85,29.57l-2.7,10.06Z"/><path class="cls-2" d="M116.12,48.4l2.37-8.77H87.07L97.63.28h4.44l-9.5,35.3h21.87l9.5-35.3h4.38l-9.5,35.3h5.29L120,48.4Z"/><path class="cls-2" d="M130,39.63,140.52.28h4.38l-8.65,32.38,32-32.38h4.21L162,39.63h-4.38l8.6-32.38-32.1,32.38Z"/><path class="cls-2" d="M173.06,39.63,183.63.28H188l-8.65,32.38L211.4.28h4.21L205.1,39.63h-4.38l8.6-32.38-32.1,32.38Z"/><path class="cls-2" d="M0,39.63,28.55,0h4.28l7.3,39.63H35.58l-1.8-10.4H12.31L4.89,39.63ZM15.12,25.24H33.05L29.51,5.06Z"/><path class="cls-2" d="M46.71,39.63,57.28.28h4.44L55.48,23.66,83.69.28H90L68.85,17.59,80,39.63H75L65.26,20.18,53.85,29.57l-2.7,10.06Z"/><path class="cls-2" d="M116.12,48.4l2.37-8.77H87.07L97.63.28h4.44l-9.5,35.3h21.87l9.5-35.3h4.38l-9.5,35.3h5.29L120,48.4Z"/><path class="cls-2" d="M130,39.63,140.52.28h4.38l-8.65,32.38,32-32.38h4.21L162,39.63h-4.38l8.6-32.38-32.1,32.38Z"/><path class="cls-2" d="M173.06,39.63,183.63.28H188l-8.65,32.38L211.4.28h4.21L205.1,39.63h-4.38l8.6-32.38-32.1,32.38Z"/><path class="cls-2" d="M0,113.45,28.55,73.82h4.28l7.3,39.63H35.58l-1.8-10.4H12.31l-7.42,10.4ZM15.12,99.06H33.05L29.51,78.88Z"/><path class="cls-2" d="M46.71,113.45,57.28,74.11h4.44L55.48,97.49,83.69,74.11H90L68.85,91.42l11.19,22H75L65.26,94l-11.41,9.39-2.7,10.06Z"/><path class="cls-2" d="M116.12,122.22l2.37-8.77H87.07L97.63,74.11h4.44l-9.5,35.29h21.87l9.5-35.29h4.38l-9.5,35.29h5.29L120,122.22Z"/><path class="cls-2" d="M130,113.45l10.57-39.34h4.38l-8.65,32.37,32-32.37h4.21L162,113.45h-4.38l8.6-32.37-32.1,32.37Z"/><path class="cls-2" d="M173.06,113.45l10.57-39.34H188l-8.65,32.37,32-32.37h4.21L205.1,113.45h-4.38l8.6-32.37-32.1,32.37Z"/><path class="cls-2" d="M0,113.45,28.55,73.82h4.28l7.3,39.63H35.58l-1.8-10.4H12.31l-7.42,10.4ZM15.12,99.06H33.05L29.51,78.88Z"/><path class="cls-2" d="M46.71,113.45,57.28,74.11h4.44L55.48,97.49,83.69,74.11H90L68.85,91.42l11.19,22H75L65.26,94l-11.41,9.39-2.7,10.06Z"/><path class="cls-2" d="M116.12,122.22l2.37-8.77H87.07L97.63,74.11h4.44l-9.5,35.29h21.87l9.5-35.29h4.38l-9.5,35.29h5.29L120,122.22Z"/><path class="cls-2" d="M130,113.45l10.57-39.34h4.38l-8.65,32.37,32-32.37h4.21L162,113.45h-4.38l8.6-32.37-32.1,32.37Z"/><path class="cls-2" d="M173.06,113.45l10.57-39.34H188l-8.65,32.37,32-32.37h4.21L205.1,113.45h-4.38l8.6-32.37-32.1,32.37Z"/><path class="cls-2" d="M0,113.45,28.55,73.82h4.28l7.3,39.63H35.58l-1.8-10.4H12.31l-7.42,10.4ZM15.12,99.06H33.05L29.51,78.88Z"/><path class="cls-2" d="M46.71,113.45,57.28,74.11h4.44L55.48,97.49,83.69,74.11H90L68.85,91.42l11.19,22H75L65.26,94l-11.41,9.39-2.7,10.06Z"/><path class="cls-2" d="M116.12,122.22l2.37-8.77H87.07L97.63,74.11h4.44l-9.5,35.29h21.87l9.5-35.29h4.38l-9.5,35.29h5.29L120,122.22Z"/><path class="cls-2" d="M130,113.45l10.57-39.34h4.38l-8.65,32.37,32-32.37h4.21L162,113.45h-4.38l8.6-32.37-32.1,32.37Z"/><path class="cls-2" d="M173.06,113.45l10.57-39.34H188l-8.65,32.37,32-32.37h4.21L205.1,113.45h-4.38l8.6-32.37-32.1,32.37Z"/><path class="cls-2" d="M0,187.28l28.55-39.63h4.28l7.3,39.63H35.58l-1.8-10.4H12.31l-7.42,10.4Zm15.12-14.39H33.05l-3.54-20.18Z"/><path class="cls-2" d="M46.71,187.28l10.57-39.35h4.44l-6.24,23.38,28.21-23.38H90L68.85,165.24l11.19,22H75l-9.78-19.45-11.41,9.38-2.7,10.07Z"/><path class="cls-2" d="M116.12,196l2.37-8.76H87.07l10.56-39.35h4.44l-9.5,35.3h21.87l9.5-35.3h4.38l-9.5,35.3h5.29L120,196Z"/><path class="cls-2" d="M130,187.28l10.57-39.35h4.38l-8.65,32.38,32-32.38h4.21L162,187.28h-4.38l8.6-32.38-32.1,32.38Z"/><path class="cls-2" d="M173.06,187.28l10.57-39.35H188l-8.65,32.38,32-32.38h4.21L205.1,187.28h-4.38l8.6-32.38-32.1,32.38Z"/><path class="cls-2" d="M0,187.28l28.55-39.63h4.28l7.3,39.63H35.58l-1.8-10.4H12.31l-7.42,10.4Zm15.12-14.39H33.05l-3.54-20.18Z"/><path class="cls-2" d="M46.71,187.28l10.57-39.35h4.44l-6.24,23.38,28.21-23.38H90L68.85,165.24l11.19,22H75l-9.78-19.45-11.41,9.38-2.7,10.07Z"/><path class="cls-2" d="M116.12,196l2.37-8.76H87.07l10.56-39.35h4.44l-9.5,35.3h21.87l9.5-35.3h4.38l-9.5,35.3h5.29L120,196Z"/><path class="cls-2" d="M130,187.28l10.57-39.35h4.38l-8.65,32.38,32-32.38h4.21L162,187.28h-4.38l8.6-32.38-32.1,32.38Z"/><path class="cls-2" d="M173.06,187.28l10.57-39.35H188l-8.65,32.38,32-32.38h4.21L205.1,187.28h-4.38l8.6-32.38-32.1,32.38Z"/><path class="cls-2" d="M0,187.28l28.55-39.63h4.28l7.3,39.63H35.58l-1.8-10.4H12.31l-7.42,10.4Zm15.12-14.39H33.05l-3.54-20.18Z"/><path class="cls-2" d="M46.71,187.28l10.57-39.35h4.44l-6.24,23.38,28.21-23.38H90L68.85,165.24l11.19,22H75l-9.78-19.45-11.41,9.38-2.7,10.07Z"/><path class="cls-2" d="M116.12,196l2.37-8.76H87.07l10.56-39.35h4.44l-9.5,35.3h21.87l9.5-35.3h4.38l-9.5,35.3h5.29L120,196Z"/><path class="cls-2" d="M130,187.28l10.57-39.35h4.38l-8.65,32.38,32-32.38h4.21L162,187.28h-4.38l8.6-32.38-32.1,32.38Z"/><path class="cls-2" d="M173.06,187.28l10.57-39.35H188l-8.65,32.38,32-32.38h4.21L205.1,187.28h-4.38l8.6-32.38-32.1,32.38Z"/><path class="cls-2" d="M0,261.1l28.55-39.63h4.28l7.3,39.63H35.58l-1.8-10.4H12.31L4.89,261.1Zm15.12-14.39H33.05l-3.54-20.18Z"/><path class="cls-2" d="M46.71,261.1l10.57-39.35h4.44l-6.24,23.39,28.21-23.39H90L68.85,239.07,80,261.1H75l-9.78-19.45L53.85,251l-2.7,10.06Z"/><path class="cls-2" d="M116.12,269.87l2.37-8.77H87.07l10.56-39.35h4.44l-9.5,35.3h21.87l9.5-35.3h4.38l-9.5,35.3h5.29L120,269.87Z"/><path class="cls-2" d="M130,261.1l10.57-39.35h4.38l-8.65,32.38,32-32.38h4.21L162,261.1h-4.38l8.6-32.38-32.1,32.38Z"/><path class="cls-2" d="M173.06,261.1l10.57-39.35H188l-8.65,32.38,32-32.38h4.21L205.1,261.1h-4.38l8.6-32.38-32.1,32.38Z"/><path class="cls-2" d="M0,261.1l28.55-39.63h4.28l7.3,39.63H35.58l-1.8-10.4H12.31L4.89,261.1Zm15.12-14.39H33.05l-3.54-20.18Z"/><path class="cls-2" d="M46.71,261.1l10.57-39.35h4.44l-6.24,23.39,28.21-23.39H90L68.85,239.07,80,261.1H75l-9.78-19.45L53.85,251l-2.7,10.06Z"/><path class="cls-2" d="M116.12,269.87l2.37-8.77H87.07l10.56-39.35h4.44l-9.5,35.3h21.87l9.5-35.3h4.38l-9.5,35.3h5.29L120,269.87Z"/><path class="cls-2" d="M130,261.1l10.57-39.35h4.38l-8.65,32.38,32-32.38h4.21L162,261.1h-4.38l8.6-32.38-32.1,32.38Z"/><path class="cls-2" d="M173.06,261.1l10.57-39.35H188l-8.65,32.38,32-32.38h4.21L205.1,261.1h-4.38l8.6-32.38-32.1,32.38Z"/><path class="cls-2" d="M0,261.1l28.55-39.63h4.28l7.3,39.63H35.58l-1.8-10.4H12.31L4.89,261.1Zm15.12-14.39H33.05l-3.54-20.18Z"/><path class="cls-2" d="M46.71,261.1l10.57-39.35h4.44l-6.24,23.39,28.21-23.39H90L68.85,239.07,80,261.1H75l-9.78-19.45L53.85,251l-2.7,10.06Z"/><path class="cls-2" d="M116.12,269.87l2.37-8.77H87.07l10.56-39.35h4.44l-9.5,35.3h21.87l9.5-35.3h4.38l-9.5,35.3h5.29L120,269.87Z"/><path class="cls-2" d="M130,261.1l10.57-39.35h4.38l-8.65,32.38,32-32.38h4.21L162,261.1h-4.38l8.6-32.38-32.1,32.38Z"/><path class="cls-2" d="M173.06,261.1l10.57-39.35H188l-8.65,32.38,32-32.38h4.21L205.1,261.1h-4.38l8.6-32.38-32.1,32.38Z"/><path class="cls-2" d="M0,334.92,28.55,295.3h4.28l7.3,39.62H35.58l-1.8-10.39H12.31L4.89,334.92Zm15.12-14.39H33.05l-3.54-20.17Z"/><path class="cls-2" d="M46.71,334.92l10.57-39.34h4.44L55.48,319l28.21-23.38H90L68.85,312.89l11.19,22H75l-9.78-19.44-11.41,9.38-2.7,10.06Z"/><path class="cls-2" d="M116.12,343.69l2.37-8.77H87.07l10.56-39.34h4.44l-9.5,35.3h21.87l9.5-35.3h4.38l-9.5,35.3h5.29L120,343.69Z"/><path class="cls-2" d="M130,334.92l10.57-39.34h4.38L136.25,328l32-32.37h4.21L162,334.92h-4.38l8.6-32.37-32.1,32.37Z"/><path class="cls-2" d="M173.06,334.92l10.57-39.34H188L179.36,328l32-32.37h4.21L205.1,334.92h-4.38l8.6-32.37-32.1,32.37Z"/><path class="cls-2" d="M0,334.92,28.55,295.3h4.28l7.3,39.62H35.58l-1.8-10.39H12.31L4.89,334.92Zm15.12-14.39H33.05l-3.54-20.17Z"/><path class="cls-2" d="M46.71,334.92l10.57-39.34h4.44L55.48,319l28.21-23.38H90L68.85,312.89l11.19,22H75l-9.78-19.44-11.41,9.38-2.7,10.06Z"/><path class="cls-2" d="M116.12,343.69l2.37-8.77H87.07l10.56-39.34h4.44l-9.5,35.3h21.87l9.5-35.3h4.38l-9.5,35.3h5.29L120,343.69Z"/><path class="cls-2" d="M130,334.92l10.57-39.34h4.38L136.25,328l32-32.37h4.21L162,334.92h-4.38l8.6-32.37-32.1,32.37Z"/><path class="cls-2" d="M173.06,334.92l10.57-39.34H188L179.36,328l32-32.37h4.21L205.1,334.92h-4.38l8.6-32.37-32.1,32.37Z"/><path class="cls-2" d="M0,334.92,28.55,295.3h4.28l7.3,39.62H35.58l-1.8-10.39H12.31L4.89,334.92Zm15.12-14.39H33.05l-3.54-20.17Z"/><path class="cls-2" d="M46.71,334.92l10.57-39.34h4.44L55.48,319l28.21-23.38H90L68.85,312.89l11.19,22H75l-9.78-19.44-11.41,9.38-2.7,10.06Z"/><path class="cls-2" d="M116.12,343.69l2.37-8.77H87.07l10.56-39.34h4.44l-9.5,35.3h21.87l9.5-35.3h4.38l-9.5,35.3h5.29L120,343.69Z"/><path class="cls-2" d="M130,334.92l10.57-39.34h4.38L136.25,328l32-32.37h4.21L162,334.92h-4.38l8.6-32.37-32.1,32.37Z"/><path class="cls-2" d="M173.06,334.92l10.57-39.34H188L179.36,328l32-32.37h4.21L205.1,334.92h-4.38l8.6-32.37-32.1,32.37Z"/><path class="cls-2" d="M0,408.75l28.55-39.63h4.28l7.3,39.63H35.58l-1.8-10.4H12.31l-7.42,10.4Zm15.12-14.39H33.05l-3.54-20.18Z"/><path class="cls-2" d="M46.71,408.75,57.28,369.4h4.44l-6.24,23.39L83.69,369.4H90L68.85,386.71l11.19,22H75L65.26,389.3l-11.41,9.39-2.7,10.06Z"/><path class="cls-2" d="M116.12,417.52l2.37-8.77H87.07L97.63,369.4h4.44l-9.5,35.3h21.87l9.5-35.3h4.38l-9.5,35.3h5.29L120,417.52Z"/><path class="cls-2" d="M130,408.75l10.57-39.35h4.38l-8.65,32.38,32-32.38h4.21L162,408.75h-4.38l8.6-32.38-32.1,32.38Z"/><path class="cls-2" d="M173.06,408.75l10.57-39.35H188l-8.65,32.38,32-32.38h4.21L205.1,408.75h-4.38l8.6-32.38-32.1,32.38Z"/><path class="cls-2" d="M0,408.75l28.55-39.63h4.28l7.3,39.63H35.58l-1.8-10.4H12.31l-7.42,10.4Zm15.12-14.39H33.05l-3.54-20.18Z"/><path class="cls-2" d="M46.71,408.75,57.28,369.4h4.44l-6.24,23.39L83.69,369.4H90L68.85,386.71l11.19,22H75L65.26,389.3l-11.41,9.39-2.7,10.06Z"/><path class="cls-2" d="M116.12,417.52l2.37-8.77H87.07L97.63,369.4h4.44l-9.5,35.3h21.87l9.5-35.3h4.38l-9.5,35.3h5.29L120,417.52Z"/><path class="cls-2" d="M130,408.75l10.57-39.35h4.38l-8.65,32.38,32-32.38h4.21L162,408.75h-4.38l8.6-32.38-32.1,32.38Z"/><path class="cls-2" d="M173.06,408.75l10.57-39.35H188l-8.65,32.38,32-32.38h4.21L205.1,408.75h-4.38l8.6-32.38-32.1,32.38Z"/><path class="cls-2" d="M0,408.75l28.55-39.63h4.28l7.3,39.63H35.58l-1.8-10.4H12.31l-7.42,10.4Zm15.12-14.39H33.05l-3.54-20.18Z"/><path class="cls-2" d="M46.71,408.75,57.28,369.4h4.44l-6.24,23.39L83.69,369.4H90L68.85,386.71l11.19,22H75L65.26,389.3l-11.41,9.39-2.7,10.06Z"/><path class="cls-2" d="M116.12,417.52l2.37-8.77H87.07L97.63,369.4h4.44l-9.5,35.3h21.87l9.5-35.3h4.38l-9.5,35.3h5.29L120,417.52Z"/><path class="cls-2" d="M130,408.75l10.57-39.35h4.38l-8.65,32.38,32-32.38h4.21L162,408.75h-4.38l8.6-32.38-32.1,32.38Z"/><path class="cls-2" d="M173.06,408.75l10.57-39.35H188l-8.65,32.38,32-32.38h4.21L205.1,408.75h-4.38l8.6-32.38-32.1,32.38Z"/><path class="cls-2" d="M238.25,39.63,266.81,0h4.27l7.3,39.63h-4.55L272,29.23H250.56l-7.42,10.4Zm15.12-14.39H271.3L267.76,5.06Z"/><path class="cls-2" d="M285,39.63,295.53.28H300l-6.24,23.38L321.94.28h6.3L307.11,17.59l11.18,22h-5l-9.78-19.45L292.1,29.57l-2.7,10.06Z"/><path class="cls-2" d="M354.38,48.4l2.36-8.77H325.32L335.88.28h4.44l-9.49,35.3h21.86l9.5-35.3h4.38l-9.5,35.3h5.29L358.2,48.4Z"/><path class="cls-2" d="M368.2,39.63,378.77.28h4.38L374.5,32.66l32-32.38h4.21L400.24,39.63h-4.38l8.6-32.38-32.1,32.38Z"/><path class="cls-2" d="M411.31,39.63,421.88.28h4.39l-8.66,32.38,32-32.38h4.22L443.35,39.63H439l8.6-32.38-32.1,32.38Z"/><path class="cls-2" d="M238.25,39.63,266.81,0h4.27l7.3,39.63h-4.55L272,29.23H250.56l-7.42,10.4Zm15.12-14.39H271.3L267.76,5.06Z"/><path class="cls-2" d="M285,39.63,295.53.28H300l-6.24,23.38L321.94.28h6.3L307.11,17.59l11.18,22h-5l-9.78-19.45L292.1,29.57l-2.7,10.06Z"/><path class="cls-2" d="M354.38,48.4l2.36-8.77H325.32L335.88.28h4.44l-9.49,35.3h21.86l9.5-35.3h4.38l-9.5,35.3h5.29L358.2,48.4Z"/><path class="cls-2" d="M368.2,39.63,378.77.28h4.38L374.5,32.66l32-32.38h4.21L400.24,39.63h-4.38l8.6-32.38-32.1,32.38Z"/><path class="cls-2" d="M411.31,39.63,421.88.28h4.39l-8.66,32.38,32-32.38h4.22L443.35,39.63H439l8.6-32.38-32.1,32.38Z"/><path class="cls-2" d="M238.25,39.63,266.81,0h4.27l7.3,39.63h-4.55L272,29.23H250.56l-7.42,10.4Zm15.12-14.39H271.3L267.76,5.06Z"/><path class="cls-2" d="M285,39.63,295.53.28H300l-6.24,23.38L321.94.28h6.3L307.11,17.59l11.18,22h-5l-9.78-19.45L292.1,29.57l-2.7,10.06Z"/><path class="cls-2" d="M354.38,48.4l2.36-8.77H325.32L335.88.28h4.44l-9.49,35.3h21.86l9.5-35.3h4.38l-9.5,35.3h5.29L358.2,48.4Z"/><path class="cls-2" d="M368.2,39.63,378.77.28h4.38L374.5,32.66l32-32.38h4.21L400.24,39.63h-4.38l8.6-32.38-32.1,32.38Z"/><path class="cls-2" d="M411.31,39.63,421.88.28h4.39l-8.66,32.38,32-32.38h4.22L443.35,39.63H439l8.6-32.38-32.1,32.38Z"/><path class="cls-2" d="M238.25,113.45l28.56-39.63h4.27l7.3,39.63h-4.55l-1.8-10.4H250.56l-7.42,10.4Zm15.12-14.39H271.3l-3.54-20.18Z"/><path class="cls-2" d="M285,113.45l10.57-39.34H300l-6.24,23.38,28.21-23.38h6.3L307.11,91.42l11.18,22h-5L303.51,94l-11.41,9.39-2.7,10.06Z"/><path class="cls-2" d="M354.38,122.22l2.36-8.77H325.32l10.56-39.34h4.44l-9.49,35.29h21.86l9.5-35.29h4.38l-9.5,35.29h5.29l-4.16,12.82Z"/><path class="cls-2" d="M368.2,113.45l10.57-39.34h4.38l-8.65,32.37,32-32.37h4.21l-10.51,39.34h-4.38l8.6-32.37-32.1,32.37Z"/><path class="cls-2" d="M411.31,113.45l10.57-39.34h4.39l-8.66,32.37,32-32.37h4.22l-10.52,39.34H439l8.6-32.37-32.1,32.37Z"/><path class="cls-2" d="M238.25,113.45l28.56-39.63h4.27l7.3,39.63h-4.55l-1.8-10.4H250.56l-7.42,10.4Zm15.12-14.39H271.3l-3.54-20.18Z"/><path class="cls-2" d="M285,113.45l10.57-39.34H300l-6.24,23.38,28.21-23.38h6.3L307.11,91.42l11.18,22h-5L303.51,94l-11.41,9.39-2.7,10.06Z"/><path class="cls-2" d="M354.38,122.22l2.36-8.77H325.32l10.56-39.34h4.44l-9.49,35.29h21.86l9.5-35.29h4.38l-9.5,35.29h5.29l-4.16,12.82Z"/><path class="cls-2" d="M368.2,113.45l10.57-39.34h4.38l-8.65,32.37,32-32.37h4.21l-10.51,39.34h-4.38l8.6-32.37-32.1,32.37Z"/><path class="cls-2" d="M411.31,113.45l10.57-39.34h4.39l-8.66,32.37,32-32.37h4.22l-10.52,39.34H439l8.6-32.37-32.1,32.37Z"/><path class="cls-2" d="M238.25,113.45l28.56-39.63h4.27l7.3,39.63h-4.55l-1.8-10.4H250.56l-7.42,10.4Zm15.12-14.39H271.3l-3.54-20.18Z"/><path class="cls-2" d="M285,113.45l10.57-39.34H300l-6.24,23.38,28.21-23.38h6.3L307.11,91.42l11.18,22h-5L303.51,94l-11.41,9.39-2.7,10.06Z"/><path class="cls-2" d="M354.38,122.22l2.36-8.77H325.32l10.56-39.34h4.44l-9.49,35.29h21.86l9.5-35.29h4.38l-9.5,35.29h5.29l-4.16,12.82Z"/><path class="cls-2" d="M368.2,113.45l10.57-39.34h4.38l-8.65,32.37,32-32.37h4.21l-10.51,39.34h-4.38l8.6-32.37-32.1,32.37Z"/><path class="cls-2" d="M411.31,113.45l10.57-39.34h4.39l-8.66,32.37,32-32.37h4.22l-10.52,39.34H439l8.6-32.37-32.1,32.37Z"/><path class="cls-2" d="M238.25,187.28l28.56-39.63h4.27l7.3,39.63h-4.55l-1.8-10.4H250.56l-7.42,10.4Zm15.12-14.39H271.3l-3.54-20.18Z"/><path class="cls-2" d="M285,187.28l10.57-39.35H300l-6.24,23.38,28.21-23.38h6.3l-21.13,17.31,11.18,22h-5l-9.78-19.45-11.41,9.38-2.7,10.07Z"/><path class="cls-2" d="M354.38,196l2.36-8.76H325.32l10.56-39.35h4.44l-9.49,35.3h21.86l9.5-35.3h4.38l-9.5,35.3h5.29L358.2,196Z"/><path class="cls-2" d="M368.2,187.28l10.57-39.35h4.38l-8.65,32.38,32-32.38h4.21l-10.51,39.35h-4.38l8.6-32.38-32.1,32.38Z"/><path class="cls-2" d="M411.31,187.28l10.57-39.35h4.39l-8.66,32.38,32-32.38h4.22l-10.52,39.35H439l8.6-32.38-32.1,32.38Z"/><path class="cls-2" d="M238.25,187.28l28.56-39.63h4.27l7.3,39.63h-4.55l-1.8-10.4H250.56l-7.42,10.4Zm15.12-14.39H271.3l-3.54-20.18Z"/><path class="cls-2" d="M285,187.28l10.57-39.35H300l-6.24,23.38,28.21-23.38h6.3l-21.13,17.31,11.18,22h-5l-9.78-19.45-11.41,9.38-2.7,10.07Z"/><path class="cls-2" d="M354.38,196l2.36-8.76H325.32l10.56-39.35h4.44l-9.49,35.3h21.86l9.5-35.3h4.38l-9.5,35.3h5.29L358.2,196Z"/><path class="cls-2" d="M368.2,187.28l10.57-39.35h4.38l-8.65,32.38,32-32.38h4.21l-10.51,39.35h-4.38l8.6-32.38-32.1,32.38Z"/><path class="cls-2" d="M411.31,187.28l10.57-39.35h4.39l-8.66,32.38,32-32.38h4.22l-10.52,39.35H439l8.6-32.38-32.1,32.38Z"/><path class="cls-2" d="M238.25,187.28l28.56-39.63h4.27l7.3,39.63h-4.55l-1.8-10.4H250.56l-7.42,10.4Zm15.12-14.39H271.3l-3.54-20.18Z"/><path class="cls-2" d="M285,187.28l10.57-39.35H300l-6.24,23.38,28.21-23.38h6.3l-21.13,17.31,11.18,22h-5l-9.78-19.45-11.41,9.38-2.7,10.07Z"/><path class="cls-2" d="M354.38,196l2.36-8.76H325.32l10.56-39.35h4.44l-9.49,35.3h21.86l9.5-35.3h4.38l-9.5,35.3h5.29L358.2,196Z"/><path class="cls-2" d="M368.2,187.28l10.57-39.35h4.38l-8.65,32.38,32-32.38h4.21l-10.51,39.35h-4.38l8.6-32.38-32.1,32.38Z"/><path class="cls-2" d="M411.31,187.28l10.57-39.35h4.39l-8.66,32.38,32-32.38h4.22l-10.52,39.35H439l8.6-32.38-32.1,32.38Z"/><path class="cls-2" d="M238.25,261.1l28.56-39.63h4.27l7.3,39.63h-4.55L272,250.7H250.56l-7.42,10.4Zm15.12-14.39H271.3l-3.54-20.18Z"/><path class="cls-2" d="M285,261.1l10.57-39.35H300l-6.24,23.39,28.21-23.39h6.3l-21.13,17.32,11.18,22h-5l-9.78-19.45L292.1,251l-2.7,10.06Z"/><path class="cls-2" d="M354.38,269.87l2.36-8.77H325.32l10.56-39.35h4.44l-9.49,35.3h21.86l9.5-35.3h4.38l-9.5,35.3h5.29l-4.16,12.82Z"/><path class="cls-2" d="M368.2,261.1l10.57-39.35h4.38l-8.65,32.38,32-32.38h4.21L400.24,261.1h-4.38l8.6-32.38-32.1,32.38Z"/><path class="cls-2" d="M411.31,261.1l10.57-39.35h4.39l-8.66,32.38,32-32.38h4.22L443.35,261.1H439l8.6-32.38-32.1,32.38Z"/><path class="cls-2" d="M238.25,261.1l28.56-39.63h4.27l7.3,39.63h-4.55L272,250.7H250.56l-7.42,10.4Zm15.12-14.39H271.3l-3.54-20.18Z"/><path class="cls-2" d="M285,261.1l10.57-39.35H300l-6.24,23.39,28.21-23.39h6.3l-21.13,17.32,11.18,22h-5l-9.78-19.45L292.1,251l-2.7,10.06Z"/><path class="cls-2" d="M354.38,269.87l2.36-8.77H325.32l10.56-39.35h4.44l-9.49,35.3h21.86l9.5-35.3h4.38l-9.5,35.3h5.29l-4.16,12.82Z"/><path class="cls-2" d="M368.2,261.1l10.57-39.35h4.38l-8.65,32.38,32-32.38h4.21L400.24,261.1h-4.38l8.6-32.38-32.1,32.38Z"/><path class="cls-2" d="M411.31,261.1l10.57-39.35h4.39l-8.66,32.38,32-32.38h4.22L443.35,261.1H439l8.6-32.38-32.1,32.38Z"/><path class="cls-2" d="M238.25,261.1l28.56-39.63h4.27l7.3,39.63h-4.55L272,250.7H250.56l-7.42,10.4Zm15.12-14.39H271.3l-3.54-20.18Z"/><path class="cls-2" d="M285,261.1l10.57-39.35H300l-6.24,23.39,28.21-23.39h6.3l-21.13,17.32,11.18,22h-5l-9.78-19.45L292.1,251l-2.7,10.06Z"/><path class="cls-2" d="M354.38,269.87l2.36-8.77H325.32l10.56-39.35h4.44l-9.49,35.3h21.86l9.5-35.3h4.38l-9.5,35.3h5.29l-4.16,12.82Z"/><path class="cls-2" d="M368.2,261.1l10.57-39.35h4.38l-8.65,32.38,32-32.38h4.21L400.24,261.1h-4.38l8.6-32.38-32.1,32.38Z"/><path class="cls-2" d="M411.31,261.1l10.57-39.35h4.39l-8.66,32.38,32-32.38h4.22L443.35,261.1H439l8.6-32.38-32.1,32.38Z"/><path class="cls-2" d="M238.25,334.92l28.56-39.62h4.27l7.3,39.62h-4.55L272,324.53H250.56l-7.42,10.39Zm15.12-14.39H271.3l-3.54-20.17Z"/><path class="cls-2" d="M285,334.92l10.57-39.34H300L293.73,319l28.21-23.38h6.3l-21.13,17.31,11.18,22h-5l-9.78-19.44-11.41,9.38-2.7,10.06Z"/><path class="cls-2" d="M354.38,343.69l2.36-8.77H325.32l10.56-39.34h4.44l-9.49,35.3h21.86l9.5-35.3h4.38l-9.5,35.3h5.29l-4.16,12.81Z"/><path class="cls-2" d="M368.2,334.92l10.57-39.34h4.38L374.5,328l32-32.37h4.21l-10.51,39.34h-4.38l8.6-32.37-32.1,32.37Z"/><path class="cls-2" d="M411.31,334.92l10.57-39.34h4.39L417.61,328l32-32.37h4.22l-10.52,39.34H439l8.6-32.37-32.1,32.37Z"/><path class="cls-2" d="M238.25,334.92l28.56-39.62h4.27l7.3,39.62h-4.55L272,324.53H250.56l-7.42,10.39Zm15.12-14.39H271.3l-3.54-20.17Z"/><path class="cls-2" d="M285,334.92l10.57-39.34H300L293.73,319l28.21-23.38h6.3l-21.13,17.31,11.18,22h-5l-9.78-19.44-11.41,9.38-2.7,10.06Z"/><path class="cls-2" d="M354.38,343.69l2.36-8.77H325.32l10.56-39.34h4.44l-9.49,35.3h21.86l9.5-35.3h4.38l-9.5,35.3h5.29l-4.16,12.81Z"/><path class="cls-2" d="M368.2,334.92l10.57-39.34h4.38L374.5,328l32-32.37h4.21l-10.51,39.34h-4.38l8.6-32.37-32.1,32.37Z"/><path class="cls-2" d="M411.31,334.92l10.57-39.34h4.39L417.61,328l32-32.37h4.22l-10.52,39.34H439l8.6-32.37-32.1,32.37Z"/><path class="cls-2" d="M238.25,334.92l28.56-39.62h4.27l7.3,39.62h-4.55L272,324.53H250.56l-7.42,10.39Zm15.12-14.39H271.3l-3.54-20.17Z"/><path class="cls-2" d="M285,334.92l10.57-39.34H300L293.73,319l28.21-23.38h6.3l-21.13,17.31,11.18,22h-5l-9.78-19.44-11.41,9.38-2.7,10.06Z"/><path class="cls-2" d="M354.38,343.69l2.36-8.77H325.32l10.56-39.34h4.44l-9.49,35.3h21.86l9.5-35.3h4.38l-9.5,35.3h5.29l-4.16,12.81Z"/><path class="cls-2" d="M368.2,334.92l10.57-39.34h4.38L374.5,328l32-32.37h4.21l-10.51,39.34h-4.38l8.6-32.37-32.1,32.37Z"/><path class="cls-2" d="M411.31,334.92l10.57-39.34h4.39L417.61,328l32-32.37h4.22l-10.52,39.34H439l8.6-32.37-32.1,32.37Z"/><path class="cls-2" d="M238.25,408.75l28.56-39.63h4.27l7.3,39.63h-4.55l-1.8-10.4H250.56l-7.42,10.4Zm15.12-14.39H271.3l-3.54-20.18Z"/><path class="cls-2" d="M285,408.75l10.57-39.35H300l-6.24,23.39,28.21-23.39h6.3l-21.13,17.31,11.18,22h-5l-9.78-19.45-11.41,9.39-2.7,10.06Z"/><path class="cls-2" d="M354.38,417.52l2.36-8.77H325.32l10.56-39.35h4.44l-9.49,35.3h21.86l9.5-35.3h4.38l-9.5,35.3h5.29l-4.16,12.82Z"/><path class="cls-2" d="M368.2,408.75l10.57-39.35h4.38l-8.65,32.38,32-32.38h4.21l-10.51,39.35h-4.38l8.6-32.38-32.1,32.38Z"/><path class="cls-2" d="M411.31,408.75l10.57-39.35h4.39l-8.66,32.38,32-32.38h4.22l-10.52,39.35H439l8.6-32.38-32.1,32.38Z"/><path class="cls-2" d="M238.25,408.75l28.56-39.63h4.27l7.3,39.63h-4.55l-1.8-10.4H250.56l-7.42,10.4Zm15.12-14.39H271.3l-3.54-20.18Z"/><path class="cls-2" d="M285,408.75l10.57-39.35H300l-6.24,23.39,28.21-23.39h6.3l-21.13,17.31,11.18,22h-5l-9.78-19.45-11.41,9.39-2.7,10.06Z"/><path class="cls-2" d="M354.38,417.52l2.36-8.77H325.32l10.56-39.35h4.44l-9.49,35.3h21.86l9.5-35.3h4.38l-9.5,35.3h5.29l-4.16,12.82Z"/><path class="cls-2" d="M368.2,408.75l10.57-39.35h4.38l-8.65,32.38,32-32.38h4.21l-10.51,39.35h-4.38l8.6-32.38-32.1,32.38Z"/><path class="cls-2" d="M411.31,408.75l10.57-39.35h4.39l-8.66,32.38,32-32.38h4.22l-10.52,39.35H439l8.6-32.38-32.1,32.38Z"/><path class="cls-2" d="M238.25,408.75l28.56-39.63h4.27l7.3,39.63h-4.55l-1.8-10.4H250.56l-7.42,10.4Zm15.12-14.39H271.3l-3.54-20.18Z"/><path class="cls-2" d="M285,408.75l10.57-39.35H300l-6.24,23.39,28.21-23.39h6.3l-21.13,17.31,11.18,22h-5l-9.78-19.45-11.41,9.39-2.7,10.06Z"/><path class="cls-2" d="M354.38,417.52l2.36-8.77H325.32l10.56-39.35h4.44l-9.49,35.3h21.86l9.5-35.3h4.38l-9.5,35.3h5.29l-4.16,12.82Z"/><path class="cls-2" d="M368.2,408.75l10.57-39.35h4.38l-8.65,32.38,32-32.38h4.21l-10.51,39.35h-4.38l8.6-32.38-32.1,32.38Z"/><path class="cls-2" d="M411.31,408.75l10.57-39.35h4.39l-8.66,32.38,32-32.38h4.22l-10.52,39.35H439l8.6-32.38-32.1,32.38Z"/><path class="cls-2" d="M476.5,39.63,505.06,0h4.27l7.31,39.63h-4.56l-1.8-10.4H488.81l-7.42,10.4Zm15.12-14.39h17.93L506,5.06Z"/><path class="cls-2" d="M523.21,39.63,533.78.28h4.44L532,23.66,560.2.28h6.29L545.36,17.59l11.18,22h-5l-9.78-19.45-11.41,9.39-2.7,10.06Z"/><path class="cls-2" d="M592.63,48.4,595,39.63H563.57L574.14.28h4.44l-9.5,35.3h21.86l9.5-35.3h4.38l-9.49,35.3h5.28L596.45,48.4Z"/><path class="cls-2" d="M606.45,39.63,617,.28h4.39l-8.66,32.38,32-32.38H649L638.49,39.63h-4.38l8.6-32.38-32.1,32.38Z"/><path class="cls-2" d="M649.57,39.63,660.13.28h4.39l-8.66,32.38L687.9.28h4.22L681.61,39.63h-4.39l8.6-32.38L653.73,39.63Z"/><path class="cls-2" d="M476.5,39.63,505.06,0h4.27l7.31,39.63h-4.56l-1.8-10.4H488.81l-7.42,10.4Zm15.12-14.39h17.93L506,5.06Z"/><path class="cls-2" d="M523.21,39.63,533.78.28h4.44L532,23.66,560.2.28h6.29L545.36,17.59l11.18,22h-5l-9.78-19.45-11.41,9.39-2.7,10.06Z"/><path class="cls-2" d="M592.63,48.4,595,39.63H563.57L574.14.28h4.44l-9.5,35.3h21.86l9.5-35.3h4.38l-9.49,35.3h5.28L596.45,48.4Z"/><path class="cls-2" d="M606.45,39.63,617,.28h4.39l-8.66,32.38,32-32.38H649L638.49,39.63h-4.38l8.6-32.38-32.1,32.38Z"/><path class="cls-2" d="M649.57,39.63,660.13.28h4.39l-8.66,32.38L687.9.28h4.22L681.61,39.63h-4.39l8.6-32.38L653.73,39.63Z"/><path class="cls-2" d="M476.5,39.63,505.06,0h4.27l7.31,39.63h-4.56l-1.8-10.4H488.81l-7.42,10.4Zm15.12-14.39h17.93L506,5.06Z"/><path class="cls-2" d="M523.21,39.63,533.78.28h4.44L532,23.66,560.2.28h6.29L545.36,17.59l11.18,22h-5l-9.78-19.45-11.41,9.39-2.7,10.06Z"/><path class="cls-2" d="M592.63,48.4,595,39.63H563.57L574.14.28h4.44l-9.5,35.3h21.86l9.5-35.3h4.38l-9.49,35.3h5.28L596.45,48.4Z"/><path class="cls-2" d="M606.45,39.63,617,.28h4.39l-8.66,32.38,32-32.38H649L638.49,39.63h-4.38l8.6-32.38-32.1,32.38Z"/><path class="cls-2" d="M649.57,39.63,660.13.28h4.39l-8.66,32.38L687.9.28h4.22L681.61,39.63h-4.39l8.6-32.38L653.73,39.63Z"/><path class="cls-2" d="M476.5,113.45l28.56-39.63h4.27l7.31,39.63h-4.56l-1.8-10.4H488.81l-7.42,10.4Zm15.12-14.39h17.93L506,78.88Z"/><path class="cls-2" d="M523.21,113.45l10.57-39.34h4.44L532,97.49,560.2,74.11h6.29L545.36,91.42l11.18,22h-5L541.76,94l-11.41,9.39-2.7,10.06Z"/><path class="cls-2" d="M592.63,122.22l2.36-8.77H563.57l10.57-39.34h4.44l-9.5,35.29h21.86l9.5-35.29h4.38l-9.49,35.29h5.28l-4.16,12.82Z"/><path class="cls-2" d="M606.45,113.45,617,74.11h4.39l-8.66,32.37,32-32.37H649l-10.51,39.34h-4.38l8.6-32.37-32.1,32.37Z"/><path class="cls-2" d="M649.57,113.45l10.56-39.34h4.39l-8.66,32.37,32-32.37h4.22l-10.51,39.34h-4.39l8.6-32.37-32.09,32.37Z"/><path class="cls-2" d="M476.5,113.45l28.56-39.63h4.27l7.31,39.63h-4.56l-1.8-10.4H488.81l-7.42,10.4Zm15.12-14.39h17.93L506,78.88Z"/><path class="cls-2" d="M523.21,113.45l10.57-39.34h4.44L532,97.49,560.2,74.11h6.29L545.36,91.42l11.18,22h-5L541.76,94l-11.41,9.39-2.7,10.06Z"/><path class="cls-2" d="M592.63,122.22l2.36-8.77H563.57l10.57-39.34h4.44l-9.5,35.29h21.86l9.5-35.29h4.38l-9.49,35.29h5.28l-4.16,12.82Z"/><path class="cls-2" d="M606.45,113.45,617,74.11h4.39l-8.66,32.37,32-32.37H649l-10.51,39.34h-4.38l8.6-32.37-32.1,32.37Z"/><path class="cls-2" d="M649.57,113.45l10.56-39.34h4.39l-8.66,32.37,32-32.37h4.22l-10.51,39.34h-4.39l8.6-32.37-32.09,32.37Z"/><path class="cls-2" d="M476.5,113.45l28.56-39.63h4.27l7.31,39.63h-4.56l-1.8-10.4H488.81l-7.42,10.4Zm15.12-14.39h17.93L506,78.88Z"/><path class="cls-2" d="M523.21,113.45l10.57-39.34h4.44L532,97.49,560.2,74.11h6.29L545.36,91.42l11.18,22h-5L541.76,94l-11.41,9.39-2.7,10.06Z"/><path class="cls-2" d="M592.63,122.22l2.36-8.77H563.57l10.57-39.34h4.44l-9.5,35.29h21.86l9.5-35.29h4.38l-9.49,35.29h5.28l-4.16,12.82Z"/><path class="cls-2" d="M606.45,113.45,617,74.11h4.39l-8.66,32.37,32-32.37H649l-10.51,39.34h-4.38l8.6-32.37-32.1,32.37Z"/><path class="cls-2" d="M649.57,113.45l10.56-39.34h4.39l-8.66,32.37,32-32.37h4.22l-10.51,39.34h-4.39l8.6-32.37-32.09,32.37Z"/><path class="cls-2" d="M476.5,187.28l28.56-39.63h4.27l7.31,39.63h-4.56l-1.8-10.4H488.81l-7.42,10.4Zm15.12-14.39h17.93L506,152.71Z"/><path class="cls-2" d="M523.21,187.28l10.57-39.35h4.44L532,171.31l28.22-23.38h6.29l-21.13,17.31,11.18,22h-5l-9.78-19.45-11.41,9.38-2.7,10.07Z"/><path class="cls-2" d="M592.63,196l2.36-8.76H563.57l10.57-39.35h4.44l-9.5,35.3h21.86l9.5-35.3h4.38l-9.49,35.3h5.28L596.45,196Z"/><path class="cls-2" d="M606.45,187.28,617,147.93h4.39l-8.66,32.38,32-32.38H649l-10.51,39.35h-4.38l8.6-32.38-32.1,32.38Z"/><path class="cls-2" d="M649.57,187.28l10.56-39.35h4.39l-8.66,32.38,32-32.38h4.22l-10.51,39.35h-4.39l8.6-32.38-32.09,32.38Z"/><path class="cls-2" d="M476.5,187.28l28.56-39.63h4.27l7.31,39.63h-4.56l-1.8-10.4H488.81l-7.42,10.4Zm15.12-14.39h17.93L506,152.71Z"/><path class="cls-2" d="M523.21,187.28l10.57-39.35h4.44L532,171.31l28.22-23.38h6.29l-21.13,17.31,11.18,22h-5l-9.78-19.45-11.41,9.38-2.7,10.07Z"/><path class="cls-2" d="M592.63,196l2.36-8.76H563.57l10.57-39.35h4.44l-9.5,35.3h21.86l9.5-35.3h4.38l-9.49,35.3h5.28L596.45,196Z"/><path class="cls-2" d="M606.45,187.28,617,147.93h4.39l-8.66,32.38,32-32.38H649l-10.51,39.35h-4.38l8.6-32.38-32.1,32.38Z"/><path class="cls-2" d="M649.57,187.28l10.56-39.35h4.39l-8.66,32.38,32-32.38h4.22l-10.51,39.35h-4.39l8.6-32.38-32.09,32.38Z"/><path class="cls-2" d="M476.5,187.28l28.56-39.63h4.27l7.31,39.63h-4.56l-1.8-10.4H488.81l-7.42,10.4Zm15.12-14.39h17.93L506,152.71Z"/><path class="cls-2" d="M523.21,187.28l10.57-39.35h4.44L532,171.31l28.22-23.38h6.29l-21.13,17.31,11.18,22h-5l-9.78-19.45-11.41,9.38-2.7,10.07Z"/><path class="cls-2" d="M592.63,196l2.36-8.76H563.57l10.57-39.35h4.44l-9.5,35.3h21.86l9.5-35.3h4.38l-9.49,35.3h5.28L596.45,196Z"/><path class="cls-2" d="M606.45,187.28,617,147.93h4.39l-8.66,32.38,32-32.38H649l-10.51,39.35h-4.38l8.6-32.38-32.1,32.38Z"/><path class="cls-2" d="M649.57,187.28l10.56-39.35h4.39l-8.66,32.38,32-32.38h4.22l-10.51,39.35h-4.39l8.6-32.38-32.09,32.38Z"/><path class="cls-2" d="M476.5,261.1l28.56-39.63h4.27l7.31,39.63h-4.56l-1.8-10.4H488.81l-7.42,10.4Zm15.12-14.39h17.93L506,226.53Z"/><path class="cls-2" d="M523.21,261.1l10.57-39.35h4.44L532,245.14l28.22-23.39h6.29l-21.13,17.32,11.18,22h-5l-9.78-19.45L530.35,251l-2.7,10.06Z"/><path class="cls-2" d="M592.63,269.87,595,261.1H563.57l10.57-39.35h4.44l-9.5,35.3h21.86l9.5-35.3h4.38l-9.49,35.3h5.28l-4.16,12.82Z"/><path class="cls-2" d="M606.45,261.1,617,221.75h4.39l-8.66,32.38,32-32.38H649L638.49,261.1h-4.38l8.6-32.38-32.1,32.38Z"/><path class="cls-2" d="M649.57,261.1l10.56-39.35h4.39l-8.66,32.38,32-32.38h4.22L681.61,261.1h-4.39l8.6-32.38L653.73,261.1Z"/><path class="cls-2" d="M476.5,261.1l28.56-39.63h4.27l7.31,39.63h-4.56l-1.8-10.4H488.81l-7.42,10.4Zm15.12-14.39h17.93L506,226.53Z"/><path class="cls-2" d="M523.21,261.1l10.57-39.35h4.44L532,245.14l28.22-23.39h6.29l-21.13,17.32,11.18,22h-5l-9.78-19.45L530.35,251l-2.7,10.06Z"/><path class="cls-2" d="M592.63,269.87,595,261.1H563.57l10.57-39.35h4.44l-9.5,35.3h21.86l9.5-35.3h4.38l-9.49,35.3h5.28l-4.16,12.82Z"/><path class="cls-2" d="M606.45,261.1,617,221.75h4.39l-8.66,32.38,32-32.38H649L638.49,261.1h-4.38l8.6-32.38-32.1,32.38Z"/><path class="cls-2" d="M649.57,261.1l10.56-39.35h4.39l-8.66,32.38,32-32.38h4.22L681.61,261.1h-4.39l8.6-32.38L653.73,261.1Z"/><path class="cls-2" d="M476.5,261.1l28.56-39.63h4.27l7.31,39.63h-4.56l-1.8-10.4H488.81l-7.42,10.4Zm15.12-14.39h17.93L506,226.53Z"/><path class="cls-2" d="M523.21,261.1l10.57-39.35h4.44L532,245.14l28.22-23.39h6.29l-21.13,17.32,11.18,22h-5l-9.78-19.45L530.35,251l-2.7,10.06Z"/><path class="cls-2" d="M592.63,269.87,595,261.1H563.57l10.57-39.35h4.44l-9.5,35.3h21.86l9.5-35.3h4.38l-9.49,35.3h5.28l-4.16,12.82Z"/><path class="cls-2" d="M606.45,261.1,617,221.75h4.39l-8.66,32.38,32-32.38H649L638.49,261.1h-4.38l8.6-32.38-32.1,32.38Z"/><path class="cls-2" d="M649.57,261.1l10.56-39.35h4.39l-8.66,32.38,32-32.38h4.22L681.61,261.1h-4.39l8.6-32.38L653.73,261.1Z"/><path class="cls-2" d="M476.5,334.92l28.56-39.62h4.27l7.31,39.62h-4.56l-1.8-10.39H488.81l-7.42,10.39Zm15.12-14.39h17.93L506,300.36Z"/><path class="cls-2" d="M523.21,334.92l10.57-39.34h4.44L532,319l28.22-23.38h6.29l-21.13,17.31,11.18,22h-5l-9.78-19.44-11.41,9.38-2.7,10.06Z"/><path class="cls-2" d="M592.63,343.69l2.36-8.77H563.57l10.57-39.34h4.44l-9.5,35.3h21.86l9.5-35.3h4.38l-9.49,35.3h5.28l-4.16,12.81Z"/><path class="cls-2" d="M606.45,334.92,617,295.58h4.39L612.75,328l32-32.37H649l-10.51,39.34h-4.38l8.6-32.37-32.1,32.37Z"/><path class="cls-2" d="M649.57,334.92l10.56-39.34h4.39L655.86,328l32-32.37h4.22l-10.51,39.34h-4.39l8.6-32.37-32.09,32.37Z"/><path class="cls-2" d="M476.5,334.92l28.56-39.62h4.27l7.31,39.62h-4.56l-1.8-10.39H488.81l-7.42,10.39Zm15.12-14.39h17.93L506,300.36Z"/><path class="cls-2" d="M523.21,334.92l10.57-39.34h4.44L532,319l28.22-23.38h6.29l-21.13,17.31,11.18,22h-5l-9.78-19.44-11.41,9.38-2.7,10.06Z"/><path class="cls-2" d="M592.63,343.69l2.36-8.77H563.57l10.57-39.34h4.44l-9.5,35.3h21.86l9.5-35.3h4.38l-9.49,35.3h5.28l-4.16,12.81Z"/><path class="cls-2" d="M606.45,334.92,617,295.58h4.39L612.75,328l32-32.37H649l-10.51,39.34h-4.38l8.6-32.37-32.1,32.37Z"/><path class="cls-2" d="M649.57,334.92l10.56-39.34h4.39L655.86,328l32-32.37h4.22l-10.51,39.34h-4.39l8.6-32.37-32.09,32.37Z"/><path class="cls-2" d="M476.5,334.92l28.56-39.62h4.27l7.31,39.62h-4.56l-1.8-10.39H488.81l-7.42,10.39Zm15.12-14.39h17.93L506,300.36Z"/><path class="cls-2" d="M523.21,334.92l10.57-39.34h4.44L532,319l28.22-23.38h6.29l-21.13,17.31,11.18,22h-5l-9.78-19.44-11.41,9.38-2.7,10.06Z"/><path class="cls-2" d="M592.63,343.69l2.36-8.77H563.57l10.57-39.34h4.44l-9.5,35.3h21.86l9.5-35.3h4.38l-9.49,35.3h5.28l-4.16,12.81Z"/><path class="cls-2" d="M606.45,334.92,617,295.58h4.39L612.75,328l32-32.37H649l-10.51,39.34h-4.38l8.6-32.37-32.1,32.37Z"/><path class="cls-2" d="M649.57,334.92l10.56-39.34h4.39L655.86,328l32-32.37h4.22l-10.51,39.34h-4.39l8.6-32.37-32.09,32.37Z"/><path class="cls-2" d="M476.5,408.75l28.56-39.63h4.27l7.31,39.63h-4.56l-1.8-10.4H488.81l-7.42,10.4Zm15.12-14.39h17.93L506,374.18Z"/><path class="cls-2" d="M523.21,408.75l10.57-39.35h4.44L532,392.79,560.2,369.4h6.29l-21.13,17.31,11.18,22h-5l-9.78-19.45-11.41,9.39-2.7,10.06Z"/><path class="cls-2" d="M592.63,417.52l2.36-8.77H563.57l10.57-39.35h4.44l-9.5,35.3h21.86l9.5-35.3h4.38l-9.49,35.3h5.28l-4.16,12.82Z"/><path class="cls-2" d="M606.45,408.75,617,369.4h4.39l-8.66,32.38,32-32.38H649l-10.51,39.35h-4.38l8.6-32.38-32.1,32.38Z"/><path class="cls-2" d="M649.57,408.75l10.56-39.35h4.39l-8.66,32.38,32-32.38h4.22l-10.51,39.35h-4.39l8.6-32.38-32.09,32.38Z"/><path class="cls-2" d="M476.5,408.75l28.56-39.63h4.27l7.31,39.63h-4.56l-1.8-10.4H488.81l-7.42,10.4Zm15.12-14.39h17.93L506,374.18Z"/><path class="cls-2" d="M523.21,408.75l10.57-39.35h4.44L532,392.79,560.2,369.4h6.29l-21.13,17.31,11.18,22h-5l-9.78-19.45-11.41,9.39-2.7,10.06Z"/><path class="cls-2" d="M592.63,417.52l2.36-8.77H563.57l10.57-39.35h4.44l-9.5,35.3h21.86l9.5-35.3h4.38l-9.49,35.3h5.28l-4.16,12.82Z"/><path class="cls-2" d="M606.45,408.75,617,369.4h4.39l-8.66,32.38,32-32.38H649l-10.51,39.35h-4.38l8.6-32.38-32.1,32.38Z"/><path class="cls-2" d="M649.57,408.75l10.56-39.35h4.39l-8.66,32.38,32-32.38h4.22l-10.51,39.35h-4.39l8.6-32.38-32.09,32.38Z"/><path class="cls-2" d="M476.5,408.75l28.56-39.63h4.27l7.31,39.63h-4.56l-1.8-10.4H488.81l-7.42,10.4Zm15.12-14.39h17.93L506,374.18Z"/><path class="cls-2" d="M523.21,408.75l10.57-39.35h4.44L532,392.79,560.2,369.4h6.29l-21.13,17.31,11.18,22h-5l-9.78-19.45-11.41,9.39-2.7,10.06Z"/><path class="cls-2" d="M592.63,417.52l2.36-8.77H563.57l10.57-39.35h4.44l-9.5,35.3h21.86l9.5-35.3h4.38l-9.49,35.3h5.28l-4.16,12.82Z"/><path class="cls-2" d="M606.45,408.75,617,369.4h4.39l-8.66,32.38,32-32.38H649l-10.51,39.35h-4.38l8.6-32.38-32.1,32.38Z"/><path class="cls-2" d="M649.57,408.75l10.56-39.35h4.39l-8.66,32.38,32-32.38h4.22l-10.51,39.35h-4.39l8.6-32.38-32.09,32.38Z"/><path class="cls-2" d="M714.75,39.63,743.31,0h4.27l7.31,39.63h-4.56l-1.79-10.4H727.06l-7.42,10.4Zm15.12-14.39H747.8L744.26,5.06Z"/><path class="cls-2" d="M761.46,39.63,772,.28h4.44l-6.24,23.38L798.45.28h6.29L783.61,17.59l11.18,22h-5L780,20.18,768.6,29.57l-2.7,10.06Z"/><path class="cls-2" d="M830.88,48.4l2.36-8.77H801.82L812.39.28h4.44l-9.5,35.3h21.86l9.5-35.3h4.39l-9.5,35.3h5.28L834.7,48.4Z"/><path class="cls-2" d="M844.71,39.63,855.27.28h4.39L851,32.66,883,.28h4.22L876.74,39.63h-4.38L881,7.25,848.87,39.63Z"/><path class="cls-2" d="M887.82,39.63,898.38.28h4.39l-8.66,32.38,32-32.38h4.22L919.86,39.63h-4.39l8.6-32.38L892,39.63Z"/><path class="cls-2" d="M714.75,39.63,743.31,0h4.27l7.31,39.63h-4.56l-1.79-10.4H727.06l-7.42,10.4Zm15.12-14.39H747.8L744.26,5.06Z"/><path class="cls-2" d="M761.46,39.63,772,.28h4.44l-6.24,23.38L798.45.28h6.29L783.61,17.59l11.18,22h-5L780,20.18,768.6,29.57l-2.7,10.06Z"/><path class="cls-2" d="M830.88,48.4l2.36-8.77H801.82L812.39.28h4.44l-9.5,35.3h21.86l9.5-35.3h4.39l-9.5,35.3h5.28L834.7,48.4Z"/><path class="cls-2" d="M844.71,39.63,855.27.28h4.39L851,32.66,883,.28h4.22L876.74,39.63h-4.38L881,7.25,848.87,39.63Z"/><path class="cls-2" d="M887.82,39.63,898.38.28h4.39l-8.66,32.38,32-32.38h4.22L919.86,39.63h-4.39l8.6-32.38L892,39.63Z"/><path class="cls-2" d="M714.75,39.63,743.31,0h4.27l7.31,39.63h-4.56l-1.79-10.4H727.06l-7.42,10.4Zm15.12-14.39H747.8L744.26,5.06Z"/><path class="cls-2" d="M761.46,39.63,772,.28h4.44l-6.24,23.38L798.45.28h6.29L783.61,17.59l11.18,22h-5L780,20.18,768.6,29.57l-2.7,10.06Z"/><path class="cls-2" d="M830.88,48.4l2.36-8.77H801.82L812.39.28h4.44l-9.5,35.3h21.86l9.5-35.3h4.39l-9.5,35.3h5.28L834.7,48.4Z"/><path class="cls-2" d="M844.71,39.63,855.27.28h4.39L851,32.66,883,.28h4.22L876.74,39.63h-4.38L881,7.25,848.87,39.63Z"/><path class="cls-2" d="M887.82,39.63,898.38.28h4.39l-8.66,32.38,32-32.38h4.22L919.86,39.63h-4.39l8.6-32.38L892,39.63Z"/><path class="cls-2" d="M714.75,113.45l28.56-39.63h4.27l7.31,39.63h-4.56l-1.79-10.4H727.06l-7.42,10.4Zm15.12-14.39H747.8l-3.54-20.18Z"/><path class="cls-2" d="M761.46,113.45,772,74.11h4.44l-6.24,23.38,28.22-23.38h6.29L783.61,91.42l11.18,22h-5L780,94l-11.41,9.39-2.7,10.06Z"/><path class="cls-2" d="M830.88,122.22l2.36-8.77H801.82l10.57-39.34h4.44l-9.5,35.29h21.86l9.5-35.29h4.39l-9.5,35.29h5.28l-4.16,12.82Z"/><path class="cls-2" d="M844.71,113.45l10.56-39.34h4.39L851,106.48l32-32.37h4.22l-10.52,39.34h-4.38L881,81.08l-32.09,32.37Z"/><path class="cls-2" d="M887.82,113.45l10.56-39.34h4.39l-8.66,32.37,32-32.37h4.22l-10.51,39.34h-4.39l8.6-32.37L892,113.45Z"/><path class="cls-2" d="M714.75,113.45l28.56-39.63h4.27l7.31,39.63h-4.56l-1.79-10.4H727.06l-7.42,10.4Zm15.12-14.39H747.8l-3.54-20.18Z"/><path class="cls-2" d="M761.46,113.45,772,74.11h4.44l-6.24,23.38,28.22-23.38h6.29L783.61,91.42l11.18,22h-5L780,94l-11.41,9.39-2.7,10.06Z"/><path class="cls-2" d="M830.88,122.22l2.36-8.77H801.82l10.57-39.34h4.44l-9.5,35.29h21.86l9.5-35.29h4.39l-9.5,35.29h5.28l-4.16,12.82Z"/><path class="cls-2" d="M844.71,113.45l10.56-39.34h4.39L851,106.48l32-32.37h4.22l-10.52,39.34h-4.38L881,81.08l-32.09,32.37Z"/><path class="cls-2" d="M887.82,113.45l10.56-39.34h4.39l-8.66,32.37,32-32.37h4.22l-10.51,39.34h-4.39l8.6-32.37L892,113.45Z"/><path class="cls-2" d="M714.75,113.45l28.56-39.63h4.27l7.31,39.63h-4.56l-1.79-10.4H727.06l-7.42,10.4Zm15.12-14.39H747.8l-3.54-20.18Z"/><path class="cls-2" d="M761.46,113.45,772,74.11h4.44l-6.24,23.38,28.22-23.38h6.29L783.61,91.42l11.18,22h-5L780,94l-11.41,9.39-2.7,10.06Z"/><path class="cls-2" d="M830.88,122.22l2.36-8.77H801.82l10.57-39.34h4.44l-9.5,35.29h21.86l9.5-35.29h4.39l-9.5,35.29h5.28l-4.16,12.82Z"/><path class="cls-2" d="M844.71,113.45l10.56-39.34h4.39L851,106.48l32-32.37h4.22l-10.52,39.34h-4.38L881,81.08l-32.09,32.37Z"/><path class="cls-2" d="M887.82,113.45l10.56-39.34h4.39l-8.66,32.37,32-32.37h4.22l-10.51,39.34h-4.39l8.6-32.37L892,113.45Z"/><path class="cls-2" d="M714.75,187.28l28.56-39.63h4.27l7.31,39.63h-4.56l-1.79-10.4H727.06l-7.42,10.4Zm15.12-14.39H747.8l-3.54-20.18Z"/><path class="cls-2" d="M761.46,187.28,772,147.93h4.44l-6.24,23.38,28.22-23.38h6.29l-21.13,17.31,11.18,22h-5L780,167.83l-11.41,9.38-2.7,10.07Z"/><path class="cls-2" d="M830.88,196l2.36-8.76H801.82l10.57-39.35h4.44l-9.5,35.3h21.86l9.5-35.3h4.39l-9.5,35.3h5.28L834.7,196Z"/><path class="cls-2" d="M844.71,187.28l10.56-39.35h4.39L851,180.31l32-32.38h4.22l-10.52,39.35h-4.38L881,154.9l-32.09,32.38Z"/><path class="cls-2" d="M887.82,187.28l10.56-39.35h4.39l-8.66,32.38,32-32.38h4.22l-10.51,39.35h-4.39l8.6-32.38L892,187.28Z"/><path class="cls-2" d="M714.75,187.28l28.56-39.63h4.27l7.31,39.63h-4.56l-1.79-10.4H727.06l-7.42,10.4Zm15.12-14.39H747.8l-3.54-20.18Z"/><path class="cls-2" d="M761.46,187.28,772,147.93h4.44l-6.24,23.38,28.22-23.38h6.29l-21.13,17.31,11.18,22h-5L780,167.83l-11.41,9.38-2.7,10.07Z"/><path class="cls-2" d="M830.88,196l2.36-8.76H801.82l10.57-39.35h4.44l-9.5,35.3h21.86l9.5-35.3h4.39l-9.5,35.3h5.28L834.7,196Z"/><path class="cls-2" d="M844.71,187.28l10.56-39.35h4.39L851,180.31l32-32.38h4.22l-10.52,39.35h-4.38L881,154.9l-32.09,32.38Z"/><path class="cls-2" d="M887.82,187.28l10.56-39.35h4.39l-8.66,32.38,32-32.38h4.22l-10.51,39.35h-4.39l8.6-32.38L892,187.28Z"/><path class="cls-2" d="M714.75,187.28l28.56-39.63h4.27l7.31,39.63h-4.56l-1.79-10.4H727.06l-7.42,10.4Zm15.12-14.39H747.8l-3.54-20.18Z"/><path class="cls-2" d="M761.46,187.28,772,147.93h4.44l-6.24,23.38,28.22-23.38h6.29l-21.13,17.31,11.18,22h-5L780,167.83l-11.41,9.38-2.7,10.07Z"/><path class="cls-2" d="M830.88,196l2.36-8.76H801.82l10.57-39.35h4.44l-9.5,35.3h21.86l9.5-35.3h4.39l-9.5,35.3h5.28L834.7,196Z"/><path class="cls-2" d="M844.71,187.28l10.56-39.35h4.39L851,180.31l32-32.38h4.22l-10.52,39.35h-4.38L881,154.9l-32.09,32.38Z"/><path class="cls-2" d="M887.82,187.28l10.56-39.35h4.39l-8.66,32.38,32-32.38h4.22l-10.51,39.35h-4.39l8.6-32.38L892,187.28Z"/><path class="cls-2" d="M714.75,261.1l28.56-39.63h4.27l7.31,39.63h-4.56l-1.79-10.4H727.06l-7.42,10.4Zm15.12-14.39H747.8l-3.54-20.18Z"/><path class="cls-2" d="M761.46,261.1,772,221.75h4.44l-6.24,23.39,28.22-23.39h6.29l-21.13,17.32,11.18,22h-5L780,241.65,768.6,251l-2.7,10.06Z"/><path class="cls-2" d="M830.88,269.87l2.36-8.77H801.82l10.57-39.35h4.44l-9.5,35.3h21.86l9.5-35.3h4.39l-9.5,35.3h5.28l-4.16,12.82Z"/><path class="cls-2" d="M844.71,261.1l10.56-39.35h4.39L851,254.13l32-32.38h4.22L876.74,261.1h-4.38l8.6-32.38L848.87,261.1Z"/><path class="cls-2" d="M887.82,261.1l10.56-39.35h4.39l-8.66,32.38,32-32.38h4.22L919.86,261.1h-4.39l8.6-32.38L892,261.1Z"/><path class="cls-2" d="M714.75,261.1l28.56-39.63h4.27l7.31,39.63h-4.56l-1.79-10.4H727.06l-7.42,10.4Zm15.12-14.39H747.8l-3.54-20.18Z"/><path class="cls-2" d="M761.46,261.1,772,221.75h4.44l-6.24,23.39,28.22-23.39h6.29l-21.13,17.32,11.18,22h-5L780,241.65,768.6,251l-2.7,10.06Z"/><path class="cls-2" d="M830.88,269.87l2.36-8.77H801.82l10.57-39.35h4.44l-9.5,35.3h21.86l9.5-35.3h4.39l-9.5,35.3h5.28l-4.16,12.82Z"/><path class="cls-2" d="M844.71,261.1l10.56-39.35h4.39L851,254.13l32-32.38h4.22L876.74,261.1h-4.38l8.6-32.38L848.87,261.1Z"/><path class="cls-2" d="M887.82,261.1l10.56-39.35h4.39l-8.66,32.38,32-32.38h4.22L919.86,261.1h-4.39l8.6-32.38L892,261.1Z"/><path class="cls-2" d="M714.75,261.1l28.56-39.63h4.27l7.31,39.63h-4.56l-1.79-10.4H727.06l-7.42,10.4Zm15.12-14.39H747.8l-3.54-20.18Z"/><path class="cls-2" d="M761.46,261.1,772,221.75h4.44l-6.24,23.39,28.22-23.39h6.29l-21.13,17.32,11.18,22h-5L780,241.65,768.6,251l-2.7,10.06Z"/><path class="cls-2" d="M830.88,269.87l2.36-8.77H801.82l10.57-39.35h4.44l-9.5,35.3h21.86l9.5-35.3h4.39l-9.5,35.3h5.28l-4.16,12.82Z"/><path class="cls-2" d="M844.71,261.1l10.56-39.35h4.39L851,254.13l32-32.38h4.22L876.74,261.1h-4.38l8.6-32.38L848.87,261.1Z"/><path class="cls-2" d="M887.82,261.1l10.56-39.35h4.39l-8.66,32.38,32-32.38h4.22L919.86,261.1h-4.39l8.6-32.38L892,261.1Z"/><path class="cls-2" d="M714.75,334.92l28.56-39.62h4.27l7.31,39.62h-4.56l-1.79-10.39H727.06l-7.42,10.39Zm15.12-14.39H747.8l-3.54-20.17Z"/><path class="cls-2" d="M761.46,334.92,772,295.58h4.44L770.23,319l28.22-23.38h6.29l-21.13,17.31,11.18,22h-5L780,315.48l-11.41,9.38-2.7,10.06Z"/><path class="cls-2" d="M830.88,343.69l2.36-8.77H801.82l10.57-39.34h4.44l-9.5,35.3h21.86l9.5-35.3h4.39l-9.5,35.3h5.28l-4.16,12.81Z"/><path class="cls-2" d="M844.71,334.92l10.56-39.34h4.39L851,328l32-32.37h4.22l-10.52,39.34h-4.38l8.6-32.37-32.09,32.37Z"/><path class="cls-2" d="M887.82,334.92l10.56-39.34h4.39L894.11,328l32-32.37h4.22l-10.51,39.34h-4.39l8.6-32.37L892,334.92Z"/><path class="cls-2" d="M714.75,334.92l28.56-39.62h4.27l7.31,39.62h-4.56l-1.79-10.39H727.06l-7.42,10.39Zm15.12-14.39H747.8l-3.54-20.17Z"/><path class="cls-2" d="M761.46,334.92,772,295.58h4.44L770.23,319l28.22-23.38h6.29l-21.13,17.31,11.18,22h-5L780,315.48l-11.41,9.38-2.7,10.06Z"/><path class="cls-2" d="M830.88,343.69l2.36-8.77H801.82l10.57-39.34h4.44l-9.5,35.3h21.86l9.5-35.3h4.39l-9.5,35.3h5.28l-4.16,12.81Z"/><path class="cls-2" d="M844.71,334.92l10.56-39.34h4.39L851,328l32-32.37h4.22l-10.52,39.34h-4.38l8.6-32.37-32.09,32.37Z"/><path class="cls-2" d="M887.82,334.92l10.56-39.34h4.39L894.11,328l32-32.37h4.22l-10.51,39.34h-4.39l8.6-32.37L892,334.92Z"/><path class="cls-2" d="M714.75,334.92l28.56-39.62h4.27l7.31,39.62h-4.56l-1.79-10.39H727.06l-7.42,10.39Zm15.12-14.39H747.8l-3.54-20.17Z"/><path class="cls-2" d="M761.46,334.92,772,295.58h4.44L770.23,319l28.22-23.38h6.29l-21.13,17.31,11.18,22h-5L780,315.48l-11.41,9.38-2.7,10.06Z"/><path class="cls-2" d="M830.88,343.69l2.36-8.77H801.82l10.57-39.34h4.44l-9.5,35.3h21.86l9.5-35.3h4.39l-9.5,35.3h5.28l-4.16,12.81Z"/><path class="cls-2" d="M844.71,334.92l10.56-39.34h4.39L851,328l32-32.37h4.22l-10.52,39.34h-4.38l8.6-32.37-32.09,32.37Z"/><path class="cls-2" d="M887.82,334.92l10.56-39.34h4.39L894.11,328l32-32.37h4.22l-10.51,39.34h-4.39l8.6-32.37L892,334.92Z"/><path class="cls-2" d="M714.75,408.75l28.56-39.63h4.27l7.31,39.63h-4.56l-1.79-10.4H727.06l-7.42,10.4Zm15.12-14.39H747.8l-3.54-20.18Z"/><path class="cls-2" d="M761.46,408.75,772,369.4h4.44l-6.24,23.39,28.22-23.39h6.29l-21.13,17.31,11.18,22h-5L780,389.3l-11.41,9.39-2.7,10.06Z"/><path class="cls-2" d="M830.88,417.52l2.36-8.77H801.82l10.57-39.35h4.44l-9.5,35.3h21.86l9.5-35.3h4.39l-9.5,35.3h5.28l-4.16,12.82Z"/><path class="cls-2" d="M844.71,408.75l10.56-39.35h4.39L851,401.78l32-32.38h4.22l-10.52,39.35h-4.38l8.6-32.38-32.09,32.38Z"/><path class="cls-2" d="M887.82,408.75l10.56-39.35h4.39l-8.66,32.38,32-32.38h4.22l-10.51,39.35h-4.39l8.6-32.38L892,408.75Z"/><path class="cls-2" d="M714.75,408.75l28.56-39.63h4.27l7.31,39.63h-4.56l-1.79-10.4H727.06l-7.42,10.4Zm15.12-14.39H747.8l-3.54-20.18Z"/><path class="cls-2" d="M761.46,408.75,772,369.4h4.44l-6.24,23.39,28.22-23.39h6.29l-21.13,17.31,11.18,22h-5L780,389.3l-11.41,9.39-2.7,10.06Z"/><path class="cls-2" d="M830.88,417.52l2.36-8.77H801.82l10.57-39.35h4.44l-9.5,35.3h21.86l9.5-35.3h4.39l-9.5,35.3h5.28l-4.16,12.82Z"/><path class="cls-2" d="M844.71,408.75l10.56-39.35h4.39L851,401.78l32-32.38h4.22l-10.52,39.35h-4.38l8.6-32.38-32.09,32.38Z"/><path class="cls-2" d="M887.82,408.75l10.56-39.35h4.39l-8.66,32.38,32-32.38h4.22l-10.51,39.35h-4.39l8.6-32.38L892,408.75Z"/><path class="cls-2" d="M714.75,408.75l28.56-39.63h4.27l7.31,39.63h-4.56l-1.79-10.4H727.06l-7.42,10.4Zm15.12-14.39H747.8l-3.54-20.18Z"/><path class="cls-2" d="M761.46,408.75,772,369.4h4.44l-6.24,23.39,28.22-23.39h6.29l-21.13,17.31,11.18,22h-5L780,389.3l-11.41,9.39-2.7,10.06Z"/><path class="cls-2" d="M830.88,417.52l2.36-8.77H801.82l10.57-39.35h4.44l-9.5,35.3h21.86l9.5-35.3h4.39l-9.5,35.3h5.28l-4.16,12.82Z"/><path class="cls-2" d="M844.71,408.75l10.56-39.35h4.39L851,401.78l32-32.38h4.22l-10.52,39.35h-4.38l8.6-32.38-32.09,32.38Z"/><path class="cls-2" d="M887.82,408.75l10.56-39.35h4.39l-8.66,32.38,32-32.38h4.22l-10.51,39.35h-4.39l8.6-32.38L892,408.75Z"/></g></g></svg>