<svg xmlns="http://www.w3.org/2000/svg" viewBox="0 0 145 145"><defs><style>.cls-1{fill:none;stroke:#f94b1c;stroke-miterlimit:10;stroke-width:2px;}</style></defs><g id="Слой_2" data-name="Слой 2"><g id="Layer_1" data-name="Layer 1"><path class="cls-1" d="M1,73.83V72.28c.53-.78,1.37-.74,2.15-.77,1.16,0,2.32,0,3.64,0,0-.92,0-1.72,0-2.52,0-1-.13-1-1.14-1.15-1.2-.16-2.4-.4-3.59-.61-.94-.17-.95-.88-.91-1.61s.38-1.21,1.11-1.27a24.11,24.11,0,0,1,2.55,0c.79,0,1.58.12,2.4.18.12-.74.26-1.4.31-2.06.1-1.09,0-1.21-1.09-1.5s-2.38-.7-3.56-1.09a1.14,1.14,0,0,1-.65-.5,1.85,1.85,0,0,1,1.67-2.41C4.94,57,6,57.26,7,57.47c1.42.28,1.42.29,1.81-1.1A7.42,7.42,0,0,0,9.16,55a1,1,0,0,0-.36-.69c-.18-.16-.49-.17-.73-.26-1.17-.48-2.35-.94-3.5-1.47A1.1,1.1,0,0,1,4,51.86,1.64,1.64,0,0,1,6.18,50c1.16.25,2.3.57,3.44.9.51.15.82,0,1-.44,1-2.59,1.24-2.1-1-3.34L9.33,47c-.77-.46-1.57-.9-2.31-1.41s-.32-1.19-.1-1.81.56-.88,1.18-.7c1,.3,2.08.59,3.08,1,1.83.71,1.82.74,2.68-1,.56-1.15.56-1.16-.5-1.83-.31-.19-.63-.35-.93-.56l-3-2.12c.43-.68.72-1.23,1.1-1.71a.88.88,0,0,1,.76-.3c1,.37,2,.82,3.06,1.27a10.35,10.35,0,0,0,1.23.65.93.93,0,0,0,.84-.18c.55-.74,1-1.54,1.51-2.35-.84-.62-1.62-1.13-2.33-1.73a8.52,8.52,0,0,1-1.51-1.55,1.41,1.41,0,0,1,.22-1.85A1.19,1.19,0,0,1,16,30.42c.71.42,1.44.82,2.14,1.26S19.35,32.52,20,33l1.82-2.14.25-.34L21.56,30c-.91-.95-1.85-1.88-2.71-2.89a1.72,1.72,0,0,1-.47-1.29,1.52,1.52,0,0,1,2.49-.9c1.21.84,2.35,1.78,3.56,2.7C25,27,25.5,26.44,26.1,25.91s.45-.8,0-1.29c-.83-1-1.6-2-2.35-3a1.44,1.44,0,0,1-.31-1,1.72,1.72,0,0,1,2.59-1,10.18,10.18,0,0,1,1.06.91c.58.56,1.13,1.14,1.71,1.7a.83.83,0,0,0,1.18.15c.64-.5,1.26-1,1.92-1.57-.34-.49-.65-.87-.9-1.29-.59-1-1.16-2-1.7-3a1.05,1.05,0,0,1,.4-1.47c1.13-.91,1.22-.92,2.23.09q.33.33.63.69l2.3,2.75c.75-.49,1.44-.95,2.14-1.38.44-.28.47-.59.22-1A35.29,35.29,0,0,1,35.6,13c-.59-1.38-.4-1.68,1-2.29A.91.91,0,0,1,37.8,11c.82,1.1,1.62,2.21,2.38,3.34.3.45.61.6,1.09.37l2.35-1.11c-.31-.74-.62-1.42-.88-2.11A22.11,22.11,0,0,1,42,9.26c-.33-1.19-.18-1.39.93-1.9a1.1,1.1,0,0,1,1.59.41c.41.63.84,1.25,1.19,1.91s.73,1.58,1.12,2.44c.77-.3,1.5-.63,2.25-.88s.74-.56.57-1.18c-.35-1.27-.64-2.56-.91-3.85a1.11,1.11,0,0,1,.83-1.49c1.15-.34,1.45-.32,2,.58a19.31,19.31,0,0,1,1,2.32c1,2.44.46,2.2,3,1.5A.85.85,0,0,0,56.31,8c-.24-1.19-.47-2.39-.59-3.6s.38-1.47,1.64-1.75c1-.22,1.19.42,1.39,1.06.36,1.13.63,2.29,1,3.41.12.33.49.79.75.8a23.75,23.75,0,0,0,2.73-.23c0-.5-.08-.88-.09-1.27,0-1.24-.11-2.48-.07-3.72a1.28,1.28,0,0,1,.57-1c1.3-.6,2.06-.24,2.4,1.15s.51,2.73.78,4.18c.57,0,1.21.1,1.85.11,1.06,0,1.35-.2,1.46-1.26s.15-2.28.25-3.41c.12-1.29.52-1.58,1.81-1.39.71.11,1.15.44,1.19,1.19,0,.44.11.88.11,1.31,0,1.08,0,2.16,0,3.26,1,.1,1.8.17,2.62.28.59.08.84-.18.93-.74.18-1.21.34-2.42.61-3.6.35-1.54.54-1.58,2.1-1.3.61.11.85.38.85,1s0,1.25,0,1.87V7.38l2.11.35c1,.16,1,.12,1.29-.88a36.3,36.3,0,0,1,1.11-3.54c.36-.92.88-1.07,1.82-.79s1.24.62,1.11,1.63-.33,2-.54,3.06c-.26,1.29-.24,1.36,1,1.75.27.09.55.16.82.24,1,.25,1.11.19,1.49-.78.18-.46.3-.94.5-1.39.33-.76.67-1.51,1.07-2.23a1.22,1.22,0,0,1,.68-.59,1.58,1.58,0,0,1,2,1.87,26,26,0,0,1-.9,3.36c-.26.75-.08,1.11.64,1.42,2.13.93,2.1,1,3.14-1.12a28.24,28.24,0,0,1,1.47-2.56c.41-.65,1-.46,1.6-.21s1.17.43,1,1.24-.49,1.9-.84,2.81c-.87,2.23-.89,2.2,1.32,3.14a.88.88,0,0,0,1.32-.42c.69-1.12,1.48-2.18,2.22-3.27a.92.92,0,0,1,1.29-.32c.3.15.6.29.9.46a.76.76,0,0,1,.39,1,20.73,20.73,0,0,1-.78,2c-.44.89-1,1.74-1.48,2.65.76.48,1.5.91,2.2,1.4.51.37.79.2,1.13-.24a35.78,35.78,0,0,1,2.44-2.91c.92-1,1.18-.89,2.21,0a1.23,1.23,0,0,1,.27,1.79c-.69,1.12-1.44,2.21-2.11,3.35a.86.86,0,0,0,0,.83c.65.61,1.39,1.13,2.06,1.66,1.34-1.23,2.6-2.4,3.88-3.52a.9.9,0,0,1,.8-.12c.59.39,1.12.88,1.81,1.43-1.07,1.36-2.05,2.66-3.1,3.9-.46.54-.52.95,0,1.46s1.1,1.15,1.67,1.75c.53-.46,1-.88,1.42-1.25A26,26,0,0,1,123.44,24c.92-.56,1.28-.42,2,.45.57.7.58,1-.14,1.81-.89,1-1.82,2-2.75,3a.56.56,0,0,0-.06.87c.57.65,1.13,1.33,1.66,1.95,1.41-.86,2.73-1.73,4.1-2.5.9-.5,1.17-.31,2,.7.53.68.36,1.14-.21,1.64s-1.22,1.13-1.84,1.67-1.2,1-1.82,1.45c.32.52.61,1,.91,1.43.85,1.29.84,1.26,2.23.57,1.11-.55,2.24-1.06,3.39-1.51a1.07,1.07,0,0,1,.94.25c.9,1,.88,1.7-.16,2.55s-2.05,1.4-3.06,2.13c-.2.14-.46.54-.4.68.41.91.9,1.78,1.37,2.69a18.48,18.48,0,0,1,1.81-.84c1-.35,2-.67,3-.92a1,1,0,0,1,.86.3c.92,1.15.83,1.79-.38,2.61-.62.42-1.3.76-1.95,1.12-.39.22-.79.4-1.18.6a.82.82,0,0,0-.45,1.16c.28.74.57,1.48.87,2.26,1.32-.38,2.55-.77,3.79-1.1,1.63-.43,2.06-.16,2.58,1.44.15.47.1.8-.37,1-1,.45-1.89,1-2.88,1.33-2.38.87-2.06.46-1.4,2.91a.9.9,0,0,0,1.09.73c1.24-.13,2.48-.22,3.72-.31,1.43-.12,1.4-.11,1.73,1.32.16.69,0,1.1-.67,1.31-1.22.35-2.42.74-3.64,1.07-1,.26-1.09.36-1,1.38,0,.49.14,1,.17,1.47s.23.64.74.63c1.53,0,3.06,0,4.59,0a.94.94,0,0,1,.71.3c.77,1.44.42,2.19-1.15,2.61l-.07,0c-1,.15-2,.34-3,.46s-1.32.34-1.22,1.42c.07.74.22,1.46.34,2.22.8,0,1.49,0,2.19,0s1.45.06,2.17.13c1.08.1,1.38.4,1.39,1.27,0,1.27-.33,1.73-1.41,1.81-1.45.1-2.89.15-4.38.22-.05.84-.07,1.67-.17,2.49s.22.86.85,1c1.33.18,2.65.44,4,.7a1,1,0,0,1,.85,1.18c-.07,1.42-.35,1.75-1.76,1.76-.83,0-1.65,0-2.48-.07-.59,0-1.17-.07-1.76-.11-.08.35-.16.6-.21.85s-.09.72-.13,1.08c-.15,1.23,0,1.36,1.15,1.65a30.09,30.09,0,0,1,3.21.92,1.49,1.49,0,0,1,.85.87c.33,1.33-.24,2-1.6,2.1a4.79,4.79,0,0,1-.93-.06q-1.41-.24-2.82-.51c-.5-.09-.85,0-1,.57a13.45,13.45,0,0,1-.46,1.65c-.22.66,0,1,.66,1.18a34.94,34.94,0,0,1,3.66,1.47c.93.45.93.61.6,1.69s-.54,1.22-1.48,1.08a22.66,22.66,0,0,1-3.16-.74c-1.53-.45-1.52-.48-2.13,1s-.55,1.66.88,2.39c1,.5,2,1,3,1.54a1,1,0,0,1,.4,1.41c-.24.58-.34,1.39-1.25,1.19a21.2,21.2,0,0,1-3.26-.89c-1.73-.69-1.71-.75-2.56.92-.67,1.32-.66,1.29.59,2.1s2.47,1.66,3.73,2.51l-.6,1c-.72,1.25-.89,1.32-2.21.71s-2.59-1.26-4-1.92l-1.7,2.74c1.21,1,2.37,1.92,3.47,2.9.81.73.81,1.29.15,2.17s-1.05.87-2,.34c-.21-.11-.4-.23-.6-.36l-3.08-2-2.07,2.42c.41.43.79.82,1.16,1.22.78.86,1.59,1.7,2.32,2.61a1.18,1.18,0,0,1,.17,1c-.64,1.32-1.36,1.48-2.58.69-.15-.1-.31-.2-.45-.31l-3.12-2.49-2,2.45,3.44,4.45c-1.57,2-2.2,2-3.81.42-.61-.6-1.17-1.26-1.83-1.8a1.18,1.18,0,0,0-1.08-.21,21,21,0,0,0-2.1,1.53,31.29,31.29,0,0,1,2,3.08c1.13,2.21,1.13,2.21-1,3.49,0,0-.1,0-.25,0L110,126.5l-2.08,1.33c-.46.29-.51.61-.25,1.09.59,1.07,1.18,2.14,1.66,3.25.58,1.34.42,1.59-.88,2.21a1,1,0,0,1-1.38-.26c-.51-.62-1-1.25-1.47-1.9s-.63-1.08-1-1.57a.86.86,0,0,0-.76-.23c-.84.31-1.65.72-2.52,1.11.19.47.36.84.5,1.22.42,1.17.87,2.33,1.22,3.52a1.24,1.24,0,0,1-.23,1,1.51,1.51,0,0,1-2.62-.28A18.69,18.69,0,0,1,99,135c-.32-.61-.55-1.26-.85-2-.9.36-1.75.67-2.56,1.06a.83.83,0,0,0-.31.7c.27,1.26.64,2.5.91,3.77s-.08,1.6-1.19,2c-.86.3-1.16.2-1.71-.91a32.55,32.55,0,0,1-1.34-3.3c-.25-.69-.58-.9-1.33-.67-2.3.71-2.19.27-1.76,2.79a16.13,16.13,0,0,1,.26,2.77c0,.84-.52,1.15-1.77,1.38-.71.13-.86-.44-1-.85-.42-1.19-.76-2.41-1.11-3.62-.25-.83-.48-1-1.33-.9s-1.43.21-2.18.32c0,.24,0,.44,0,.64,0,1.39.15,2.79.14,4.19a1.45,1.45,0,0,1-.55,1.08c-1.23.67-2.06.27-2.48-1.06a6.46,6.46,0,0,1-.18-.76c-.17-1.14-.34-2.29-.52-3.56h-2.4c-.67,0-1,.33-1,1,0,1.12-.08,2.23-.12,3.34a1.76,1.76,0,0,1-.77,1.59H72.26a1.39,1.39,0,0,1-.78-1.32c-.06-1.42-.14-2.84-.22-4.34-.69-.07-1.41-.15-2.13-.21-1.25-.09-1.23-.08-1.42,1.19s-.36,2.46-.66,3.65c-.21.85-.74,1-1.81.86-.7-.1-.92-.57-.93-1.21,0-.29-.06-.57-.06-.86v-4a18.74,18.74,0,0,1-2.14-.37c-.76-.22-1.06,0-1.25.75a28.54,28.54,0,0,1-1.08,3.55c-.39,1-.89,1.19-1.83.92s-1.28-.58-1.13-1.76.39-2.39.61-3.59c.09-.48,0-.79-.53-.91a12.5,12.5,0,0,1-1.72-.48c-.61-.22-.88,0-1.09.59-.46,1.23-.94,2.46-1.49,3.66-.43.92-.65.92-1.92.6a1.06,1.06,0,0,1-.86-1.39c.26-1.26.57-2.52,1-3.74.2-.66.08-1-.55-1.27-2.53-1.05-2.19-1-3.3,1.12a22.56,22.56,0,0,1-1.44,2.48c-.61.89-1.32.28-2,0a.89.89,0,0,1-.56-1.25c.27-.89.53-1.79.87-2.65.86-2.22.87-2.2-1.37-3.12a.86.86,0,0,0-1.27.39c-.71,1.14-1.5,2.24-2.28,3.33a1.09,1.09,0,0,1-.67.44,1.62,1.62,0,0,1-1.73-2.2,24.34,24.34,0,0,1,1.09-2.31c.3-.6.67-1.16,1-1.79l-2-1.27c-.25-.16-.53-.3-.85-.47-.24.3-.45.59-.69.86-.86,1-1.72,2-2.62,2.95a1.13,1.13,0,0,1-.89.31,1.63,1.63,0,0,1-1.08-2.62c.62-1,1.31-2,2-3.06.24-.36.29-.62-.09-.92-.67-.52-1.31-1.08-1.94-1.6-.11,0-.17,0-.2.07-.82.76-1.61,1.54-2.44,2.29-2,1.78-1.46,2-3.7-.07,0,0,0,0-.1-.26,1-1.23,2-2.56,3.06-3.85.35-.42.48-.75.05-1.18-.62-.63-1.21-1.27-1.75-1.84l-4.75,3.7c-.36-.39-.61-.65-.85-.92-.88-1-.9-1.24,0-2.23.74-.83,1.57-1.59,2.28-2.44.24-.28.47-.87.33-1.12a17.2,17.2,0,0,0-1.49-2.09c-1.52.9-2.92,1.75-4.32,2.57a1,1,0,0,1-1.46-.31c-1-1.27-1-1.27.16-2.39.2-.2.41-.39.63-.58l2.68-2.25c-.37-.56-.73-1.1-1.1-1.63-.73-1-.72-1-1.89-.43s-2.13,1-3.22,1.52a1,1,0,0,1-1.43-.48c-.62-1.17-.69-1.39,0-2a20.56,20.56,0,0,1,2-1.51c.65-.46,1.35-.86,2.09-1.32l-1.59-3-1.56.73c-.5.22-1,.46-1.5.63-2.31.8-2.44.74-3.45-1.44,0,0,0-.1,0-.3,1.08-.65,2.2-1.4,3.4-2,1.66-.83,1.71-.84,1-2.61l-.09-.21c-.21-.77-.63-1-1.44-.74-1.21.36-2.46.62-3.7.88a1.14,1.14,0,0,1-1.47-1,3.13,3.13,0,0,0-.16-.6.7.7,0,0,1,.44-1c1.21-.52,2.4-1.08,3.63-1.55s1.12-.39.81-1.52c-.62-2.27-.18-2-2.6-1.72A24.55,24.55,0,0,1,3.58,89c-1,0-1-.91-1.17-1.57s.27-.88.7-1c1.14-.4,2.29-.78,3.46-1.08s1.26-.27,1.12-1.52a4.88,4.88,0,0,1-.1-.92c.1-.94-.44-1.06-1.18-1-1.38,0-2.75,0-4.12,0-.54,0-.84-.18-.84-.75a3.34,3.34,0,0,0-.1-.62c-.13-.71.08-1.23.86-1.39,1.31-.25,2.62-.53,4-.74.57-.09.84-.31.78-.89s-.14-1.34-.15-2-.27-.68-.77-.68c-1.27,0-2.54-.09-3.81-.14A1.25,1.25,0,0,1,1,73.83Zm40.17,47.54a13.27,13.27,0,0,0,1.42,1c1.26.71,2.54,1.4,3.83,2.06a52.83,52.83,0,0,0,23,6,83.55,83.55,0,0,0,10-.23,50.62,50.62,0,0,0,14.09-3.59c2.91-1.2,5.74-2.62,8.58-4,1-.51,1.18-1,.64-2.09a12,12,0,0,0-1.11-1.77c-3.07-4-6.13-8-9.25-11.91-2.85-3.6-5.77-7.14-8.64-10.71a.81.81,0,0,0-1.06-.32c-.65.25-1.33.44-2,.67a25.66,25.66,0,0,1-10.47,1.32,28.34,28.34,0,0,1-7.87-2,.94.94,0,0,0-1.22.28c-.59.72-1.25,1.39-1.82,2.12q-7,8.85-13.94,17.72ZM54,90.36a1.64,1.64,0,0,0-.15-.32c-.29-.39-.59-.79-.89-1.17A25.61,25.61,0,0,1,47.67,78a53.55,53.55,0,0,1-.56-8,1.16,1.16,0,0,0-.89-1.26c-3.39-1.19-6.77-2.42-10.16-3.64q-9.48-3.4-19-6.85c-.69-.25-1-.09-1.13.61A62.56,62.56,0,0,0,14.41,69.9a58.61,58.61,0,0,0,3.42,22.42,53.3,53.3,0,0,0,8.81,15.88c2.22,2.73,4.78,5.18,7.21,7.73a21.49,21.49,0,0,0,1.7,1.48ZM69.09,14.59A57.79,57.79,0,0,0,34.73,28.46,58.54,58.54,0,0,0,18.35,51.37c.33.12.47.18.62.22l28.54,8.25c2.48.71,2.48.72,3.91-1.45A24.71,24.71,0,0,1,58,51.76a27.9,27.9,0,0,1,9.27-4,.73.73,0,0,0,.65-.84c.06-2.41.17-4.82.26-7.23q.31-9.24.65-18.49C68.9,19,69,16.92,69.09,14.59Zm40.38,102.75c.33-.27.61-.45.85-.68,5.73-5.44,10.83-11.33,14.28-18.54a57.32,57.32,0,0,0,5.67-21,65.75,65.75,0,0,0,0-9.31c-.23-2.95-.87-5.87-1.38-8.8-.17-.92-.33-1-1.23-.66q-14.72,5.25-29.42,10.55a.91.91,0,0,0-.42.67c0,1,0,2.07,0,3.11a25.06,25.06,0,0,1-3.4,12.59c-.93,1.52-2,3-3,4.44a1,1,0,0,0,0,1.34q7.95,11.58,15.88,23.2C108,115.28,108.71,116.28,109.47,117.34ZM75.76,14.66v.45c.18,4,.39,8,.54,12,.23,6.27.43,12.54.64,18.8.06,1.63.07,1.62,1.67,2a25.43,25.43,0,0,1,13.28,8.32c.93,1.1,1.74,2.32,2.58,3.49a1.14,1.14,0,0,0,1.45.47c3.17-1,6.36-1.84,9.53-2.78q10-3,19.92-6c.35-.11.69-.27,1-.41A58.23,58.23,0,0,0,75.76,14.66Z"/></g></g></svg>