<svg xmlns="http://www.w3.org/2000/svg" viewBox="0 0 45.35 32.42"><defs><style>.cls-1{fill:none;stroke:#ffc501;stroke-miterlimit:10;stroke-width:2px;}.cls-2{fill:#fcc505;}</style></defs><g id="Слой_2" data-name="Слой 2"><g id="Layer_1" data-name="Layer 1"><path class="cls-1" d="M10.64,31.17a33.13,33.13,0,0,1-4.44-.49,5.42,5.42,0,0,1-4.49-4.76A52.85,52.85,0,0,1,1,18a69.47,69.47,0,0,1,.33-8.89A22.85,22.85,0,0,1,1.85,6,5.33,5.33,0,0,1,6.9,1.68c3.12-.28,6.26-.5,9.39-.59C20.18,1,24.07,1,28,1.06c3.43.08,6.85.34,10.27.59,2.93.21,5.09,2,5.48,5.45.27,2.46.45,4.93.58,7.4A58.69,58.69,0,0,1,44,23.39a25.13,25.13,0,0,1-.49,3.09,5.37,5.37,0,0,1-5.06,4.32c-3.13.28-6.28.46-9.43.59C26.88,31.48,14.64,31.34,10.64,31.17Zm7.61-21.4V22.71l11.38-6.47Z"/><path class="cls-2" d="M18.36,9.67l11.26,6.67L18.13,22.61Z"/></g></g></svg>