<svg xmlns="http://www.w3.org/2000/svg" viewBox="0 0 228.13 213.57"><defs><style>.cls-1{fill:none;stroke:#f94b1c;stroke-miterlimit:10;stroke-width:2px;}</style></defs><g id="Слой_2" data-name="Слой 2"><g id="Layer_1" data-name="Layer 1"><path class="cls-1" d="M209.1,168.41c2.75.78,5.38,1.15,7.66,2.25,6.34,3.07,10.13,8.22,10.31,15.35.11,4.74.21,9.69-1,14.18-2,7.22-7.53,11.1-14.92,12.2a26.1,26.1,0,0,1-3.76.15q-93.12,0-186.26,0c-8.44,0-14.78-3.27-18.35-11-2.31-5-1.81-10.45-1.39-15.76a17.64,17.64,0,0,1,13.86-16.38,25.93,25.93,0,0,1,6.29-.61q55.69-.06,111.39,0h3.23V141.5c0-4.53.94-5.46,5.55-5.46H158v-2.76q0-12.24,0-24.49c0-4.54,1-5.61,5.49-5.61q14.6,0,29.2,0c4.46,0,5.49,1,5.5,5.6V136c2.26,0,4.2,0,6.14,0,3.55.05,4.79,1.27,4.8,4.86,0,8.79,0,17.58,0,26.37Zm-94.9,7.74H56.27c-12.17,0-24.33,0-36.5,0-5.62,0-10.1,3.22-10.88,8.48a40.89,40.89,0,0,0,0,12.15c.88,5.57,5.54,8.53,12.1,8.53h186.5c.71,0,1.42,0,2.12-.07,6.25-.65,10.24-5,10.36-11.29,0-1.65-.1-3.31,0-4.94.61-7.63-4.62-13-12.8-13C176.21,176.29,145.21,176.15,114.2,176.15Zm51.2-40.29h25.25V110.61H165.4ZM143.48,168.6H168.8V143.43H143.48Zm32.79,0h25.26V143.46H176.27Z"/><path class="cls-1" d="M30,50.48c-4.26-4.25-8.65-8.62-13-13-2.84-2.85-2.86-4.49,0-7.32q6.72-6.76,13.48-13.5c2.6-2.58,4.4-2.56,7,0,3.95,3.93,7.94,7.82,11.79,11.85,1.21,1.26,2.14,1.29,3.64.57,3.3-1.58,6.72-2.94,10.27-4.46,0-6,0-12.24,0-18.44,0-4,1.23-5.19,5.23-5.2Q77.8,1,87.22,1c3.88,0,5.11,1.23,5.11,5,0,6.2,0,12.4,0,18.56,3.94,1.72,7.77,3.46,11.67,5,.49.19,1.54-.47,2.08-1,4-3.95,8-8,12-12,2.65-2.63,4.35-2.63,7,0q6.84,6.81,13.64,13.67c2.62,2.63,2.6,4.34,0,7-4.43,4.45-8.89,8.87-13.17,13.14,1.58,4,3,7.82,4.63,11.54A2.81,2.81,0,0,0,132.36,63c5.73.08,11.47,0,17.2.05,3.54,0,4.8,1.25,4.82,4.83q.06,9.77,0,19.54c0,3.48-1.38,4.78-4.93,4.8-5.65,0-11.31.06-17,0a2.36,2.36,0,0,0-2.71,1.85,81.77,81.77,0,0,1-3.51,8.45c-.69,1.46-.72,2.39.56,3.6,4,3.78,7.81,7.73,11.69,11.62,2.91,2.92,2.89,4.53-.07,7.5q-6.66,6.66-13.33,13.31c-2.67,2.64-4.38,2.66-7,0-4.45-4.42-8.87-8.88-13.18-13.2-4,1.58-7.76,3-11.48,4.65a2.8,2.8,0,0,0-1.06,2.16c-.09,5.65,0,11.3,0,16.95,0,3.84-1.11,5-4.84,5q-9.77,0-19.55,0c-3.57,0-4.78-1.24-4.8-4.83,0-5.65-.08-11.31,0-17,0-1.66-.57-2.27-2-2.8A88.44,88.44,0,0,1,52.49,126a2.19,2.19,0,0,0-3,.51c-4,4.11-8.07,8.14-12.13,12.18-2.57,2.55-4.29,2.56-6.82.05q-7-7-14-14c-2.27-2.3-2.27-4.17,0-6.48,4.09-4.14,8.18-8.26,12.34-12.31a2.16,2.16,0,0,0,.54-3A80.84,80.84,0,0,1,25.9,94.5c-.57-1.64-1.28-2.33-3.13-2.28-5.49.14-11,.06-16.49,0-3.85,0-5.11-1.24-5.13-5.06q0-9.66,0-19.31c0-3.62,1.25-4.8,4.83-4.81,5.73,0,11.46-.05,17.19,0a2.22,2.22,0,0,0,2.51-1.79C27,57.74,28.49,54.22,30,50.48ZM131.67,121.2q-6.33-6.32-12.66-12.64c-2.25-2.27-2.21-3.39-.88-6.26,2-4.39,3.92-8.86,5.59-13.4,1.18-3.2,1.9-4,5.39-4,5.11,0,10.21,0,15.31,0h2.44V70.31H129.32c-4,0-4.44-.62-5.77-4.4a123.66,123.66,0,0,0-5.22-12.54c-1.61-3.34-1.66-4.34,1-7,4.15-4.16,8.32-8.31,12.23-12.22l-10.27-10.4c-4.15,4.17-8.4,8.45-12.68,12.7-2.22,2.21-3.31,2.16-6.07.92q-6.93-3.12-14.07-5.79c-2.18-.82-3.45-2-3.41-4.41,0-2.83,0-5.66,0-8.48V8.52H70.5v2.66c0,5.1,0,10.2,0,15.31,0,3.3-.87,4.05-4,5.18-4.4,1.59-8.76,3.35-13,5.37-3.49,1.66-4.27,1.77-7-1L34.2,23.75,23.87,34.11c4.12,4.11,8.41,8.36,12.67,12.63,2.14,2.14,2.15,3.45,1,6.08-2.07,4.54-4,9.15-5.79,13.82-1.11,2.94-1.71,3.64-4.87,3.65-5.11,0-10.21,0-15.31,0H8.62V84.89H25.69c4.42,0,4.94.62,6.33,4.68a103.73,103.73,0,0,0,5,12.09c1.78,3.63,1.86,4.5-1,7.4l-12,12,10.35,10.34c4.05-4.07,8.3-8.36,12.58-12.62,2.13-2.12,3.27-2.11,5.87-.94q6.95,3.14,14,5.88c2.72,1.05,3.57,1.83,3.63,4.72.05,2.44,0,4.87,0,7.3v11.11H85.08v-2.65c0-5.34,0-10.68,0-16,0-2.38,1.14-3.59,3.38-4.42q7.23-2.7,14.25-6c2.26-1,4-1,5.73.81,3.08,3.14,6.25,6.19,9.29,9.36a47.43,47.43,0,0,1,3.18,4Z"/><path class="cls-1" d="M117.82,77.83a40.08,40.08,0,1,0-40.31,39.93A40,40,0,0,0,117.82,77.83Z"/><path class="cls-1" d="M114.24,179.83a10.93,10.93,0,0,1,10.94,10.88,11,11,0,0,1-21.9,0A10.93,10.93,0,0,1,114.24,179.83Zm3.55,10.9a3.56,3.56,0,1,0-7.12-.07,3.56,3.56,0,0,0,7.12.07Z"/><path class="cls-1" d="M139.84,190.74a10.88,10.88,0,0,1,21.76-.07,10.88,10.88,0,1,1-21.76.07Zm14.46,0a3.72,3.72,0,0,0-3.56-3.64,3.76,3.76,0,0,0-3.66,3.57,3.63,3.63,0,0,0,3.58,3.58A3.54,3.54,0,0,0,154.3,190.73Z"/><path class="cls-1" d="M52.23,190.64a10.93,10.93,0,0,1-21.86.13,10.93,10.93,0,0,1,21.86-.13Zm-7.4,0a3.62,3.62,0,0,0-3.65-3.51,3.68,3.68,0,0,0-3.49,3.72,3.55,3.55,0,0,0,3.69,3.44A3.47,3.47,0,0,0,44.83,190.59Z"/><path class="cls-1" d="M88.62,190.8a10.88,10.88,0,1,1-10.77-11A10.75,10.75,0,0,1,88.62,190.8Zm-7.24-.21a3.79,3.79,0,0,0-3.73-3.5,3.73,3.73,0,0,0-3.49,3.71,3.55,3.55,0,0,0,3.71,3.44A3.62,3.62,0,0,0,81.38,190.59Z"/><path class="cls-1" d="M187.23,179.83a10.84,10.84,0,0,1,10.85,10.92,10.93,10.93,0,1,1-10.85-10.92Zm3.55,10.77a3.71,3.71,0,0,0-3.69-3.51,3.58,3.58,0,0,0-3.45,3.7,3.45,3.45,0,0,0,3.64,3.46A3.6,3.6,0,0,0,190.78,190.6Z"/></g></g></svg>