<svg xmlns="http://www.w3.org/2000/svg" viewBox="0 0 190.75 190.76"><defs><style>.cls-1{fill:none;stroke:#f94b1c;stroke-miterlimit:10;stroke-width:2px;}</style></defs><g id="Слой_2" data-name="Слой 2"><g id="Layer_1" data-name="Layer 1"><path class="cls-1" d="M1,97.14V95.08c.7-1,1.81-1,2.84-1,1.53,0,3.06,0,4.81,0,0-1.22,0-2.27,0-3.32,0-1.32-.17-1.35-1.51-1.53C5.55,89,4,88.68,2.4,88.4c-1.25-.22-1.26-1.15-1.2-2.12A1.56,1.56,0,0,1,2.67,84.6c1.11-.08,2.24-.09,3.36-.06s2.09.16,3.17.24c.15-1,.34-1.84.41-2.72.13-1.44-.06-1.6-1.45-2-1.58-.43-3.14-.92-4.69-1.44A1.52,1.52,0,0,1,2.61,78c-.61-1.33.76-3.34,2.2-3.18s2.76.47,4.13.74c1.86.37,1.86.38,2.39-1.46a9.45,9.45,0,0,0,.44-1.78,1.31,1.31,0,0,0-.48-.91c-.24-.21-.64-.22-.95-.34-1.55-.63-3.11-1.24-4.62-1.94a1.43,1.43,0,0,1-.77-1c-.15-1.9,1-2.9,2.89-2.5,1.53.32,3,.74,4.54,1.19a.92.92,0,0,0,1.31-.58c1.29-3.42,1.63-2.77-1.33-4.41-.12-.06-.25-.12-.36-.19-1-.61-2.08-1.18-3.06-1.86s-.41-1.57-.13-2.39.75-1.16,1.56-.93c1.37.4,2.75.78,4.07,1.3,2.41.94,2.4,1,3.54-1.38.73-1.53.73-1.53-.67-2.41-.4-.26-.83-.48-1.22-.75-1.3-.91-2.59-1.84-3.92-2.8a26.3,26.3,0,0,1,1.45-2.25,1.2,1.2,0,0,1,1-.41c1.37.5,2.71,1.09,4,1.69a16.87,16.87,0,0,0,1.62.86,1.27,1.27,0,0,0,1.12-.25c.72-1,1.32-2,2-3.09-1.11-.82-2.14-1.5-3.08-2.28a11.41,11.41,0,0,1-2-2.06,1.84,1.84,0,0,1,.29-2.43,1.56,1.56,0,0,1,2.19-.37c.94.54,1.9,1.08,2.82,1.66s1.61,1.11,2.42,1.68l2.4-2.82c.11-.13.2-.27.34-.45l-.64-.68c-1.2-1.26-2.45-2.49-3.58-3.81a2.34,2.34,0,0,1-.62-1.71,2,2,0,0,1,3.29-1.19c1.59,1.12,3.1,2.35,4.69,3.56.71-.71,1.43-1.5,2.21-2.19s.6-1.06,0-1.71c-1.09-1.28-2.11-2.61-3.09-4a1.9,1.9,0,0,1-.42-1.32,2.29,2.29,0,0,1,3.43-1.28,15.84,15.84,0,0,1,1.39,1.21c.76.74,1.5,1.51,2.25,2.25a1.09,1.09,0,0,0,1.56.19c.86-.66,1.67-1.36,2.54-2.07-.46-.64-.86-1.15-1.19-1.71q-1.15-1.92-2.24-3.9a1.39,1.39,0,0,1,.52-1.94c1.5-1.2,1.62-1.22,3,.12a11.94,11.94,0,0,1,.83.91l3,3.63c1-.64,1.89-1.25,2.82-1.83.58-.36.62-.77.3-1.36a46.7,46.7,0,0,1-2.2-4.28c-.78-1.82-.53-2.22,1.28-3a1.22,1.22,0,0,1,1.63.36c1.08,1.45,2.14,2.92,3.14,4.42.39.59.8.78,1.43.48l3.11-1.47c-.41-1-.82-1.87-1.17-2.78s-.72-1.93-1-2.91c-.44-1.58-.24-1.84,1.23-2.52a1.45,1.45,0,0,1,2.1.54c.54.84,1.11,1.65,1.57,2.52.54,1,1,2.1,1.48,3.23,1-.4,2-.83,3-1.16.83-.29,1-.75.74-1.56-.46-1.68-.84-3.38-1.2-5.08a1.46,1.46,0,0,1,1.1-2c1.51-.44,1.91-.43,2.58.76a24.83,24.83,0,0,1,1.38,3.07c1.27,3.21.61,2.91,4,2,.89-.24,1.14-.66,1-1.54-.31-1.58-.62-3.16-.77-4.75-.13-1.42.51-1.95,2.16-2.32,1.26-.29,1.57.55,1.84,1.41.48,1.49.83,3,1.34,4.5.15.43.64,1,1,1.05a30.18,30.18,0,0,0,3.6-.31c-.05-.65-.1-1.16-.12-1.67,0-1.64-.14-3.28-.08-4.92a1.69,1.69,0,0,1,.74-1.29c1.72-.78,2.72-.31,3.17,1.53s.68,3.6,1,5.52c.75,0,1.6.12,2.45.14,1.4,0,1.77-.27,1.92-1.67s.2-3,.34-4.5c.15-1.7.68-2.08,2.39-1.83.93.14,1.51.57,1.56,1.57,0,.58.14,1.15.15,1.73,0,1.42,0,2.85,0,4.3,1.29.14,2.38.23,3.46.37.78.1,1.11-.24,1.22-1,.24-1.59.46-3.19.81-4.75.47-2,.72-2.09,2.78-1.72.8.15,1.11.51,1.12,1.26s.05,1.64.06,2.47c0,1.36,0,2.72,0,4.1l2.79.46c1.32.21,1.34.16,1.7-1.15a47,47,0,0,1,1.47-4.68c.48-1.22,1.15-1.41,2.4-1s1.64.81,1.47,2.15-.44,2.7-.72,4c-.35,1.71-.32,1.81,1.32,2.32l1.09.31c1.3.33,1.46.26,2-1,.24-.6.4-1.24.66-1.83.43-1,.89-2,1.41-3a1.63,1.63,0,0,1,.9-.78,2.1,2.1,0,0,1,2.58,2.48A35.74,35.74,0,0,1,124,12.14c-.34,1-.11,1.47.84,1.88,2.81,1.22,2.77,1.24,4.15-1.49a37.56,37.56,0,0,1,1.93-3.37c.55-.85,1.35-.61,2.11-.28s1.56.57,1.27,1.64c-.34,1.24-.64,2.51-1.1,3.71-1.15,2.93-1.17,2.9,1.73,4.14a1.17,1.17,0,0,0,1.75-.55c.92-1.48,1.95-2.89,2.94-4.32a1.19,1.19,0,0,1,1.69-.42c.4.19.8.39,1.19.6a1,1,0,0,1,.52,1.38c-.34.9-.61,1.82-1,2.67-.59,1.18-1.28,2.31-2,3.51,1,.63,2,1.19,2.9,1.85.68.49,1,.25,1.49-.32a49.83,49.83,0,0,1,3.23-3.85c1.21-1.26,1.56-1.17,2.92-.05a1.62,1.62,0,0,1,.35,2.36c-.91,1.49-1.9,2.92-2.78,4.42a1.17,1.17,0,0,0,0,1.11c.87.8,1.83,1.49,2.72,2.18,1.78-1.62,3.43-3.16,5.13-4.64a1.15,1.15,0,0,1,1.05-.16c.78.51,1.48,1.16,2.39,1.89-1.42,1.79-2.71,3.51-4.09,5.14-.61.72-.69,1.26,0,1.93s1.46,1.52,2.21,2.31c.69-.61,1.25-1.16,1.87-1.64a31.86,31.86,0,0,1,3.2-2.37c1.22-.74,1.68-.56,2.62.59.75.93.77,1.31-.18,2.39-1.17,1.34-2.4,2.62-3.63,3.91-.37.39-.45.71-.08,1.14.76.87,1.5,1.76,2.19,2.58,1.86-1.14,3.6-2.28,5.41-3.3,1.2-.66,1.55-.41,2.6.93a1.35,1.35,0,0,1-.27,2.16c-.83.72-1.61,1.49-2.44,2.2s-1.58,1.27-2.4,1.92c.43.68.81,1.29,1.2,1.88,1.13,1.71,1.12,1.67,3,.76,1.46-.73,3-1.4,4.48-2a1.41,1.41,0,0,1,1.24.32c1.18,1.36,1.16,2.25-.22,3.37s-2.71,1.85-4,2.81c-.27.19-.61.71-.53.9.54,1.2,1.18,2.35,1.81,3.55.91-.43,1.62-.84,2.39-1.11,1.32-.46,2.65-.88,4-1.21a1.35,1.35,0,0,1,1.14.39c1.22,1.52,1.1,2.37-.5,3.46-.82.55-1.71,1-2.58,1.47-.51.28-1,.53-1.55.78a1.11,1.11,0,0,0-.6,1.54c.37,1,.76,2,1.16,3,1.73-.51,3.35-1,5-1.45,2.14-.57,2.71-.21,3.4,1.89.2.62.13,1.06-.49,1.34-1.26.59-2.5,1.27-3.8,1.75-3.13,1.14-2.72.61-1.84,3.84a1.18,1.18,0,0,0,1.44,1c1.63-.17,3.27-.28,4.91-.41,1.89-.15,1.84-.13,2.28,1.75.21.91,0,1.46-.89,1.72-1.6.48-3.19,1-4.8,1.42-1.3.35-1.44.47-1.33,1.83.06.64.19,1.28.23,1.93s.31.85,1,.83c2-.06,4,0,6.06,0a1.2,1.2,0,0,1,.93.39c1,1.9.56,2.9-1.51,3.45l-.1,0c-1.31.21-2.62.45-3.94.61s-1.74.45-1.61,1.88c.09,1,.29,1.93.45,2.93,1.05,0,2,0,2.89,0s1.91.08,2.87.17c1.42.14,1.82.53,1.82,1.68,0,1.68-.42,2.28-1.86,2.38-1.9.14-3.81.2-5.78.3-.07,1.1-.09,2.2-.22,3.28-.11.92.3,1.14,1.12,1.26,1.76.24,3.5.58,5.25.92a1.3,1.3,0,0,1,1.11,1.56c-.09,1.87-.46,2.32-2.32,2.32-1.09,0-2.18,0-3.28-.09-.77,0-1.54-.09-2.31-.14-.12.46-.22.78-.28,1.12s-.12.95-.18,1.42c-.19,1.62,0,1.8,1.53,2.18a40.7,40.7,0,0,1,4.22,1.21,2,2,0,0,1,1.13,1.16c.44,1.75-.32,2.67-2.11,2.76a5.61,5.61,0,0,1-1.23-.07c-1.24-.21-2.48-.44-3.72-.67-.66-.13-1.13,0-1.29.75a18,18,0,0,1-.59,2.18c-.3.87,0,1.25.86,1.55a42,42,0,0,1,4.83,2c1.23.59,1.23.8.8,2.22s-.71,1.61-2,1.43a31.15,31.15,0,0,1-4.17-1c-2-.6-2-.65-2.81,1.31s-.73,2.2,1.17,3.15c1.31.67,2.62,1.33,3.9,2a1.32,1.32,0,0,1,.53,1.86c-.33.76-.45,1.83-1.65,1.57a26.4,26.4,0,0,1-4.31-1.18c-2.28-.9-2.25-1-3.38,1.22-.88,1.74-.87,1.71.78,2.77s3.27,2.19,4.93,3.31l-.79,1.37c-1,1.66-1.18,1.76-2.92.95s-3.43-1.66-5.23-2.54c-.77,1.23-1.51,2.44-2.25,3.62,1.61,1.34,3.14,2.54,4.59,3.83,1.07,1,1.07,1.69.19,2.86s-1.38,1.14-2.65.45c-.27-.14-.53-.31-.79-.48l-4.06-2.7L161.81,151c.54.57,1.05,1.08,1.53,1.61,1,1.14,2.11,2.25,3.07,3.44a1.6,1.6,0,0,1,.22,1.38c-.84,1.74-1.8,2-3.41.91-.2-.13-.4-.26-.59-.41l-4.12-3.29-2.69,3.24,4.54,5.88c-2.08,2.59-2.9,2.64-5,.54-.81-.79-1.54-1.66-2.41-2.37a1.62,1.62,0,0,0-1.43-.28,28.19,28.19,0,0,0-2.77,2,43,43,0,0,1,2.68,4.07c1.49,2.91,1.49,2.92-1.32,4.6-.05,0-.13,0-.34,0l-4.89-5.65c-.91.59-1.82,1.19-2.74,1.76-.62.38-.68.81-.33,1.45.77,1.4,1.55,2.81,2.19,4.28.76,1.77.55,2.11-1.16,2.91a1.36,1.36,0,0,1-1.83-.34c-.67-.82-1.33-1.65-1.94-2.51-.48-.66-.83-1.42-1.34-2.06a1.16,1.16,0,0,0-1-.31c-1.11.41-2.17.95-3.33,1.47.26.61.48,1.1.66,1.61.56,1.54,1.15,3.07,1.61,4.64a1.65,1.65,0,0,1-.29,1.37c-1.28,1.25-2.46,1.11-3.46-.37a24.11,24.11,0,0,1-1.59-2.74c-.42-.81-.73-1.67-1.12-2.58-1.19.47-2.31.88-3.38,1.39a1.06,1.06,0,0,0-.41.92c.36,1.67.85,3.31,1.2,5,.31,1.51-.1,2.11-1.56,2.64-1.14.4-1.55.27-2.27-1.2a45.54,45.54,0,0,1-1.77-4.35c-.33-.92-.76-1.2-1.75-.89-3,.94-2.89.35-2.33,3.68a21.51,21.51,0,0,1,.36,3.66c0,1.11-.69,1.52-2.35,1.82-.94.17-1.13-.58-1.32-1.12-.56-1.57-1-3.18-1.48-4.78-.32-1.1-.62-1.34-1.76-1.19-.94.12-1.88.27-2.87.42,0,.32,0,.58,0,.84.07,1.85.2,3.69.18,5.54A1.89,1.89,0,0,1,107,189c-1.62.88-2.72.35-3.27-1.41a6.8,6.8,0,0,1-.24-1c-.23-1.51-.45-3-.69-4.7H99.61c-.88,0-1.29.44-1.31,1.33,0,1.47-.1,2.94-.17,4.41a2.31,2.31,0,0,1-1,2.1H95.07A1.85,1.85,0,0,1,94,188c-.08-1.88-.19-3.75-.29-5.74-.91-.09-1.86-.2-2.8-.27-1.66-.12-1.63-.11-1.89,1.56a48.82,48.82,0,0,1-.87,4.83c-.28,1.12-1,1.35-2.38,1.14-.93-.14-1.22-.76-1.23-1.61,0-.38-.08-.75-.08-1.13,0-1.73,0-3.47,0-5.27a25.52,25.52,0,0,1-2.82-.48c-1-.3-1.41,0-1.65,1a38.42,38.42,0,0,1-1.43,4.69c-.52,1.33-1.17,1.56-2.41,1.2-1.42-.41-1.69-.75-1.5-2.32s.52-3.16.81-4.73c.12-.64,0-1-.71-1.2a17.78,17.78,0,0,1-2.27-.64c-.81-.29-1.15,0-1.43.77-.6,1.63-1.24,3.26-2,4.84-.56,1.22-.85,1.21-2.53.79a1.39,1.39,0,0,1-1.14-1.84c.35-1.66.75-3.32,1.25-4.94.27-.86.11-1.32-.73-1.67-3.34-1.38-2.89-1.34-4.35,1.49a32.34,32.34,0,0,1-1.9,3.27c-.8,1.17-1.74.37-2.65.05a1.18,1.18,0,0,1-.73-1.66c.34-1.17.69-2.35,1.13-3.49,1.15-2.93,1.16-2.91-1.8-4.12A1.15,1.15,0,0,0,54,173c-.94,1.51-2,3-3,4.4a1.42,1.42,0,0,1-.88.58,2.13,2.13,0,0,1-2.28-2.9c.41-1.05.92-2.06,1.43-3.06.4-.78.88-1.52,1.38-2.36-.91-.58-1.77-1.14-2.64-1.67-.34-.22-.7-.4-1.12-.62-.32.4-.6.78-.91,1.14-1.14,1.31-2.27,2.63-3.46,3.89a1.43,1.43,0,0,1-1.18.4,2.16,2.16,0,0,1-1.43-3.46c.82-1.38,1.74-2.7,2.64-4,.31-.47.37-.82-.12-1.21-.89-.7-1.74-1.43-2.57-2.12a1.35,1.35,0,0,0-.27.09c-1.07,1-2.12,2-3.21,3-2.57,2.35-1.92,2.57-4.89-.09a3.25,3.25,0,0,1-.13-.35c1.28-1.62,2.63-3.37,4-5.07.47-.57.63-1,.07-1.57-.82-.82-1.6-1.67-2.32-2.43l-6.27,4.88c-.47-.51-.8-.85-1.11-1.21-1.17-1.34-1.2-1.63,0-2.94,1-1.1,2.07-2.09,3-3.22.32-.37.62-1.15.44-1.48a23.79,23.79,0,0,0-2-2.76c-2,1.2-3.85,2.31-5.7,3.4a1.3,1.3,0,0,1-1.93-.42c-1.25-1.67-1.29-1.67.21-3.15.27-.26.55-.52.83-.76l3.55-3c-.5-.73-1-1.45-1.45-2.14-1-1.38-1-1.35-2.49-.57s-2.82,1.39-4.26,2a1.31,1.31,0,0,1-1.89-.63c-.82-1.55-.9-1.83,0-2.61a26.67,26.67,0,0,1,2.6-2c.86-.6,1.77-1.13,2.75-1.74l-2.1-3.9-2,1c-.66.29-1.31.6-2,.83-3.06,1.06-3.23,1-4.56-1.9a2.26,2.26,0,0,1,0-.4c1.43-.85,2.91-1.84,4.48-2.63,2.2-1.09,2.26-1.11,1.37-3.43a1.72,1.72,0,0,1-.11-.29c-.29-1-.84-1.3-1.91-1-1.6.49-3.24.82-4.88,1.17a1.49,1.49,0,0,1-1.94-1.32,4.42,4.42,0,0,0-.22-.79.94.94,0,0,1,.58-1.38c1.6-.68,3.18-1.42,4.8-2,1.43-.56,1.48-.52,1.07-2-.82-3-.25-2.66-3.44-2.26a34.62,34.62,0,0,1-4.07.27c-1.34,0-1.29-1.2-1.55-2.07s.36-1.17.92-1.37c1.51-.53,3-1,4.58-1.43s1.65-.36,1.47-2a6.41,6.41,0,0,1-.13-1.22c.13-1.24-.58-1.4-1.56-1.38-1.82,0-3.63,0-5.44,0-.71,0-1.1-.24-1.1-1a4.55,4.55,0,0,0-.13-.81c-.17-1,.1-1.63,1.12-1.83,1.74-.34,3.47-.71,5.22-1,.76-.12,1.11-.41,1-1.18s-.19-1.77-.21-2.66c0-.72-.35-.9-1-.9-1.67,0-3.35-.12-5-.18A1.67,1.67,0,0,1,1,97.14Zm53,62.75a19,19,0,0,0,1.86,1.36Q58.4,162.66,61,164a69.45,69.45,0,0,0,30.37,7.92,106,106,0,0,0,13.22-.31,65.93,65.93,0,0,0,18.6-4.73c3.84-1.58,7.57-3.46,11.32-5.27,1.38-.67,1.56-1.37.85-2.75a15.62,15.62,0,0,0-1.47-2.34c-4.05-5.26-8.09-10.52-12.21-15.72-3.76-4.75-7.61-9.42-11.4-14.14a1.08,1.08,0,0,0-1.41-.42c-.86.33-1.75.58-2.62.88a33.58,33.58,0,0,1-13.82,1.74A37.91,37.91,0,0,1,82,126.22a1.22,1.22,0,0,0-1.6.36c-.79,1-1.65,1.84-2.41,2.8q-9.23,11.69-18.41,23.39C57.74,155.1,55.92,157.45,54,159.89ZM71,119a4,4,0,0,0-.2-.43c-.39-.52-.78-1-1.18-1.55a33.75,33.75,0,0,1-7-14.32,69.38,69.38,0,0,1-.73-10.61,1.53,1.53,0,0,0-1.19-1.66Q54,88,47.28,85.59q-12.51-4.52-25-9c-.91-.34-1.29-.13-1.49.8A83.51,83.51,0,0,0,18.7,91.94a77.68,77.68,0,0,0,4.51,29.6,70.69,70.69,0,0,0,11.63,21c2.93,3.59,6.31,6.82,9.52,10.19.62.66,1.37,1.21,2.24,2Zm19.89-100A76.27,76.27,0,0,0,45.52,37.25,77.24,77.24,0,0,0,23.9,67.48c.44.17.63.25.82.3L62.39,78.66c3.27,1,3.27,1,5.16-1.9A32.62,32.62,0,0,1,76.24,68a36.6,36.6,0,0,1,12.23-5.33,1,1,0,0,0,.86-1.11c.09-3.18.23-6.36.34-9.54q.43-12.21.86-24.41C90.63,24.81,90.75,22,90.87,18.94Zm53.3,135.62c.45-.35.81-.6,1.13-.89,7.56-7.18,14.29-15,18.85-24.48a75.57,75.57,0,0,0,7.48-27.7,83.89,83.89,0,0,0,0-12.28c-.3-3.9-1.14-7.76-1.82-11.62-.22-1.22-.43-1.3-1.62-.88q-19.42,6.95-38.83,13.93a1.21,1.21,0,0,0-.56.89c-.06,1.36,0,2.73,0,4.1a33,33,0,0,1-4.5,16.61c-1.22,2-2.61,3.93-3.94,5.87a1.36,1.36,0,0,0,0,1.76q10.5,15.3,21,30.63C142.21,151.85,143.18,153.17,144.17,154.56ZM99.69,19c0,.19,0,.39,0,.59.23,5.3.5,10.59.7,15.89.31,8.27.57,16.54.85,24.82.08,2.14.09,2.14,2.2,2.7A33.65,33.65,0,0,1,121,74c1.23,1.46,2.29,3.07,3.41,4.62a1.51,1.51,0,0,0,1.92.62c4.18-1.27,8.39-2.43,12.58-3.68q13.14-3.9,26.28-7.85c.47-.14.92-.36,1.38-.54A76.85,76.85,0,0,0,99.69,19Z"/></g></g></svg>