<svg xmlns="http://www.w3.org/2000/svg" viewBox="0 0 286.85 297.96"><defs><style>.cls-1{fill:none;stroke:#f94b1c;stroke-miterlimit:10;stroke-width:3px;}</style></defs><g id="Слой_2" data-name="Слой 2"><g id="Layer_1" data-name="Layer 1"><path class="cls-1" d="M80.61,296.46a155.26,155.26,0,0,1-35.86-28.09A85.31,85.31,0,0,1,39,261.92a7.8,7.8,0,0,0-6.09-3.15C16.68,257.57,4.84,247.11,2,231.58a30.13,30.13,0,0,1-.43-5.45c0-26.78-.11-53.56,0-80.34.08-16.4,11.18-29.36,27.33-32.21a43.15,43.15,0,0,1,7.46-.44q30.09,0,60.19,0h3.76v-3.66c0-24.67-.07-49.34,0-74,.06-14.28,6.44-24.83,19.42-31,2.89-1.38,6.16-2,9.25-2.93h127.9c2.29.64,4.62,1.15,6.84,2a32.5,32.5,0,0,1,21.52,30.17c.14,9.6.05,19.21,0,28.81,0,3.22-1.57,5.15-4.09,5.24s-4.49-1.94-4.51-5.2c-.06-8.93,0-17.86,0-26.79,0-15.49-10.12-25.53-25.63-25.54H134.65c-15.44,0-25.68,10.2-25.69,25.57q0,38.46,0,76.91c0,15.74,10.24,26,25.92,26h68.27c8.32,0,12.37,5,10,12.88-2.37,8.07-5.23,16-7.84,23.85a8.91,8.91,0,0,0,1.39-.68,150.68,150.68,0,0,0,34.64-30.09,15.51,15.51,0,0,1,12.15-6,23.66,23.66,0,0,0,23-23.08c.24-10,.07-20,.11-29.95a10.77,10.77,0,0,1,.37-3.41,3.9,3.9,0,0,1,4.47-2.8,3.8,3.8,0,0,1,3.65,3.46,32.72,32.72,0,0,1,.13,4.32c0,9.12.06,18.24,0,27.36a32.54,32.54,0,0,1-31.84,32.76c-2.51.09-4,1.33-5.52,3.08a165,165,0,0,1-38.34,32.83c-2.7,1.7-5.47,2.32-8.47,1.11-4.91-2-6.56-7-4.49-12.22,2.85-7.21,5.4-14.53,8-21.82a20.14,20.14,0,0,0,.59-2.72H186.51v3.49c0,24.86,0,49.73,0,74.6,0,16.05-10.52,29.13-26.06,32.54a30.86,30.86,0,0,1-6.27.74c-7.68.09-15.37.07-23,0-3.31,0-5.34-1.74-5.33-4.36s1.93-4.22,5.35-4.25c8.25-.08,16.54.34,24.75-.32,12.46-1,21.69-10.55,21.85-23,.33-26.21.1-52.42.09-78.63a5.76,5.76,0,0,0-.22-.9c-.9,0-1.91-.13-2.91-.13H135.23c-16.77,0-28-7.91-33.51-23.67A2.34,2.34,0,0,0,99,121.74c-21.89.05-43.78-.1-65.67.13a23.19,23.19,0,0,0-23.09,22.94q-.34,41.19,0,82.38c.1,11.77,9.2,21.26,20.89,22.74a30.22,30.22,0,0,0,3.15.29A13.62,13.62,0,0,1,45,255.64a154.57,154.57,0,0,0,35.27,30.69c.48.3,1,.58,2,1.18-.47-1.25-.76-2-1-2.73-2.59-7.41-5.44-14.74-7.69-22.25-2.12-7.11,2-12.24,9.33-12.29,8.64-.05,17.29,0,25.93,0,3.56,0,5.33,1.42,5.4,4.15s-1.82,4.46-5.46,4.47c-7.78,0-15.55,0-23.33,0H81.58a30.21,30.21,0,0,0,.82,3.86c2.28,6.4,4.39,12.88,7,19.14,3,7.27,2.06,10.89-4.77,14.59Z"/><path class="cls-1" d="M149.05,44.74a7.05,7.05,0,0,1,6.25,4,73.85,73.85,0,0,1,3.64,7.49c.87,2.32,2.38,3.15,4.68,3.37,2.76.27,5.5.78,8.25,1.18a6.65,6.65,0,0,1,5.66,4.68,6.39,6.39,0,0,1-1.6,6.9c-2.18,2.29-4.39,4.57-6.78,6.64a3.92,3.92,0,0,0-1.31,4.31c.55,2.52.93,5.09,1.39,7.63.55,3.12.24,6-2.55,8s-5.53,1.56-8.37,0c-3-1.65-6.13-4.34-9.21-4.35s-6.18,2.68-9.21,4.32c-2.82,1.53-5.62,2.08-8.38.1s-3.45-4.7-2.62-7.91a13.38,13.38,0,0,1,.24-1.7c2.44-6.28.86-11.21-4.79-14.9a14.28,14.28,0,0,1-2.26-2.21,6.58,6.58,0,0,1-1.48-6.95A6.38,6.38,0,0,1,126,60.84c3.12-.49,6.3-.74,9.37-1.44a5.52,5.52,0,0,0,3.17-2.28c1.61-2.71,2.84-5.65,4.28-8.46A6.88,6.88,0,0,1,149.05,44.74Zm-10.74,45.2c2.16-1.12,4.24-2.06,6.17-3.24a8.23,8.23,0,0,1,9.2,0c2,1.17,4.09,2.12,6.14,3.17l.88-.15c-4-8.83-1.55-15.57,6.64-20.41-4.52-1.14-9-1.16-11.86-3.28S151,59.65,149,56.51c-2,3.17-3.4,7.37-6.31,9.47s-7.41,2.21-11,3.14c2.43,3,6,5.62,7.07,9.06S138.57,85.77,138.31,89.94Z"/><path class="cls-1" d="M21.7,181.43a14.82,14.82,0,0,1,22.15-12.67,3.11,3.11,0,0,0,3.57.05,14.86,14.86,0,0,1,17.63,23.65c-4.9,4.87-9.92,9.61-15,14.34-3.09,2.9-5.78,2.89-8.84,0q-7.55-7.11-15-14.31A14.15,14.15,0,0,1,21.7,181.43Zm24,17.67c4.65-4.45,9.27-8.61,13.58-13.07,3.38-3.51,1.8-9.31-2.84-10.19a8.83,8.83,0,0,0-6,1.52c-4,2.79-5.45,3-9.37-.1a10,10,0,0,0-.92-.69,6.27,6.27,0,0,0-8.32,1.12,6.18,6.18,0,0,0,.15,8.16C36.34,190.32,41,194.61,45.65,199.1Z"/><path class="cls-1" d="M119.84,192.8H90.18c-3.57,0-5.57-1.6-5.53-4.35s2-4.27,5.4-4.27q30,0,59.91,0c3.33,0,5.37,1.69,5.41,4.31s-2,4.32-5.57,4.32Z"/><path class="cls-1" d="M120,174.9c-10.08,0-20.16,0-30.24,0-4,0-6.39-3.19-4.52-6.13a5.8,5.8,0,0,1,4.12-2.39c20.45-.15,40.9-.12,61.35-.09,2.84,0,4.76,1.91,4.69,4.37s-2,4.22-4.87,4.24C140.33,174.93,130.16,174.9,120,174.9Z"/><path class="cls-1" d="M119.73,210.76q-14.83,0-29.66,0c-3.52,0-5.35-1.45-5.41-4.16s1.89-4.44,5.51-4.45q29.81,0,59.61,0c3.8,0,6.09,2.08,5.53,5-.53,2.72-2.42,3.67-5.06,3.66-10.17,0-20.35,0-30.52,0Z"/><path class="cls-1" d="M224.72,34.32c10.08,0,20.16,0,30.24,0,3.19,0,5,1.56,5.13,4.18s-1.91,4.4-4.95,4.42c-5.95.06-11.9,0-17.85,0Q216.13,43,195,43c-3.25,0-5.08-1.22-5.47-3.52-.5-3,1.49-5.09,5-5.1C204.57,34.3,214.65,34.32,224.72,34.32Z"/><path class="cls-1" d="M224.7,60.88c-10.08,0-20.15,0-30.23,0-3.41,0-5.32-1.94-5-4.84.27-2.42,2.07-3.76,5.22-3.77q15,0,30,0,15.12,0,30.23,0c2.45,0,4.36.77,5,3.33.77,2.92-1.27,5.28-4.7,5.3-9.5,0-19,0-28.5,0Z"/><path class="cls-1" d="M224.9,78.79c-10.27,0-20.53,0-30.8,0-2.18,0-4-.83-4.35-2.91a7.05,7.05,0,0,1,1.35-4.59c.55-.79,2.22-1.09,3.39-1.09q30.22-.1,60.46,0c3.28,0,5.24,1.88,5.11,4.56s-1.94,4.05-5.22,4.06c-10,0-20,0-29.94,0Z"/><path class="cls-1" d="M224.6,96.81q-14.82,0-29.64,0c-2.11,0-4.06-.25-5.12-2.42a4.17,4.17,0,0,1,2.68-5.93,14,14,0,0,1,3.43-.29q28.78,0,57.56,0c.58,0,1.16,0,1.73,0,3,.2,4.81,1.82,4.85,4.26s-1.86,4.34-5,4.35C244.94,96.83,234.77,96.81,224.6,96.81Z"/><path class="cls-1" d="M104.5,228.8c-4.89,0-9.77,0-14.65,0-3.35,0-5.27-1.74-5.19-4.42s1.87-4.16,5.13-4.17q14.65-.07,29.3,0c3.28,0,5.31,1.81,5.22,4.41s-2,4.15-5.16,4.18C114.26,228.84,109.38,228.8,104.5,228.8Z"/><path class="cls-1" d="M209.1,114.85c-4.71,0-9.41,0-14.12,0-3.66,0-5.53-1.54-5.52-4.4s1.76-4.21,5.33-4.22c9.69,0,19.39,0,29.09,0,2.05,0,3.83.45,4.75,2.51,1.37,3.07-.76,6-4.55,6.11C219.09,114.93,214.09,114.85,209.1,114.85Z"/><path class="cls-1" d="M97.65,148.34c2.78,0,5.56-.06,8.33,0s4.5,1.8,4.52,4.18a4.26,4.26,0,0,1-4.39,4.38c-5.65.12-11.31.11-17,0a4.29,4.29,0,0,1-4.51-4.53c.11-2.37,1.93-4,4.66-4S94.87,148.34,97.65,148.34Z"/></g></g></svg>