<svg xmlns="http://www.w3.org/2000/svg" xmlns:xlink="http://www.w3.org/1999/xlink" viewBox="0 0 953.43 421.07"><defs><style>.cls-1{fill:#fec601;}.cls-2{fill:url(#linear-gradient);}</style><linearGradient id="linear-gradient" x1="73.46" y1="137.08" x2="1026.89" y2="137.08" gradientTransform="translate(-73.46 73.46)" gradientUnits="userSpaceOnUse"><stop offset="0"/><stop offset="0.3" stop-color="#020100"/><stop offset="0.44" stop-color="#0a0202"/><stop offset="0.55" stop-color="#170504"/><stop offset="0.65" stop-color="#2a0a07"/><stop offset="0.74" stop-color="#42100c"/><stop offset="0.81" stop-color="#601711"/><stop offset="0.89" stop-color="#831f17"/><stop offset="0.95" stop-color="#ab291e"/><stop offset="1" stop-color="#cd3124"/></linearGradient></defs><g id="Слой_2" data-name="Слой 2"><g id="Layer_1" data-name="Layer 1"><path class="cls-1" d="M779.32,29a13.3,13.3,0,0,1-9.62-3.58,11.9,11.9,0,0,1-3.72-9,15.74,15.74,0,0,1,1.26-6.15,17.51,17.51,0,0,1,3.41-5.27,16.11,16.11,0,0,1,5.29-3.65A16.42,16.42,0,0,1,782.63,0a13.29,13.29,0,0,1,9.62,3.57,11.93,11.93,0,0,1,3.72,9,15.66,15.66,0,0,1-1.26,6.14A17.4,17.4,0,0,1,791.29,24,16.22,16.22,0,0,1,786,27.65,16.42,16.42,0,0,1,779.32,29Zm.68-7a7.18,7.18,0,0,0,5.79-2.78,9.46,9.46,0,0,0,2.27-6.12,6.27,6.27,0,0,0-1.62-4.48A5.86,5.86,0,0,0,782,7a7.18,7.18,0,0,0-5.77,2.79,9.41,9.41,0,0,0-2.29,6.11,6.27,6.27,0,0,0,1.61,4.47A5.87,5.87,0,0,0,780,22.08Z"/><path class="cls-1" d="M799.6,28.51l5.71-21.16h-8.39L798.76.56h24.47l-1.79,6.79h-8.39l-5.67,21.16Z"/><path class="cls-1" d="M829.58,29.07q-7.86,0-11.46-5.31l5.15-4.48a8.12,8.12,0,0,0,6.39,3.24,5,5,0,0,0,3.12-.9,2.61,2.61,0,0,0,1.15-2.1c0-1.46-1.15-2.19-3.47-2.19h-2.87l1.55-5.83h2.72a6,6,0,0,0,3.19-.74,2.3,2.3,0,0,0,1.2-2.06,1.82,1.82,0,0,0-.82-1.55,3.3,3.3,0,0,0-2-.6q-2.88,0-6.15,2.71l-4-4.87A15.42,15.42,0,0,1,834.37,0a10.88,10.88,0,0,1,7,2.12A6.38,6.38,0,0,1,844,7.23q0,5.55-6.51,7.34,4.15,1.52,4.15,5.63a7.6,7.6,0,0,1-3.41,6.37A14.38,14.38,0,0,1,829.58,29.07Z"/><path class="cls-1" d="M843.44,28.51,850.9.56h7.75l-2.36,8.78h3.48a11.38,11.38,0,0,1,7.46,2.26A7.07,7.07,0,0,1,870,17.33a9.9,9.9,0,0,1-3.74,8.22,15.06,15.06,0,0,1-9.64,3ZM852.9,22h4a6.58,6.58,0,0,0,3.65-.94A3.18,3.18,0,0,0,862,18.17a2.46,2.46,0,0,0-.94-2,3.84,3.84,0,0,0-2.57-.8H854.7Zm17.41,6.51L877.77.56h7.75l-7.47,28Z"/><path class="cls-1" d="M882.84,28.51,890.35.56H902c3.56,0,6.14.62,7.72,1.88a5.87,5.87,0,0,1,2.38,4.83,6.61,6.61,0,0,1-1.66,4.55,8.67,8.67,0,0,1-4.61,2.59c2.82,1,4.23,2.88,4.23,5.59a7.28,7.28,0,0,1-3.23,6.15q-3.24,2.36-9.46,2.36Zm9.23-6.23h5.87a5.33,5.33,0,0,0,3.15-.82,2.52,2.52,0,0,0,1.16-2.14c0-1.46-1.15-2.19-3.44-2.19h-5.35Zm2.87-10.58h5.23a5.42,5.42,0,0,0,3.13-.76,2.39,2.39,0,0,0,1.1-2.08c0-1.38-1.12-2.07-3.35-2.07h-4.83Z"/><path class="cls-1" d="M911.35,28.51,918.82.56h7.74l-2.35,8.78h3.47a11.42,11.42,0,0,1,7.47,2.26,7.09,7.09,0,0,1,2.75,5.73,9.89,9.89,0,0,1-3.73,8.22,15.08,15.08,0,0,1-9.64,3ZM920.81,22h4a6.59,6.59,0,0,0,3.66-.94A3.19,3.19,0,0,0,930,18.17a2.48,2.48,0,0,0-.93-2,3.88,3.88,0,0,0-2.58-.8h-3.83Zm17.41,6.51L945.69.56h7.74l-7.47,28Z"/><path class="cls-1" d="M524,29a13.3,13.3,0,0,1-9.62-3.58,11.9,11.9,0,0,1-3.72-9,15.74,15.74,0,0,1,1.26-6.15,17.35,17.35,0,0,1,3.42-5.27,16,16,0,0,1,5.29-3.65A16.34,16.34,0,0,1,527.3,0a13.33,13.33,0,0,1,9.63,3.57,12,12,0,0,1,3.71,9,15.66,15.66,0,0,1-1.26,6.14A17.56,17.56,0,0,1,536,24a16.66,16.66,0,0,1-12,5Zm.68-7a7.18,7.18,0,0,0,5.79-2.78,9.41,9.41,0,0,0,2.27-6.12,6.27,6.27,0,0,0-1.61-4.48A5.9,5.9,0,0,0,526.62,7a7.16,7.16,0,0,0-5.76,2.79,9.37,9.37,0,0,0-2.3,6.11,6.23,6.23,0,0,0,1.62,4.47A5.83,5.83,0,0,0,524.67,22.08Z"/><path class="cls-1" d="M544.27,28.51,550,7.35H541.6L543.43.56h24.48l-1.8,6.79h-8.38l-5.67,21.16Z"/><path class="cls-1" d="M574.26,29.07q-7.87,0-11.46-5.31L568,19.28a8.12,8.12,0,0,0,6.39,3.24,4.94,4.94,0,0,0,3.11-.9,2.63,2.63,0,0,0,1.16-2.1q0-2.19-3.48-2.19h-2.87l1.56-5.83h2.71a6,6,0,0,0,3.19-.74,2.3,2.3,0,0,0,1.2-2.06,1.82,1.82,0,0,0-.82-1.55,3.28,3.28,0,0,0-2-.6q-2.88,0-6.15,2.71l-4-4.87A15.4,15.4,0,0,1,579.05,0a10.87,10.87,0,0,1,7,2.12,6.35,6.35,0,0,1,2.62,5.11q0,5.55-6.51,7.34,4.15,1.52,4.15,5.63a7.6,7.6,0,0,1-3.41,6.37A14.37,14.37,0,0,1,574.26,29.07Z"/><path class="cls-1" d="M588.11,28.51,595.58.56h7.74L601,9.34h3.47a11.38,11.38,0,0,1,7.46,2.26,7.07,7.07,0,0,1,2.76,5.73,9.89,9.89,0,0,1-3.73,8.22,15.09,15.09,0,0,1-9.65,3ZM597.57,22h4a6.59,6.59,0,0,0,3.66-.94,3.19,3.19,0,0,0,1.45-2.89,2.48,2.48,0,0,0-.93-2,3.88,3.88,0,0,0-2.58-.8h-3.83ZM615,28.51,622.45.56h7.74l-7.47,28Z"/><path class="cls-1" d="M627.52,28.51,635,.56h11.62c3.57,0,6.14.62,7.73,1.88a5.88,5.88,0,0,1,2.37,4.83,6.61,6.61,0,0,1-1.66,4.55,8.67,8.67,0,0,1-4.61,2.59c2.82,1,4.24,2.88,4.24,5.59a7.27,7.27,0,0,1-3.24,6.15q-3.24,2.36-9.46,2.36Zm9.22-6.23h5.87a5.33,5.33,0,0,0,3.15-.82,2.52,2.52,0,0,0,1.16-2.14c0-1.46-1.15-2.19-3.43-2.19h-5.35Zm2.87-10.58h5.23a5.46,5.46,0,0,0,3.14-.76,2.41,2.41,0,0,0,1.1-2.08q0-2.07-3.36-2.07h-4.83Z"/><path class="cls-1" d="M656,28.51,663.49.56h7.74l-2.35,8.78h3.47a11.42,11.42,0,0,1,7.47,2.26,7.09,7.09,0,0,1,2.75,5.73,9.89,9.89,0,0,1-3.73,8.22,15.06,15.06,0,0,1-9.64,3ZM665.48,22h4a6.58,6.58,0,0,0,3.65-.94,3.2,3.2,0,0,0,1.46-2.89,2.49,2.49,0,0,0-.94-2,3.87,3.87,0,0,0-2.58-.8h-3.83Zm17.41,6.51L690.36.56h7.74l-7.46,28Z"/><path class="cls-1" d="M268.66,29A13.31,13.31,0,0,1,259,25.45a11.93,11.93,0,0,1-3.71-9,15.91,15.91,0,0,1,1.25-6.15A17.35,17.35,0,0,1,260,5.07a16.11,16.11,0,0,1,5.29-3.65A16.42,16.42,0,0,1,272,0a13.31,13.31,0,0,1,9.62,3.57,12,12,0,0,1,3.71,9,15.66,15.66,0,0,1-1.26,6.14A17.18,17.18,0,0,1,280.64,24a16.66,16.66,0,0,1-12,5Zm.68-7a7.18,7.18,0,0,0,5.79-2.78,9.42,9.42,0,0,0,2.28-6.12,6.27,6.27,0,0,0-1.62-4.48A5.89,5.89,0,0,0,271.3,7a7.16,7.16,0,0,0-5.77,2.79,9.42,9.42,0,0,0-2.3,6.11,6.23,6.23,0,0,0,1.62,4.47A5.85,5.85,0,0,0,269.34,22.08Z"/><path class="cls-1" d="M288.94,28.51l5.71-21.16h-8.38L288.11.56h24.47l-1.8,6.79H302.4l-5.67,21.16Z"/><path class="cls-1" d="M318.93,29.07q-7.87,0-11.46-5.31l5.15-4.48A8.12,8.12,0,0,0,319,22.52a4.94,4.94,0,0,0,3.11-.9,2.63,2.63,0,0,0,1.16-2.1c0-1.46-1.16-2.19-3.47-2.19h-2.88l1.56-5.83h2.71a6.09,6.09,0,0,0,3.2-.74,2.3,2.3,0,0,0,1.2-2.06,1.85,1.85,0,0,0-.82-1.55,3.33,3.33,0,0,0-2-.6q-2.88,0-6.15,2.71l-3.95-4.87A15.42,15.42,0,0,1,323.72,0a10.91,10.91,0,0,1,7,2.12,6.37,6.37,0,0,1,2.61,5.11q0,5.55-6.51,7.34Q331,16.09,331,20.2a7.58,7.58,0,0,1-3.42,6.37A14.35,14.35,0,0,1,318.93,29.07Z"/><path class="cls-1" d="M332.78,28.51,340.25.56H348l-2.35,8.78h3.47a11.42,11.42,0,0,1,7.47,2.26,7.09,7.09,0,0,1,2.75,5.73,9.89,9.89,0,0,1-3.73,8.22,15.06,15.06,0,0,1-9.64,3ZM342.24,22h4a6.58,6.58,0,0,0,3.65-.94,3.2,3.2,0,0,0,1.46-2.89,2.49,2.49,0,0,0-.94-2,3.88,3.88,0,0,0-2.58-.8H344Zm17.41,6.51L367.12.56h7.74l-7.46,28Z"/><path class="cls-1" d="M372.19,28.51,379.69.56h11.62c3.57,0,6.14.62,7.73,1.88a5.88,5.88,0,0,1,2.37,4.83,6.65,6.65,0,0,1-1.65,4.55,8.71,8.71,0,0,1-4.61,2.59c2.82,1,4.23,2.88,4.23,5.59a7.27,7.27,0,0,1-3.24,6.15c-2.15,1.57-5.31,2.36-9.46,2.36Zm9.22-6.23h5.87a5.33,5.33,0,0,0,3.15-.82,2.5,2.5,0,0,0,1.16-2.14c0-1.46-1.14-2.19-3.43-2.19h-5.35Zm2.88-10.58h5.23a5.44,5.44,0,0,0,3.13-.76,2.41,2.41,0,0,0,1.1-2.08q0-2.07-3.36-2.07h-4.83Z"/><path class="cls-1" d="M400.69,28.51,408.16.56h7.75l-2.36,8.78H417a11.42,11.42,0,0,1,7.47,2.26,7.07,7.07,0,0,1,2.76,5.73,9.9,9.9,0,0,1-3.74,8.22,15.06,15.06,0,0,1-9.64,3ZM410.16,22h4a6.58,6.58,0,0,0,3.65-.94,3.2,3.2,0,0,0,1.46-2.89,2.46,2.46,0,0,0-.94-2,3.84,3.84,0,0,0-2.57-.8H412Zm17.4,6.51L435,.56h7.75l-7.47,28Z"/><path class="cls-1" d="M13.34,29a13.34,13.34,0,0,1-9.63-3.58,11.93,11.93,0,0,1-3.71-9,15.74,15.74,0,0,1,1.26-6.15A17.32,17.32,0,0,1,4.67,5.07,16.11,16.11,0,0,1,10,1.42,16.42,16.42,0,0,1,16.65,0a13.29,13.29,0,0,1,9.62,3.57,11.92,11.92,0,0,1,3.71,9,15.82,15.82,0,0,1-1.25,6.14A17.4,17.4,0,0,1,25.31,24,16.15,16.15,0,0,1,20,27.65,16.41,16.41,0,0,1,13.34,29Zm.67-7A7.15,7.15,0,0,0,19.8,19.3a9.42,9.42,0,0,0,2.28-6.12A6.27,6.27,0,0,0,20.46,8.7,5.88,5.88,0,0,0,16,7,7.16,7.16,0,0,0,10.2,9.78a9.41,9.41,0,0,0-2.29,6.11,6.23,6.23,0,0,0,1.61,4.47A5.86,5.86,0,0,0,14,22.08Z"/><path class="cls-1" d="M33.62,28.51,39.33,7.35H30.94L32.78.56H57.25L55.46,7.35H47.07L41.4,28.51Z"/><path class="cls-1" d="M63.6,29.07q-7.86,0-11.46-5.31l5.15-4.48a8.12,8.12,0,0,0,6.39,3.24,4.94,4.94,0,0,0,3.11-.9A2.6,2.6,0,0,0,68,19.52c0-1.46-1.16-2.19-3.47-2.19H61.6l1.56-5.83h2.72a6,6,0,0,0,3.19-.74,2.3,2.3,0,0,0,1.2-2.06,1.85,1.85,0,0,0-.82-1.55,3.33,3.33,0,0,0-2-.6q-2.87,0-6.15,2.71l-4-4.87A15.42,15.42,0,0,1,68.39,0a10.89,10.89,0,0,1,7,2.12,6.37,6.37,0,0,1,2.61,5.11q0,5.55-6.5,7.34c2.76,1,4.15,2.89,4.15,5.63a7.58,7.58,0,0,1-3.42,6.37A14.35,14.35,0,0,1,63.6,29.07Z"/><path class="cls-1" d="M77.45,28.51,84.92.56h7.75L90.31,9.34h3.47a11.42,11.42,0,0,1,7.47,2.26A7.07,7.07,0,0,1,104,17.33a9.9,9.9,0,0,1-3.74,8.22,15.06,15.06,0,0,1-9.64,3ZM86.92,22h4a6.58,6.58,0,0,0,3.65-.94,3.2,3.2,0,0,0,1.46-2.89,2.46,2.46,0,0,0-.94-2,3.84,3.84,0,0,0-2.57-.8H88.71Zm17.4,6.51L111.79.56h7.75l-7.47,28Z"/><path class="cls-1" d="M116.86,28.51,124.37.56H136c3.56,0,6.14.62,7.72,1.88a5.89,5.89,0,0,1,2.38,4.83,6.66,6.66,0,0,1-1.66,4.55,8.71,8.71,0,0,1-4.61,2.59c2.82,1,4.23,2.88,4.23,5.59a7.28,7.28,0,0,1-3.23,6.15c-2.16,1.57-5.31,2.36-9.47,2.36Zm9.22-6.23H132a5.36,5.36,0,0,0,3.16-.82,2.52,2.52,0,0,0,1.16-2.14c0-1.46-1.15-2.19-3.44-2.19h-5.35ZM129,11.7h5.23a5.42,5.42,0,0,0,3.13-.76,2.41,2.41,0,0,0,1.1-2.08c0-1.38-1.12-2.07-3.35-2.07h-4.83Z"/><path class="cls-1" d="M145.37,28.51,152.83.56h7.75l-2.36,8.78h3.48a11.38,11.38,0,0,1,7.46,2.26,7.07,7.07,0,0,1,2.76,5.73,9.9,9.9,0,0,1-3.74,8.22,15,15,0,0,1-9.64,3ZM154.83,22h4a6.61,6.61,0,0,0,3.66-.94A3.19,3.19,0,0,0,164,18.17a2.46,2.46,0,0,0-.94-2,3.84,3.84,0,0,0-2.57-.8h-3.83Zm17.41,6.51L179.7.56h7.75l-7.47,28Z"/><path class="cls-1" d="M779.32,127a13.26,13.26,0,0,1-9.62-3.58,11.9,11.9,0,0,1-3.72-9,15.74,15.74,0,0,1,1.26-6.15,17.64,17.64,0,0,1,3.41-5.27,16.11,16.11,0,0,1,5.29-3.65A16.42,16.42,0,0,1,782.63,98a13.29,13.29,0,0,1,9.62,3.57,11.93,11.93,0,0,1,3.72,9,15.74,15.74,0,0,1-1.26,6.15,17.47,17.47,0,0,1-3.42,5.27,16.22,16.22,0,0,1-5.28,3.65A16.42,16.42,0,0,1,779.32,127Zm.68-7a7.17,7.17,0,0,0,5.79-2.77,9.49,9.49,0,0,0,2.27-6.13,6.23,6.23,0,0,0-1.62-4.47A5.83,5.83,0,0,0,782,105a7.18,7.18,0,0,0-5.77,2.79,9.43,9.43,0,0,0-2.29,6.11,6.27,6.27,0,0,0,1.61,4.47A5.87,5.87,0,0,0,780,120.08Z"/><path class="cls-1" d="M799.6,126.51l5.71-21.16h-8.39l1.84-6.79h24.47l-1.79,6.79h-8.39l-5.67,21.16Z"/><path class="cls-1" d="M829.58,127.07q-7.86,0-11.46-5.31l5.15-4.47a8.14,8.14,0,0,0,6.39,3.23,5,5,0,0,0,3.12-.9,2.61,2.61,0,0,0,1.15-2.09c0-1.47-1.15-2.2-3.47-2.2h-2.87l1.55-5.83h2.72a6,6,0,0,0,3.19-.74,2.3,2.3,0,0,0,1.2-2.05,1.84,1.84,0,0,0-.82-1.56,3.3,3.3,0,0,0-2-.6q-2.88,0-6.15,2.71l-4-4.87A15.46,15.46,0,0,1,834.37,98a10.88,10.88,0,0,1,7,2.12,6.38,6.38,0,0,1,2.62,5.11q0,5.55-6.51,7.34c2.77,1,4.15,2.89,4.15,5.63a7.58,7.58,0,0,1-3.41,6.37A14.31,14.31,0,0,1,829.58,127.07Z"/><path class="cls-1" d="M843.44,126.51l7.46-27.95h7.75l-2.36,8.78h3.48a11.43,11.43,0,0,1,7.46,2.26,7.07,7.07,0,0,1,2.76,5.73,9.9,9.9,0,0,1-3.74,8.22,15.06,15.06,0,0,1-9.64,3ZM852.9,120h4a6.58,6.58,0,0,0,3.65-.94,3.18,3.18,0,0,0,1.46-2.89,2.47,2.47,0,0,0-.94-2,3.84,3.84,0,0,0-2.57-.8H854.7Zm17.41,6.51,7.46-27.95h7.75l-7.47,28Z"/><path class="cls-1" d="M882.84,126.51l7.51-27.95H902c3.56,0,6.14.63,7.72,1.88a5.87,5.87,0,0,1,2.38,4.83,6.61,6.61,0,0,1-1.66,4.55,8.61,8.61,0,0,1-4.61,2.59Q910,113.94,910,118a7.28,7.28,0,0,1-3.23,6.15q-3.24,2.35-9.46,2.36Zm9.23-6.23h5.87a5.33,5.33,0,0,0,3.15-.82,2.51,2.51,0,0,0,1.16-2.13c0-1.47-1.15-2.2-3.44-2.2h-5.35Zm2.87-10.58h5.23a5.42,5.42,0,0,0,3.13-.76,2.37,2.37,0,0,0,1.1-2.08c0-1.38-1.12-2.07-3.35-2.07h-4.83Z"/><path class="cls-1" d="M911.35,126.51l7.47-27.95h7.74l-2.35,8.78h3.47a11.48,11.48,0,0,1,7.47,2.26,7.09,7.09,0,0,1,2.75,5.73,9.89,9.89,0,0,1-3.73,8.22,15.08,15.08,0,0,1-9.64,3Zm9.46-6.51h4a6.59,6.59,0,0,0,3.66-.94,3.19,3.19,0,0,0,1.45-2.89,2.49,2.49,0,0,0-.93-2,3.88,3.88,0,0,0-2.58-.8h-3.83Zm17.41,6.51,7.47-27.95h7.74l-7.47,28Z"/><path class="cls-1" d="M524,127a13.26,13.26,0,0,1-9.62-3.58,11.9,11.9,0,0,1-3.72-9,15.74,15.74,0,0,1,1.26-6.15,17.47,17.47,0,0,1,3.42-5.27,16,16,0,0,1,5.29-3.65A16.34,16.34,0,0,1,527.3,98a13.33,13.33,0,0,1,9.63,3.57,12,12,0,0,1,3.71,9,15.74,15.74,0,0,1-1.26,6.15A17.64,17.64,0,0,1,536,122a16.66,16.66,0,0,1-12,5Zm.68-7a7.17,7.17,0,0,0,5.79-2.77,9.43,9.43,0,0,0,2.27-6.13,6.23,6.23,0,0,0-1.61-4.47,5.87,5.87,0,0,0-4.5-1.72,7.16,7.16,0,0,0-5.76,2.79,9.39,9.39,0,0,0-2.3,6.11,6.23,6.23,0,0,0,1.62,4.47A5.83,5.83,0,0,0,524.67,120.08Z"/><path class="cls-1" d="M544.27,126.51,550,105.35H541.6l1.83-6.79h24.48l-1.8,6.79h-8.38l-5.67,21.16Z"/><path class="cls-1" d="M574.26,127.07q-7.87,0-11.46-5.31l5.15-4.47a8.14,8.14,0,0,0,6.39,3.23,4.94,4.94,0,0,0,3.11-.9,2.62,2.62,0,0,0,1.16-2.09c0-1.47-1.16-2.2-3.48-2.2h-2.87l1.56-5.83h2.71a6,6,0,0,0,3.19-.74,2.3,2.3,0,0,0,1.2-2.05,1.84,1.84,0,0,0-.82-1.56,3.28,3.28,0,0,0-2-.6q-2.88,0-6.15,2.71l-4-4.87A15.44,15.44,0,0,1,579.05,98a10.87,10.87,0,0,1,7,2.12,6.35,6.35,0,0,1,2.62,5.11q0,5.55-6.51,7.34c2.77,1,4.15,2.89,4.15,5.63a7.58,7.58,0,0,1-3.41,6.37A14.3,14.3,0,0,1,574.26,127.07Z"/><path class="cls-1" d="M588.11,126.51l7.47-27.95h7.74L601,107.34h3.47a11.43,11.43,0,0,1,7.46,2.26,7.07,7.07,0,0,1,2.76,5.73,9.89,9.89,0,0,1-3.73,8.22,15.09,15.09,0,0,1-9.65,3Zm9.46-6.51h4a6.59,6.59,0,0,0,3.66-.94,3.19,3.19,0,0,0,1.45-2.89,2.49,2.49,0,0,0-.93-2,3.88,3.88,0,0,0-2.58-.8h-3.83ZM615,126.51l7.47-27.95h7.74l-7.47,28Z"/><path class="cls-1" d="M627.52,126.51,635,98.56h11.62c3.57,0,6.14.63,7.73,1.88a5.88,5.88,0,0,1,2.37,4.83,6.61,6.61,0,0,1-1.66,4.55,8.61,8.61,0,0,1-4.61,2.59c2.82,1,4.24,2.88,4.24,5.59a7.27,7.27,0,0,1-3.24,6.15q-3.24,2.35-9.46,2.36Zm9.22-6.23h5.87a5.33,5.33,0,0,0,3.15-.82,2.51,2.51,0,0,0,1.16-2.13c0-1.47-1.15-2.2-3.43-2.2h-5.35Zm2.87-10.58h5.23a5.46,5.46,0,0,0,3.14-.76,2.4,2.4,0,0,0,1.1-2.08q0-2.07-3.36-2.07h-4.83Z"/><path class="cls-1" d="M656,126.51l7.47-27.95h7.74l-2.35,8.78h3.47a11.48,11.48,0,0,1,7.47,2.26,7.09,7.09,0,0,1,2.75,5.73,9.89,9.89,0,0,1-3.73,8.22,15.06,15.06,0,0,1-9.64,3Zm9.46-6.51h4a6.58,6.58,0,0,0,3.65-.94,3.2,3.2,0,0,0,1.46-2.89,2.5,2.5,0,0,0-.94-2,3.87,3.87,0,0,0-2.58-.8h-3.83Zm17.41,6.51,7.47-27.95h7.74l-7.46,28Z"/><path class="cls-1" d="M268.66,127a13.27,13.27,0,0,1-9.62-3.58,11.93,11.93,0,0,1-3.71-9,15.91,15.91,0,0,1,1.25-6.15,17.47,17.47,0,0,1,3.42-5.27,16.11,16.11,0,0,1,5.29-3.65A16.42,16.42,0,0,1,272,98a13.31,13.31,0,0,1,9.62,3.57,12,12,0,0,1,3.71,9,15.74,15.74,0,0,1-1.26,6.15,17.26,17.26,0,0,1-3.41,5.27,16.66,16.66,0,0,1-12,5Zm.68-7a7.17,7.17,0,0,0,5.79-2.77,9.45,9.45,0,0,0,2.28-6.13,6.23,6.23,0,0,0-1.62-4.47A5.86,5.86,0,0,0,271.3,105a7.16,7.16,0,0,0-5.77,2.79,9.44,9.44,0,0,0-2.3,6.11,6.23,6.23,0,0,0,1.62,4.47A5.85,5.85,0,0,0,269.34,120.08Z"/><path class="cls-1" d="M288.94,126.51l5.71-21.16h-8.38l1.84-6.79h24.47l-1.8,6.79H302.4l-5.67,21.16Z"/><path class="cls-1" d="M318.93,127.07q-7.87,0-11.46-5.31l5.15-4.47a8.14,8.14,0,0,0,6.39,3.23,4.94,4.94,0,0,0,3.11-.9,2.62,2.62,0,0,0,1.16-2.09c0-1.47-1.16-2.2-3.47-2.2h-2.88l1.56-5.83h2.71a6.09,6.09,0,0,0,3.2-.74,2.3,2.3,0,0,0,1.2-2.05,1.87,1.87,0,0,0-.82-1.56,3.33,3.33,0,0,0-2-.6q-2.88,0-6.15,2.71l-3.95-4.87A15.46,15.46,0,0,1,323.72,98a10.91,10.91,0,0,1,7,2.12,6.37,6.37,0,0,1,2.61,5.11q0,5.55-6.51,7.34c2.77,1,4.16,2.89,4.16,5.63a7.57,7.57,0,0,1-3.42,6.37A14.28,14.28,0,0,1,318.93,127.07Z"/><path class="cls-1" d="M332.78,126.51l7.47-27.95H348l-2.35,8.78h3.47a11.48,11.48,0,0,1,7.47,2.26,7.09,7.09,0,0,1,2.75,5.73,9.89,9.89,0,0,1-3.73,8.22,15.06,15.06,0,0,1-9.64,3Zm9.46-6.51h4a6.58,6.58,0,0,0,3.65-.94,3.2,3.2,0,0,0,1.46-2.89,2.5,2.5,0,0,0-.94-2,3.88,3.88,0,0,0-2.58-.8H344Zm17.41,6.51,7.47-27.95h7.74l-7.46,28Z"/><path class="cls-1" d="M372.19,126.51l7.5-27.95h11.62c3.57,0,6.14.63,7.73,1.88a5.88,5.88,0,0,1,2.37,4.83,6.65,6.65,0,0,1-1.65,4.55,8.65,8.65,0,0,1-4.61,2.59q4.23,1.53,4.23,5.59a7.27,7.27,0,0,1-3.24,6.15c-2.15,1.57-5.31,2.36-9.46,2.36Zm9.22-6.23h5.87a5.33,5.33,0,0,0,3.15-.82,2.48,2.48,0,0,0,1.16-2.13c0-1.47-1.14-2.2-3.43-2.2h-5.35Zm2.88-10.58h5.23a5.44,5.44,0,0,0,3.13-.76,2.4,2.4,0,0,0,1.1-2.08q0-2.07-3.36-2.07h-4.83Z"/><path class="cls-1" d="M400.69,126.51l7.47-27.95h7.75l-2.36,8.78H417a11.48,11.48,0,0,1,7.47,2.26,7.07,7.07,0,0,1,2.76,5.73,9.9,9.9,0,0,1-3.74,8.22,15.06,15.06,0,0,1-9.64,3Zm9.47-6.51h4a6.58,6.58,0,0,0,3.65-.94,3.2,3.2,0,0,0,1.46-2.89,2.47,2.47,0,0,0-.94-2,3.84,3.84,0,0,0-2.57-.8H412Zm17.4,6.51L435,98.56h7.75l-7.47,28Z"/><path class="cls-1" d="M13.34,127a13.3,13.3,0,0,1-9.63-3.58,11.93,11.93,0,0,1-3.71-9,15.74,15.74,0,0,1,1.26-6.15,17.44,17.44,0,0,1,3.41-5.27A16.11,16.11,0,0,1,10,99.42,16.42,16.42,0,0,1,16.65,98a13.29,13.29,0,0,1,9.62,3.57,11.92,11.92,0,0,1,3.71,9,15.91,15.91,0,0,1-1.25,6.15A17.47,17.47,0,0,1,25.31,122,16.15,16.15,0,0,1,20,125.65,16.41,16.41,0,0,1,13.34,127Zm.67-7a7.14,7.14,0,0,0,5.79-2.77,9.45,9.45,0,0,0,2.28-6.13,6.23,6.23,0,0,0-1.62-4.47A5.85,5.85,0,0,0,16,105a7.16,7.16,0,0,0-5.77,2.79,9.43,9.43,0,0,0-2.29,6.11,6.23,6.23,0,0,0,1.61,4.47A5.86,5.86,0,0,0,14,120.08Z"/><path class="cls-1" d="M33.62,126.51l5.71-21.16H30.94l1.84-6.79H57.25l-1.79,6.79H47.07L41.4,126.51Z"/><path class="cls-1" d="M63.6,127.07q-7.86,0-11.46-5.31l5.15-4.47a8.14,8.14,0,0,0,6.39,3.23,4.94,4.94,0,0,0,3.11-.9A2.6,2.6,0,0,0,68,117.53c0-1.47-1.16-2.2-3.47-2.2H61.6l1.56-5.83h2.72a6,6,0,0,0,3.19-.74,2.3,2.3,0,0,0,1.2-2.05,1.87,1.87,0,0,0-.82-1.56,3.33,3.33,0,0,0-2-.6q-2.87,0-6.15,2.71l-4-4.87A15.46,15.46,0,0,1,68.39,98a10.89,10.89,0,0,1,7,2.12,6.37,6.37,0,0,1,2.61,5.11q0,5.55-6.5,7.34c2.76,1,4.15,2.89,4.15,5.63a7.57,7.57,0,0,1-3.42,6.37A14.28,14.28,0,0,1,63.6,127.07Z"/><path class="cls-1" d="M77.45,126.51l7.47-27.95h7.75l-2.36,8.78h3.47a11.48,11.48,0,0,1,7.47,2.26,7.07,7.07,0,0,1,2.76,5.73,9.9,9.9,0,0,1-3.74,8.22,15.06,15.06,0,0,1-9.64,3ZM86.92,120h4a6.58,6.58,0,0,0,3.65-.94,3.2,3.2,0,0,0,1.46-2.89,2.47,2.47,0,0,0-.94-2,3.84,3.84,0,0,0-2.57-.8H88.71Zm17.4,6.51,7.47-27.95h7.75l-7.47,28Z"/><path class="cls-1" d="M116.86,126.51l7.51-27.95H136c3.56,0,6.14.63,7.72,1.88a5.89,5.89,0,0,1,2.38,4.83,6.66,6.66,0,0,1-1.66,4.55,8.65,8.65,0,0,1-4.61,2.59q4.23,1.53,4.23,5.59a7.28,7.28,0,0,1-3.23,6.15c-2.16,1.57-5.31,2.36-9.47,2.36Zm9.22-6.23H132a5.36,5.36,0,0,0,3.16-.82,2.51,2.51,0,0,0,1.16-2.13c0-1.47-1.15-2.2-3.44-2.2h-5.35ZM129,109.7h5.23a5.42,5.42,0,0,0,3.13-.76,2.4,2.4,0,0,0,1.1-2.08c0-1.38-1.12-2.07-3.35-2.07h-4.83Z"/><path class="cls-1" d="M145.37,126.51l7.46-27.95h7.75l-2.36,8.78h3.48a11.43,11.43,0,0,1,7.46,2.26,7.07,7.07,0,0,1,2.76,5.73,9.9,9.9,0,0,1-3.74,8.22,15,15,0,0,1-9.64,3Zm9.46-6.51h4a6.61,6.61,0,0,0,3.66-.94,3.19,3.19,0,0,0,1.45-2.89,2.47,2.47,0,0,0-.94-2,3.84,3.84,0,0,0-2.57-.8h-3.83Zm17.41,6.51,7.46-27.95h7.75l-7.47,28Z"/><path class="cls-1" d="M779.32,225a13.29,13.29,0,0,1-9.62-3.57,11.93,11.93,0,0,1-3.72-9,15.74,15.74,0,0,1,1.26-6.15,17.64,17.64,0,0,1,3.41-5.27,16.66,16.66,0,0,1,12-5,13.26,13.26,0,0,1,9.62,3.58,11.9,11.9,0,0,1,3.72,9,15.74,15.74,0,0,1-1.26,6.15,17.47,17.47,0,0,1-3.42,5.27,16.06,16.06,0,0,1-5.28,3.65A16.42,16.42,0,0,1,779.32,225Zm.68-6.95a7.17,7.17,0,0,0,5.79-2.77,9.49,9.49,0,0,0,2.27-6.13,6.23,6.23,0,0,0-1.62-4.47A5.83,5.83,0,0,0,782,203a7.18,7.18,0,0,0-5.77,2.79,9.43,9.43,0,0,0-2.29,6.11,6.27,6.27,0,0,0,1.61,4.47A5.87,5.87,0,0,0,780,218.08Z"/><path class="cls-1" d="M799.6,224.51l5.71-21.16h-8.39l1.84-6.79h24.47l-1.79,6.79h-8.39l-5.67,21.16Z"/><path class="cls-1" d="M829.58,225.07q-7.86,0-11.46-5.31l5.15-4.47a8.14,8.14,0,0,0,6.39,3.23,5,5,0,0,0,3.12-.9,2.6,2.6,0,0,0,1.15-2.09c0-1.47-1.15-2.2-3.47-2.2h-2.87l1.55-5.83h2.72a6,6,0,0,0,3.19-.74,2.28,2.28,0,0,0,1.2-2,1.84,1.84,0,0,0-.82-1.56,3.3,3.3,0,0,0-2-.6q-2.88,0-6.15,2.72l-4-4.88A15.46,15.46,0,0,1,834.37,196a10.88,10.88,0,0,1,7,2.12,6.38,6.38,0,0,1,2.62,5.11q0,5.55-6.51,7.35c2.77,1,4.15,2.88,4.15,5.63a7.58,7.58,0,0,1-3.41,6.36A14.31,14.31,0,0,1,829.58,225.07Z"/><path class="cls-1" d="M843.44,224.51l7.46-27.95h7.75l-2.36,8.79h3.48a11.43,11.43,0,0,1,7.46,2.25,7.1,7.1,0,0,1,2.76,5.73,9.92,9.92,0,0,1-3.74,8.23,15.06,15.06,0,0,1-9.64,2.95ZM852.9,218h4a6.58,6.58,0,0,0,3.65-.94,3.18,3.18,0,0,0,1.46-2.89,2.48,2.48,0,0,0-.94-2,3.84,3.84,0,0,0-2.57-.8H854.7Zm17.41,6.51,7.46-27.95h7.75l-7.47,27.95Z"/><path class="cls-1" d="M882.84,224.51l7.51-27.95H902c3.56,0,6.14.63,7.72,1.88a5.87,5.87,0,0,1,2.38,4.83,6.61,6.61,0,0,1-1.66,4.55,8.69,8.69,0,0,1-4.61,2.6Q910,211.94,910,216a7.28,7.28,0,0,1-3.23,6.14c-2.16,1.58-5.31,2.36-9.46,2.36Zm9.23-6.23h5.87a5.33,5.33,0,0,0,3.15-.82,2.49,2.49,0,0,0,1.16-2.13c0-1.47-1.15-2.2-3.44-2.2h-5.35Zm2.87-10.58h5.23a5.42,5.42,0,0,0,3.13-.76,2.37,2.37,0,0,0,1.1-2.07c0-1.39-1.12-2.08-3.35-2.08h-4.83Z"/><path class="cls-1" d="M911.35,224.51l7.47-27.95h7.74l-2.35,8.79h3.47a11.48,11.48,0,0,1,7.47,2.25,7.12,7.12,0,0,1,2.75,5.73,9.91,9.91,0,0,1-3.73,8.23,15.08,15.08,0,0,1-9.64,2.95Zm9.46-6.51h4a6.59,6.59,0,0,0,3.66-.94,3.19,3.19,0,0,0,1.45-2.89,2.5,2.5,0,0,0-.93-2,3.88,3.88,0,0,0-2.58-.8h-3.83Zm17.41,6.51,7.47-27.95h7.74L946,224.51Z"/><path class="cls-1" d="M524,225a13.29,13.29,0,0,1-9.62-3.57,11.93,11.93,0,0,1-3.72-9,15.74,15.74,0,0,1,1.26-6.15,17.47,17.47,0,0,1,3.42-5.27,16.15,16.15,0,0,1,5.29-3.65A16.34,16.34,0,0,1,527.3,196a13.3,13.3,0,0,1,9.63,3.58,11.93,11.93,0,0,1,3.71,9,15.74,15.74,0,0,1-1.26,6.15A17.64,17.64,0,0,1,536,220a16.11,16.11,0,0,1-5.29,3.65A16.42,16.42,0,0,1,524,225Zm.68-6.95a7.17,7.17,0,0,0,5.79-2.77,9.43,9.43,0,0,0,2.27-6.13,6.23,6.23,0,0,0-1.61-4.47,5.87,5.87,0,0,0-4.5-1.72,7.16,7.16,0,0,0-5.76,2.79,9.39,9.39,0,0,0-2.3,6.11,6.23,6.23,0,0,0,1.62,4.47A5.83,5.83,0,0,0,524.67,218.08Z"/><path class="cls-1" d="M544.27,224.51,550,203.35H541.6l1.83-6.79h24.48l-1.8,6.79h-8.38l-5.67,21.16Z"/><path class="cls-1" d="M574.26,225.07q-7.87,0-11.46-5.31l5.15-4.47a8.14,8.14,0,0,0,6.39,3.23,4.94,4.94,0,0,0,3.11-.9,2.61,2.61,0,0,0,1.16-2.09c0-1.47-1.16-2.2-3.48-2.2h-2.87l1.56-5.83h2.71a5.93,5.93,0,0,0,3.19-.74,2.28,2.28,0,0,0,1.2-2,1.84,1.84,0,0,0-.82-1.56,3.28,3.28,0,0,0-2-.6q-2.88,0-6.15,2.72l-4-4.88A15.44,15.44,0,0,1,579.05,196a10.87,10.87,0,0,1,7,2.12,6.35,6.35,0,0,1,2.62,5.11q0,5.55-6.51,7.35c2.77,1,4.15,2.88,4.15,5.63a7.58,7.58,0,0,1-3.41,6.36A14.3,14.3,0,0,1,574.26,225.07Z"/><path class="cls-1" d="M588.11,224.51l7.47-27.95h7.74L601,205.35h3.47a11.43,11.43,0,0,1,7.46,2.25,7.1,7.1,0,0,1,2.76,5.73,9.91,9.91,0,0,1-3.73,8.23,15.09,15.09,0,0,1-9.65,2.95Zm9.46-6.51h4a6.59,6.59,0,0,0,3.66-.94,3.19,3.19,0,0,0,1.45-2.89,2.5,2.5,0,0,0-.93-2,3.88,3.88,0,0,0-2.58-.8h-3.83ZM615,224.51l7.47-27.95h7.74l-7.47,27.95Z"/><path class="cls-1" d="M627.52,224.51l7.5-27.95h11.62c3.57,0,6.14.63,7.73,1.88a5.88,5.88,0,0,1,2.37,4.83,6.61,6.61,0,0,1-1.66,4.55,8.69,8.69,0,0,1-4.61,2.6c2.82,1,4.24,2.87,4.24,5.59a7.27,7.27,0,0,1-3.24,6.14c-2.16,1.58-5.31,2.36-9.46,2.36Zm9.22-6.23h5.87a5.33,5.33,0,0,0,3.15-.82,2.49,2.49,0,0,0,1.16-2.13c0-1.47-1.15-2.2-3.43-2.2h-5.35Zm2.87-10.58h5.23a5.46,5.46,0,0,0,3.14-.76,2.39,2.39,0,0,0,1.1-2.07c0-1.39-1.12-2.08-3.36-2.08h-4.83Z"/><path class="cls-1" d="M656,224.51l7.47-27.95h7.74l-2.35,8.79h3.47a11.48,11.48,0,0,1,7.47,2.25,7.12,7.12,0,0,1,2.75,5.73,9.91,9.91,0,0,1-3.73,8.23,15.06,15.06,0,0,1-9.64,2.95Zm9.46-6.51h4a6.58,6.58,0,0,0,3.65-.94,3.2,3.2,0,0,0,1.46-2.89,2.51,2.51,0,0,0-.94-2,3.87,3.87,0,0,0-2.58-.8h-3.83Zm17.41,6.51,7.47-27.95h7.74l-7.46,27.95Z"/><path class="cls-1" d="M268.66,225a13.31,13.31,0,0,1-9.62-3.57,12,12,0,0,1-3.71-9,15.91,15.91,0,0,1,1.25-6.15,17.47,17.47,0,0,1,3.42-5.27,16.66,16.66,0,0,1,12-5,13.27,13.27,0,0,1,9.62,3.58,11.93,11.93,0,0,1,3.71,9,15.74,15.74,0,0,1-1.26,6.15,17.26,17.26,0,0,1-3.41,5.27,16.11,16.11,0,0,1-5.29,3.65A16.42,16.42,0,0,1,268.66,225Zm.68-6.95a7.17,7.17,0,0,0,5.79-2.77,9.45,9.45,0,0,0,2.28-6.13,6.23,6.23,0,0,0-1.62-4.47A5.86,5.86,0,0,0,271.3,203a7.16,7.16,0,0,0-5.77,2.79,9.44,9.44,0,0,0-2.3,6.11,6.23,6.23,0,0,0,1.62,4.47A5.85,5.85,0,0,0,269.34,218.08Z"/><path class="cls-1" d="M288.94,224.51l5.71-21.16h-8.38l1.84-6.79h24.47l-1.8,6.79H302.4l-5.67,21.16Z"/><path class="cls-1" d="M318.93,225.07q-7.87,0-11.46-5.31l5.15-4.47a8.14,8.14,0,0,0,6.39,3.23,4.94,4.94,0,0,0,3.11-.9,2.61,2.61,0,0,0,1.16-2.09c0-1.47-1.16-2.2-3.47-2.2h-2.88l1.56-5.83h2.71a6,6,0,0,0,3.2-.74,2.28,2.28,0,0,0,1.2-2,1.87,1.87,0,0,0-.82-1.56,3.33,3.33,0,0,0-2-.6q-2.88,0-6.15,2.72l-3.95-4.88A15.46,15.46,0,0,1,323.72,196a10.91,10.91,0,0,1,7,2.12,6.37,6.37,0,0,1,2.61,5.11q0,5.55-6.51,7.35c2.77,1,4.16,2.88,4.16,5.63a7.57,7.57,0,0,1-3.42,6.36A14.28,14.28,0,0,1,318.93,225.07Z"/><path class="cls-1" d="M332.78,224.51l7.47-27.95H348l-2.35,8.79h3.47a11.48,11.48,0,0,1,7.47,2.25,7.12,7.12,0,0,1,2.75,5.73,9.91,9.91,0,0,1-3.73,8.23,15.06,15.06,0,0,1-9.64,2.95Zm9.46-6.51h4a6.58,6.58,0,0,0,3.65-.94,3.2,3.2,0,0,0,1.46-2.89,2.51,2.51,0,0,0-.94-2,3.88,3.88,0,0,0-2.58-.8H344Zm17.41,6.51,7.47-27.95h7.74l-7.46,27.95Z"/><path class="cls-1" d="M372.19,224.51l7.5-27.95h11.62c3.57,0,6.14.63,7.73,1.88a5.88,5.88,0,0,1,2.37,4.83,6.65,6.65,0,0,1-1.65,4.55,8.72,8.72,0,0,1-4.61,2.6q4.23,1.52,4.23,5.59a7.27,7.27,0,0,1-3.24,6.14c-2.15,1.58-5.31,2.36-9.46,2.36Zm9.22-6.23h5.87a5.33,5.33,0,0,0,3.15-.82,2.47,2.47,0,0,0,1.16-2.13c0-1.47-1.14-2.2-3.43-2.2h-5.35Zm2.88-10.58h5.23a5.44,5.44,0,0,0,3.13-.76,2.39,2.39,0,0,0,1.1-2.07c0-1.39-1.12-2.08-3.36-2.08h-4.83Z"/><path class="cls-1" d="M400.69,224.51l7.47-27.95h7.75l-2.36,8.79H417a11.48,11.48,0,0,1,7.47,2.25,7.1,7.1,0,0,1,2.76,5.73,9.92,9.92,0,0,1-3.74,8.23,15.06,15.06,0,0,1-9.64,2.95Zm9.47-6.51h4a6.58,6.58,0,0,0,3.65-.94,3.2,3.2,0,0,0,1.46-2.89,2.48,2.48,0,0,0-.94-2,3.84,3.84,0,0,0-2.57-.8H412Zm17.4,6.51L435,196.56h7.75l-7.47,27.95Z"/><path class="cls-1" d="M13.34,225a13.33,13.33,0,0,1-9.63-3.57,12,12,0,0,1-3.71-9,15.74,15.74,0,0,1,1.26-6.15,17.44,17.44,0,0,1,3.41-5.27A16.26,16.26,0,0,1,10,197.42,16.42,16.42,0,0,1,16.65,196a13.26,13.26,0,0,1,9.62,3.58,11.9,11.9,0,0,1,3.71,9,15.91,15.91,0,0,1-1.25,6.15A17.47,17.47,0,0,1,25.31,220,16,16,0,0,1,20,223.65,16.41,16.41,0,0,1,13.34,225Zm.67-6.95a7.14,7.14,0,0,0,5.79-2.77,9.45,9.45,0,0,0,2.28-6.13,6.23,6.23,0,0,0-1.62-4.47A5.85,5.85,0,0,0,16,203a7.16,7.16,0,0,0-5.77,2.79,9.43,9.43,0,0,0-2.29,6.11,6.23,6.23,0,0,0,1.61,4.47A5.86,5.86,0,0,0,14,218.08Z"/><path class="cls-1" d="M33.62,224.51l5.71-21.16H30.94l1.84-6.79H57.25l-1.79,6.79H47.07L41.4,224.51Z"/><path class="cls-1" d="M63.6,225.07q-7.86,0-11.46-5.31l5.15-4.47a8.14,8.14,0,0,0,6.39,3.23,4.94,4.94,0,0,0,3.11-.9A2.58,2.58,0,0,0,68,215.53c0-1.47-1.16-2.2-3.47-2.2H61.6l1.56-5.83h2.72a6,6,0,0,0,3.19-.74,2.28,2.28,0,0,0,1.2-2,1.87,1.87,0,0,0-.82-1.56,3.33,3.33,0,0,0-2-.6q-2.87,0-6.15,2.72l-4-4.88A15.46,15.46,0,0,1,68.39,196a10.89,10.89,0,0,1,7,2.12,6.37,6.37,0,0,1,2.61,5.11q0,5.55-6.5,7.35c2.76,1,4.15,2.88,4.15,5.63a7.57,7.57,0,0,1-3.42,6.36A14.28,14.28,0,0,1,63.6,225.07Z"/><path class="cls-1" d="M77.45,224.51l7.47-27.95h7.75l-2.36,8.79h3.47a11.48,11.48,0,0,1,7.47,2.25,7.1,7.1,0,0,1,2.76,5.73,9.92,9.92,0,0,1-3.74,8.23,15.06,15.06,0,0,1-9.64,2.95ZM86.92,218h4a6.58,6.58,0,0,0,3.65-.94,3.2,3.2,0,0,0,1.46-2.89,2.48,2.48,0,0,0-.94-2,3.84,3.84,0,0,0-2.57-.8H88.71Zm17.4,6.51,7.47-27.95h7.75l-7.47,27.95Z"/><path class="cls-1" d="M116.86,224.51l7.51-27.95H136c3.56,0,6.14.63,7.72,1.88a5.89,5.89,0,0,1,2.38,4.83,6.66,6.66,0,0,1-1.66,4.55,8.72,8.72,0,0,1-4.61,2.6q4.23,1.52,4.23,5.59a7.28,7.28,0,0,1-3.23,6.14c-2.16,1.58-5.31,2.36-9.47,2.36Zm9.22-6.23H132a5.36,5.36,0,0,0,3.16-.82,2.49,2.49,0,0,0,1.16-2.13c0-1.47-1.15-2.2-3.44-2.2h-5.35ZM129,207.7h5.23a5.42,5.42,0,0,0,3.13-.76,2.39,2.39,0,0,0,1.1-2.07c0-1.39-1.12-2.08-3.35-2.08h-4.83Z"/><path class="cls-1" d="M145.37,224.51l7.46-27.95h7.75l-2.36,8.79h3.48a11.43,11.43,0,0,1,7.46,2.25,7.1,7.1,0,0,1,2.76,5.73,9.92,9.92,0,0,1-3.74,8.23,15,15,0,0,1-9.64,2.95Zm9.46-6.51h4a6.61,6.61,0,0,0,3.66-.94,3.19,3.19,0,0,0,1.45-2.89,2.48,2.48,0,0,0-.94-2,3.84,3.84,0,0,0-2.57-.8h-3.83Zm17.41,6.51,7.46-27.95h7.75L180,224.51Z"/><path class="cls-1" d="M779.32,323a13.29,13.29,0,0,1-9.62-3.57,11.91,11.91,0,0,1-3.72-9,15.66,15.66,0,0,1,1.26-6.14,17.39,17.39,0,0,1,3.41-5.27,16.13,16.13,0,0,1,5.29-3.66,16.42,16.42,0,0,1,6.69-1.38,13.3,13.3,0,0,1,9.62,3.58,11.9,11.9,0,0,1,3.72,9,15.74,15.74,0,0,1-1.26,6.15,17.35,17.35,0,0,1-3.42,5.27,16.06,16.06,0,0,1-5.28,3.65A16.42,16.42,0,0,1,779.32,323Zm.68-6.95a7.17,7.17,0,0,0,5.79-2.77,9.47,9.47,0,0,0,2.27-6.13,6.23,6.23,0,0,0-1.62-4.47A5.83,5.83,0,0,0,782,301a7.16,7.16,0,0,0-5.77,2.8,9.4,9.4,0,0,0-2.29,6.1,6.31,6.31,0,0,0,1.61,4.48A5.9,5.9,0,0,0,780,316.08Z"/><path class="cls-1" d="M799.6,322.51l5.71-21.16h-8.39l1.84-6.79h24.47l-1.79,6.79h-8.39l-5.67,21.16Z"/><path class="cls-1" d="M829.58,323.07q-7.86,0-11.46-5.31l5.15-4.47a8.14,8.14,0,0,0,6.39,3.23,5,5,0,0,0,3.12-.9,2.58,2.58,0,0,0,1.15-2.09c0-1.47-1.15-2.2-3.47-2.2h-2.87l1.55-5.83h2.72a6,6,0,0,0,3.19-.74,2.28,2.28,0,0,0,1.2-2.05,1.84,1.84,0,0,0-.82-1.56,3.3,3.3,0,0,0-2-.6q-2.88,0-6.15,2.72l-4-4.87a15.43,15.43,0,0,1,11.06-4.4,10.88,10.88,0,0,1,7,2.12,6.38,6.38,0,0,1,2.62,5.11q0,5.55-6.51,7.35,4.15,1.51,4.15,5.63a7.58,7.58,0,0,1-3.41,6.36A14.31,14.31,0,0,1,829.58,323.07Z"/><path class="cls-1" d="M843.44,322.51l7.46-27.95h7.75l-2.36,8.79h3.48a11.43,11.43,0,0,1,7.46,2.25,7.1,7.1,0,0,1,2.76,5.73,9.9,9.9,0,0,1-3.74,8.23,15.06,15.06,0,0,1-9.64,2.95ZM852.9,316h4a6.66,6.66,0,0,0,3.65-.93,3.19,3.19,0,0,0,1.46-2.9,2.48,2.48,0,0,0-.94-2,3.84,3.84,0,0,0-2.57-.79H854.7Zm17.41,6.51,7.46-27.95h7.75l-7.47,27.95Z"/><path class="cls-1" d="M882.84,322.51l7.51-27.95H902c3.56,0,6.14.63,7.72,1.88a5.87,5.87,0,0,1,2.38,4.83,6.61,6.61,0,0,1-1.66,4.55,8.69,8.69,0,0,1-4.61,2.6Q910,309.94,910,314a7.28,7.28,0,0,1-3.23,6.15q-3.24,2.35-9.46,2.35Zm9.23-6.23h5.87a5.33,5.33,0,0,0,3.15-.82,2.49,2.49,0,0,0,1.16-2.13c0-1.47-1.15-2.2-3.44-2.2h-5.35Zm2.87-10.58h5.23a5.42,5.42,0,0,0,3.13-.76,2.36,2.36,0,0,0,1.1-2.07c0-1.39-1.12-2.08-3.35-2.08h-4.83Z"/><path class="cls-1" d="M911.35,322.51l7.47-27.95h7.74l-2.35,8.79h3.47a11.48,11.48,0,0,1,7.47,2.25,7.12,7.12,0,0,1,2.75,5.73,9.9,9.9,0,0,1-3.73,8.23,15.08,15.08,0,0,1-9.64,2.95Zm9.46-6.51h4a6.67,6.67,0,0,0,3.66-.93,3.21,3.21,0,0,0,1.45-2.9,2.5,2.5,0,0,0-.93-2,3.88,3.88,0,0,0-2.58-.79h-3.83Zm17.41,6.51,7.47-27.95h7.74L946,322.51Z"/><path class="cls-1" d="M524,323a13.29,13.29,0,0,1-9.62-3.57,11.91,11.91,0,0,1-3.72-9,15.66,15.66,0,0,1,1.26-6.14,17.23,17.23,0,0,1,3.42-5.27,16,16,0,0,1,5.29-3.66A16.34,16.34,0,0,1,527.3,294a13.34,13.34,0,0,1,9.63,3.58,11.93,11.93,0,0,1,3.71,9,15.74,15.74,0,0,1-1.26,6.15A17.51,17.51,0,0,1,536,318a16.11,16.11,0,0,1-5.29,3.65A16.42,16.42,0,0,1,524,323Zm.68-6.95a7.17,7.17,0,0,0,5.79-2.77,9.42,9.42,0,0,0,2.27-6.13,6.23,6.23,0,0,0-1.61-4.47,5.87,5.87,0,0,0-4.5-1.72,7.14,7.14,0,0,0-5.76,2.8,9.36,9.36,0,0,0-2.3,6.1,6.27,6.27,0,0,0,1.62,4.48A5.86,5.86,0,0,0,524.67,316.08Z"/><path class="cls-1" d="M544.27,322.51,550,301.35H541.6l1.83-6.79h24.48l-1.8,6.79h-8.38l-5.67,21.16Z"/><path class="cls-1" d="M574.26,323.07q-7.87,0-11.46-5.31l5.15-4.47a8.14,8.14,0,0,0,6.39,3.23,4.94,4.94,0,0,0,3.11-.9,2.59,2.59,0,0,0,1.16-2.09c0-1.47-1.16-2.2-3.48-2.2h-2.87l1.56-5.83h2.71a5.93,5.93,0,0,0,3.19-.74,2.28,2.28,0,0,0,1.2-2.05,1.84,1.84,0,0,0-.82-1.56,3.28,3.28,0,0,0-2-.6q-2.88,0-6.15,2.72l-4-4.87a15.41,15.41,0,0,1,11.06-4.4,10.87,10.87,0,0,1,7,2.12,6.35,6.35,0,0,1,2.62,5.11q0,5.55-6.51,7.35,4.15,1.51,4.15,5.63a7.58,7.58,0,0,1-3.41,6.36A14.3,14.3,0,0,1,574.26,323.07Z"/><path class="cls-1" d="M588.11,322.51l7.47-27.95h7.74L601,303.35h3.47a11.43,11.43,0,0,1,7.46,2.25,7.1,7.1,0,0,1,2.76,5.73,9.9,9.9,0,0,1-3.73,8.23,15.09,15.09,0,0,1-9.65,2.95Zm9.46-6.51h4a6.67,6.67,0,0,0,3.66-.93,3.21,3.21,0,0,0,1.45-2.9,2.5,2.5,0,0,0-.93-2,3.88,3.88,0,0,0-2.58-.79h-3.83ZM615,322.51l7.47-27.95h7.74l-7.47,27.95Z"/><path class="cls-1" d="M627.52,322.51l7.5-27.95h11.62c3.57,0,6.14.63,7.73,1.88a5.88,5.88,0,0,1,2.37,4.83,6.61,6.61,0,0,1-1.66,4.55,8.69,8.69,0,0,1-4.61,2.6c2.82,1,4.24,2.87,4.24,5.59a7.27,7.27,0,0,1-3.24,6.15q-3.24,2.35-9.46,2.35Zm9.22-6.23h5.87a5.33,5.33,0,0,0,3.15-.82,2.49,2.49,0,0,0,1.16-2.13c0-1.47-1.15-2.2-3.43-2.2h-5.35Zm2.87-10.58h5.23a5.46,5.46,0,0,0,3.14-.76,2.38,2.38,0,0,0,1.1-2.07c0-1.39-1.12-2.08-3.36-2.08h-4.83Z"/><path class="cls-1" d="M656,322.51l7.47-27.95h7.74l-2.35,8.79h3.47a11.48,11.48,0,0,1,7.47,2.25,7.12,7.12,0,0,1,2.75,5.73,9.9,9.9,0,0,1-3.73,8.23,15.06,15.06,0,0,1-9.64,2.95Zm9.46-6.51h4a6.66,6.66,0,0,0,3.65-.93,3.21,3.21,0,0,0,1.46-2.9,2.51,2.51,0,0,0-.94-2,3.86,3.86,0,0,0-2.58-.79h-3.83Zm17.41,6.51,7.47-27.95h7.74l-7.46,27.95Z"/><path class="cls-1" d="M268.66,323a13.31,13.31,0,0,1-9.62-3.57,11.94,11.94,0,0,1-3.71-9,15.82,15.82,0,0,1,1.25-6.14,17.23,17.23,0,0,1,3.42-5.27,16.13,16.13,0,0,1,5.29-3.66A16.42,16.42,0,0,1,272,294a13.31,13.31,0,0,1,9.62,3.58,11.93,11.93,0,0,1,3.71,9,15.74,15.74,0,0,1-1.26,6.15,17.14,17.14,0,0,1-3.41,5.27,16.11,16.11,0,0,1-5.29,3.65A16.42,16.42,0,0,1,268.66,323Zm.68-6.95a7.17,7.17,0,0,0,5.79-2.77,9.43,9.43,0,0,0,2.28-6.13,6.23,6.23,0,0,0-1.62-4.47A5.86,5.86,0,0,0,271.3,301a7.14,7.14,0,0,0-5.77,2.8,9.42,9.42,0,0,0-2.3,6.1,6.27,6.27,0,0,0,1.62,4.48A5.88,5.88,0,0,0,269.34,316.08Z"/><path class="cls-1" d="M288.94,322.51l5.71-21.16h-8.38l1.84-6.79h24.47l-1.8,6.79H302.4l-5.67,21.16Z"/><path class="cls-1" d="M318.93,323.07q-7.87,0-11.46-5.31l5.15-4.47a8.14,8.14,0,0,0,6.39,3.23,4.94,4.94,0,0,0,3.11-.9,2.59,2.59,0,0,0,1.16-2.09c0-1.47-1.16-2.2-3.47-2.2h-2.88l1.56-5.83h2.71a6,6,0,0,0,3.2-.74,2.28,2.28,0,0,0,1.2-2.05,1.87,1.87,0,0,0-.82-1.56,3.33,3.33,0,0,0-2-.6q-2.88,0-6.15,2.72l-3.95-4.87a15.43,15.43,0,0,1,11.06-4.4,10.91,10.91,0,0,1,7,2.12,6.37,6.37,0,0,1,2.61,5.11q0,5.55-6.51,7.35,4.15,1.51,4.16,5.63a7.57,7.57,0,0,1-3.42,6.36A14.28,14.28,0,0,1,318.93,323.07Z"/><path class="cls-1" d="M332.78,322.51l7.47-27.95H348l-2.35,8.79h3.47a11.48,11.48,0,0,1,7.47,2.25,7.12,7.12,0,0,1,2.75,5.73,9.9,9.9,0,0,1-3.73,8.23,15.06,15.06,0,0,1-9.64,2.95Zm9.46-6.51h4a6.66,6.66,0,0,0,3.65-.93,3.21,3.21,0,0,0,1.46-2.9,2.51,2.51,0,0,0-.94-2,3.88,3.88,0,0,0-2.58-.79H344Zm17.41,6.51,7.47-27.95h7.74l-7.46,27.95Z"/><path class="cls-1" d="M372.19,322.51l7.5-27.95h11.62c3.57,0,6.14.63,7.73,1.88a5.88,5.88,0,0,1,2.37,4.83,6.65,6.65,0,0,1-1.65,4.55,8.72,8.72,0,0,1-4.61,2.6q4.23,1.51,4.23,5.59a7.27,7.27,0,0,1-3.24,6.15c-2.15,1.57-5.31,2.35-9.46,2.35Zm9.22-6.23h5.87a5.33,5.33,0,0,0,3.15-.82,2.47,2.47,0,0,0,1.16-2.13c0-1.47-1.14-2.2-3.43-2.2h-5.35Zm2.88-10.58h5.23a5.44,5.44,0,0,0,3.13-.76,2.38,2.38,0,0,0,1.1-2.07c0-1.39-1.12-2.08-3.36-2.08h-4.83Z"/><path class="cls-1" d="M400.69,322.51l7.47-27.95h7.75l-2.36,8.79H417a11.48,11.48,0,0,1,7.47,2.25,7.1,7.1,0,0,1,2.76,5.73,9.9,9.9,0,0,1-3.74,8.23,15.06,15.06,0,0,1-9.64,2.95Zm9.47-6.51h4a6.66,6.66,0,0,0,3.65-.93,3.21,3.21,0,0,0,1.46-2.9,2.48,2.48,0,0,0-.94-2,3.84,3.84,0,0,0-2.57-.79H412Zm17.4,6.51L435,294.56h7.75l-7.47,27.95Z"/><path class="cls-1" d="M13.34,323a13.33,13.33,0,0,1-9.63-3.57,11.94,11.94,0,0,1-3.71-9,15.66,15.66,0,0,1,1.26-6.14,17.2,17.2,0,0,1,3.41-5.27A16.13,16.13,0,0,1,10,295.42,16.42,16.42,0,0,1,16.65,294a13.3,13.3,0,0,1,9.62,3.58,11.9,11.9,0,0,1,3.71,9,15.91,15.91,0,0,1-1.25,6.15A17.35,17.35,0,0,1,25.31,318,16,16,0,0,1,20,321.65,16.41,16.41,0,0,1,13.34,323Zm.67-6.95a7.14,7.14,0,0,0,5.79-2.77,9.43,9.43,0,0,0,2.28-6.13,6.23,6.23,0,0,0-1.62-4.47A5.85,5.85,0,0,0,16,301a7.14,7.14,0,0,0-5.77,2.8,9.4,9.4,0,0,0-2.29,6.1,6.27,6.27,0,0,0,1.61,4.48A5.89,5.89,0,0,0,14,316.08Z"/><path class="cls-1" d="M33.62,322.51l5.71-21.16H30.94l1.84-6.79H57.25l-1.79,6.79H47.07L41.4,322.51Z"/><path class="cls-1" d="M63.6,323.07q-7.86,0-11.46-5.31l5.15-4.47a8.14,8.14,0,0,0,6.39,3.23,4.94,4.94,0,0,0,3.11-.9A2.57,2.57,0,0,0,68,313.53c0-1.47-1.16-2.2-3.47-2.2H61.6l1.56-5.83h2.72a6,6,0,0,0,3.19-.74,2.28,2.28,0,0,0,1.2-2.05,1.87,1.87,0,0,0-.82-1.56,3.33,3.33,0,0,0-2-.6q-2.87,0-6.15,2.72l-4-4.87A15.43,15.43,0,0,1,68.39,294a10.89,10.89,0,0,1,7,2.12,6.37,6.37,0,0,1,2.61,5.11q0,5.55-6.5,7.35c2.76,1,4.15,2.89,4.15,5.63a7.57,7.57,0,0,1-3.42,6.36A14.28,14.28,0,0,1,63.6,323.07Z"/><path class="cls-1" d="M77.45,322.51l7.47-27.95h7.75l-2.36,8.79h3.47a11.48,11.48,0,0,1,7.47,2.25,7.1,7.1,0,0,1,2.76,5.73,9.9,9.9,0,0,1-3.74,8.23,15.06,15.06,0,0,1-9.64,2.95ZM86.92,316h4a6.66,6.66,0,0,0,3.65-.93,3.21,3.21,0,0,0,1.46-2.9,2.48,2.48,0,0,0-.94-2,3.84,3.84,0,0,0-2.57-.79H88.71Zm17.4,6.51,7.47-27.95h7.75l-7.47,27.95Z"/><path class="cls-1" d="M116.86,322.51l7.51-27.95H136c3.56,0,6.14.63,7.72,1.88a5.89,5.89,0,0,1,2.38,4.83,6.66,6.66,0,0,1-1.66,4.55,8.72,8.72,0,0,1-4.61,2.6q4.23,1.51,4.23,5.59a7.28,7.28,0,0,1-3.23,6.15c-2.16,1.57-5.31,2.35-9.47,2.35Zm9.22-6.23H132a5.36,5.36,0,0,0,3.16-.82,2.49,2.49,0,0,0,1.16-2.13c0-1.47-1.15-2.2-3.44-2.2h-5.35ZM129,305.7h5.23a5.42,5.42,0,0,0,3.13-.76,2.38,2.38,0,0,0,1.1-2.07c0-1.39-1.12-2.08-3.35-2.08h-4.83Z"/><path class="cls-1" d="M145.37,322.51l7.46-27.95h7.75l-2.36,8.79h3.48a11.43,11.43,0,0,1,7.46,2.25,7.1,7.1,0,0,1,2.76,5.73,9.9,9.9,0,0,1-3.74,8.23,15,15,0,0,1-9.64,2.95Zm9.46-6.51h4a6.7,6.7,0,0,0,3.66-.93,3.21,3.21,0,0,0,1.45-2.9,2.48,2.48,0,0,0-.94-2,3.84,3.84,0,0,0-2.57-.79h-3.83Zm17.41,6.51,7.46-27.95h7.75L180,322.51Z"/><path class="cls-1" d="M779.32,421a13.29,13.29,0,0,1-9.62-3.57,11.9,11.9,0,0,1-3.72-9,15.67,15.67,0,0,1,1.26-6.15,17.39,17.39,0,0,1,3.41-5.27,16.13,16.13,0,0,1,5.29-3.66,16.58,16.58,0,0,1,6.69-1.37,13.29,13.29,0,0,1,9.62,3.57,11.9,11.9,0,0,1,3.72,9,15.7,15.7,0,0,1-1.26,6.15,17.35,17.35,0,0,1-3.42,5.27,15.92,15.92,0,0,1-5.28,3.65A16.42,16.42,0,0,1,779.32,421Zm.68-6.95a7.17,7.17,0,0,0,5.79-2.77,9.47,9.47,0,0,0,2.27-6.13,6.25,6.25,0,0,0-1.62-4.47A5.87,5.87,0,0,0,782,399a7.18,7.18,0,0,0-5.77,2.8,9.41,9.41,0,0,0-2.29,6.11,6.3,6.3,0,0,0,1.61,4.47A5.9,5.9,0,0,0,780,414.08Z"/><path class="cls-1" d="M799.6,420.51l5.71-21.16h-8.39l1.84-6.78h24.47l-1.79,6.78h-8.39l-5.67,21.16Z"/><path class="cls-1" d="M829.58,421.07q-7.86,0-11.46-5.31l5.15-4.47a8.11,8.11,0,0,0,6.39,3.23,5,5,0,0,0,3.12-.89,2.61,2.61,0,0,0,1.15-2.1c0-1.46-1.15-2.2-3.47-2.2h-2.87l1.55-5.83h2.72a6.05,6.05,0,0,0,3.19-.73,2.31,2.31,0,0,0,1.2-2.06,1.84,1.84,0,0,0-.82-1.56,3.3,3.3,0,0,0-2-.6q-2.88,0-6.15,2.72l-4-4.87A15.42,15.42,0,0,1,834.37,392a10.87,10.87,0,0,1,7,2.11,6.4,6.4,0,0,1,2.62,5.11q0,5.55-6.51,7.35,4.15,1.51,4.15,5.63a7.61,7.61,0,0,1-3.41,6.37A14.37,14.37,0,0,1,829.58,421.07Z"/><path class="cls-1" d="M843.44,420.51l7.46-27.94h7.75l-2.36,8.78h3.48a11.43,11.43,0,0,1,7.46,2.25,7.1,7.1,0,0,1,2.76,5.73,9.9,9.9,0,0,1-3.74,8.23,15.06,15.06,0,0,1-9.64,2.95Zm9.46-6.5h4a6.66,6.66,0,0,0,3.65-.94,3.19,3.19,0,0,0,1.46-2.9,2.45,2.45,0,0,0-.94-1.95,3.79,3.79,0,0,0-2.57-.8H854.7Zm17.41,6.5,7.46-27.94h7.75l-7.47,27.94Z"/><path class="cls-1" d="M882.84,420.51l7.51-27.94H902c3.56,0,6.14.62,7.72,1.87a5.87,5.87,0,0,1,2.38,4.83,6.6,6.6,0,0,1-1.66,4.55,8.62,8.62,0,0,1-4.61,2.6Q910,407.94,910,412a7.28,7.28,0,0,1-3.23,6.15q-3.24,2.35-9.46,2.35Zm9.23-6.23h5.87a5.4,5.4,0,0,0,3.15-.81,2.52,2.52,0,0,0,1.16-2.14c0-1.46-1.15-2.2-3.44-2.2h-5.35Zm2.87-10.58h5.23a5.5,5.5,0,0,0,3.13-.75,2.39,2.39,0,0,0,1.1-2.08c0-1.38-1.12-2.08-3.35-2.08h-4.83Z"/><path class="cls-1" d="M911.35,420.51l7.47-27.94h7.74l-2.35,8.78h3.47a11.48,11.48,0,0,1,7.47,2.25,7.12,7.12,0,0,1,2.75,5.73,9.9,9.9,0,0,1-3.73,8.23,15.08,15.08,0,0,1-9.64,2.95Zm9.46-6.5h4a6.68,6.68,0,0,0,3.66-.94,3.21,3.21,0,0,0,1.45-2.9,2.47,2.47,0,0,0-.93-1.95,3.83,3.83,0,0,0-2.58-.8h-3.83Zm17.41,6.5,7.47-27.94h7.74L946,420.51Z"/><path class="cls-1" d="M524,421a13.29,13.29,0,0,1-9.62-3.57,11.9,11.9,0,0,1-3.72-9,15.67,15.67,0,0,1,1.26-6.15,17.23,17.23,0,0,1,3.42-5.27,16,16,0,0,1,5.29-3.66,16.5,16.5,0,0,1,6.68-1.37,13.33,13.33,0,0,1,9.63,3.57,11.93,11.93,0,0,1,3.71,9,15.7,15.7,0,0,1-1.26,6.15A17.51,17.51,0,0,1,536,416a16,16,0,0,1-5.29,3.65A16.42,16.42,0,0,1,524,421Zm.68-6.95a7.17,7.17,0,0,0,5.79-2.77,9.42,9.42,0,0,0,2.27-6.13,6.24,6.24,0,0,0-1.61-4.47,5.91,5.91,0,0,0-4.5-1.72,7.17,7.17,0,0,0-5.76,2.8,9.37,9.37,0,0,0-2.3,6.11,6.27,6.27,0,0,0,1.62,4.47A5.86,5.86,0,0,0,524.67,414.08Z"/><path class="cls-1" d="M544.27,420.51,550,399.35H541.6l1.83-6.78h24.48l-1.8,6.78h-8.38l-5.67,21.16Z"/><path class="cls-1" d="M574.26,421.07q-7.87,0-11.46-5.31l5.15-4.47a8.11,8.11,0,0,0,6.39,3.23,5,5,0,0,0,3.11-.89,2.63,2.63,0,0,0,1.16-2.1c0-1.46-1.16-2.2-3.48-2.2h-2.87l1.56-5.83h2.71a6,6,0,0,0,3.19-.73,2.31,2.31,0,0,0,1.2-2.06,1.84,1.84,0,0,0-.82-1.56,3.28,3.28,0,0,0-2-.6q-2.88,0-6.15,2.72l-4-4.87A15.4,15.4,0,0,1,579.05,392a10.86,10.86,0,0,1,7,2.11,6.37,6.37,0,0,1,2.62,5.11q0,5.55-6.51,7.35,4.15,1.51,4.15,5.63a7.61,7.61,0,0,1-3.41,6.37A14.36,14.36,0,0,1,574.26,421.07Z"/><path class="cls-1" d="M588.11,420.51l7.47-27.94h7.74L601,401.35h3.47a11.43,11.43,0,0,1,7.46,2.25,7.1,7.1,0,0,1,2.76,5.73,9.9,9.9,0,0,1-3.73,8.23,15.09,15.09,0,0,1-9.65,2.95Zm9.46-6.5h4a6.68,6.68,0,0,0,3.66-.94,3.21,3.21,0,0,0,1.45-2.9,2.47,2.47,0,0,0-.93-1.95,3.83,3.83,0,0,0-2.58-.8h-3.83Zm17.41,6.5,7.47-27.94h7.74l-7.47,27.94Z"/><path class="cls-1" d="M627.52,420.51l7.5-27.94h11.62c3.57,0,6.14.62,7.73,1.87a5.88,5.88,0,0,1,2.37,4.83,6.6,6.6,0,0,1-1.66,4.55,8.62,8.62,0,0,1-4.61,2.6c2.82,1,4.24,2.87,4.24,5.59a7.27,7.27,0,0,1-3.24,6.15q-3.24,2.35-9.46,2.35Zm9.22-6.23h5.87a5.4,5.4,0,0,0,3.15-.81,2.52,2.52,0,0,0,1.16-2.14c0-1.46-1.15-2.2-3.43-2.2h-5.35Zm2.87-10.58h5.23A5.54,5.54,0,0,0,648,403a2.41,2.41,0,0,0,1.1-2.08c0-1.38-1.12-2.08-3.36-2.08h-4.83Z"/><path class="cls-1" d="M656,420.51l7.47-27.94h7.74l-2.35,8.78h3.47a11.48,11.48,0,0,1,7.47,2.25,7.12,7.12,0,0,1,2.75,5.73,9.9,9.9,0,0,1-3.73,8.23,15.06,15.06,0,0,1-9.64,2.95Zm9.46-6.5h4a6.66,6.66,0,0,0,3.65-.94,3.21,3.21,0,0,0,1.46-2.9,2.48,2.48,0,0,0-.94-1.95,3.81,3.81,0,0,0-2.58-.8h-3.83Zm17.41,6.5,7.47-27.94h7.74l-7.46,27.94Z"/><path class="cls-1" d="M268.66,421a13.31,13.31,0,0,1-9.62-3.57,11.93,11.93,0,0,1-3.71-9,15.84,15.84,0,0,1,1.25-6.15,17.23,17.23,0,0,1,3.42-5.27,16.13,16.13,0,0,1,5.29-3.66,16.58,16.58,0,0,1,6.69-1.37,13.31,13.31,0,0,1,9.62,3.57,11.93,11.93,0,0,1,3.71,9,15.7,15.7,0,0,1-1.26,6.15,17.14,17.14,0,0,1-3.41,5.27,16,16,0,0,1-5.29,3.65A16.42,16.42,0,0,1,268.66,421Zm.68-6.95a7.17,7.17,0,0,0,5.79-2.77,9.43,9.43,0,0,0,2.28-6.13,6.25,6.25,0,0,0-1.62-4.47A5.9,5.9,0,0,0,271.3,399a7.17,7.17,0,0,0-5.77,2.8,9.42,9.42,0,0,0-2.3,6.11,6.27,6.27,0,0,0,1.62,4.47A5.88,5.88,0,0,0,269.34,414.08Z"/><path class="cls-1" d="M288.94,420.51l5.71-21.16h-8.38l1.84-6.78h24.47l-1.8,6.78H302.4l-5.67,21.16Z"/><path class="cls-1" d="M318.93,421.07q-7.87,0-11.46-5.31l5.15-4.47a8.11,8.11,0,0,0,6.39,3.23,5,5,0,0,0,3.11-.89,2.63,2.63,0,0,0,1.16-2.1c0-1.46-1.16-2.2-3.47-2.2h-2.88l1.56-5.83h2.71a6.09,6.09,0,0,0,3.2-.73,2.31,2.31,0,0,0,1.2-2.06,1.87,1.87,0,0,0-.82-1.56,3.33,3.33,0,0,0-2-.6q-2.88,0-6.15,2.72l-3.95-4.87A15.42,15.42,0,0,1,323.72,392a10.91,10.91,0,0,1,7,2.11,6.39,6.39,0,0,1,2.61,5.11q0,5.55-6.51,7.35,4.15,1.51,4.16,5.63a7.6,7.6,0,0,1-3.42,6.37A14.34,14.34,0,0,1,318.93,421.07Z"/><path class="cls-1" d="M332.78,420.51l7.47-27.94H348l-2.35,8.78h3.47a11.48,11.48,0,0,1,7.47,2.25,7.12,7.12,0,0,1,2.75,5.73,9.9,9.9,0,0,1-3.73,8.23,15.06,15.06,0,0,1-9.64,2.95Zm9.46-6.5h4a6.66,6.66,0,0,0,3.65-.94,3.21,3.21,0,0,0,1.46-2.9,2.48,2.48,0,0,0-.94-1.95,3.83,3.83,0,0,0-2.58-.8H344Zm17.41,6.5,7.47-27.94h7.74l-7.46,27.94Z"/><path class="cls-1" d="M372.19,420.51l7.5-27.94h11.62c3.57,0,6.14.62,7.73,1.87a5.88,5.88,0,0,1,2.37,4.83,6.64,6.64,0,0,1-1.65,4.55,8.66,8.66,0,0,1-4.61,2.6q4.23,1.51,4.23,5.59a7.27,7.27,0,0,1-3.24,6.15c-2.15,1.57-5.31,2.35-9.46,2.35Zm9.22-6.23h5.87a5.4,5.4,0,0,0,3.15-.81,2.5,2.5,0,0,0,1.16-2.14c0-1.46-1.14-2.2-3.43-2.2h-5.35Zm2.88-10.58h5.23a5.53,5.53,0,0,0,3.13-.75,2.41,2.41,0,0,0,1.1-2.08c0-1.38-1.12-2.08-3.36-2.08h-4.83Z"/><path class="cls-1" d="M400.69,420.51l7.47-27.94h7.75l-2.36,8.78H417a11.48,11.48,0,0,1,7.47,2.25,7.1,7.1,0,0,1,2.76,5.73,9.9,9.9,0,0,1-3.74,8.23,15.06,15.06,0,0,1-9.64,2.95Zm9.47-6.5h4a6.66,6.66,0,0,0,3.65-.94,3.21,3.21,0,0,0,1.46-2.9,2.45,2.45,0,0,0-.94-1.95,3.79,3.79,0,0,0-2.57-.8H412Zm17.4,6.5L435,392.57h7.75l-7.47,27.94Z"/><path class="cls-1" d="M13.34,421a13.33,13.33,0,0,1-9.63-3.57,11.93,11.93,0,0,1-3.71-9,15.67,15.67,0,0,1,1.26-6.15,17.2,17.2,0,0,1,3.41-5.27A16.13,16.13,0,0,1,10,393.42a16.58,16.58,0,0,1,6.69-1.37,13.29,13.29,0,0,1,9.62,3.57,11.9,11.9,0,0,1,3.71,9,15.87,15.87,0,0,1-1.25,6.15A17.35,17.35,0,0,1,25.31,416,15.86,15.86,0,0,1,20,419.65,16.41,16.41,0,0,1,13.34,421Zm.67-6.95a7.14,7.14,0,0,0,5.79-2.77,9.43,9.43,0,0,0,2.28-6.13,6.25,6.25,0,0,0-1.62-4.47A5.88,5.88,0,0,0,16,399a7.17,7.17,0,0,0-5.77,2.8,9.41,9.41,0,0,0-2.29,6.11,6.26,6.26,0,0,0,1.61,4.47A5.89,5.89,0,0,0,14,414.08Z"/><path class="cls-1" d="M33.62,420.51l5.71-21.16H30.94l1.84-6.78H57.25l-1.79,6.78H47.07L41.4,420.51Z"/><path class="cls-1" d="M63.6,421.07q-7.86,0-11.46-5.31l5.15-4.47a8.11,8.11,0,0,0,6.39,3.23,5,5,0,0,0,3.11-.89,2.6,2.6,0,0,0,1.16-2.1c0-1.46-1.16-2.2-3.47-2.2H61.6l1.56-5.83h2.72a6.05,6.05,0,0,0,3.19-.73,2.31,2.31,0,0,0,1.2-2.06,1.87,1.87,0,0,0-.82-1.56,3.33,3.33,0,0,0-2-.6q-2.87,0-6.15,2.72l-4-4.87A15.42,15.42,0,0,1,68.39,392a10.89,10.89,0,0,1,7,2.11,6.39,6.39,0,0,1,2.61,5.11q0,5.55-6.5,7.35c2.76,1,4.15,2.89,4.15,5.63a7.6,7.6,0,0,1-3.42,6.37A14.34,14.34,0,0,1,63.6,421.07Z"/><path class="cls-1" d="M77.45,420.51l7.47-27.94h7.75l-2.36,8.78h3.47a11.48,11.48,0,0,1,7.47,2.25,7.1,7.1,0,0,1,2.76,5.73,9.9,9.9,0,0,1-3.74,8.23,15.06,15.06,0,0,1-9.64,2.95Zm9.47-6.5h4a6.66,6.66,0,0,0,3.65-.94,3.21,3.21,0,0,0,1.46-2.9,2.45,2.45,0,0,0-.94-1.95,3.79,3.79,0,0,0-2.57-.8H88.71Zm17.4,6.5,7.47-27.94h7.75l-7.47,27.94Z"/><path class="cls-1" d="M116.86,420.51l7.51-27.94H136c3.56,0,6.14.62,7.72,1.87a5.89,5.89,0,0,1,2.38,4.83,6.64,6.64,0,0,1-1.66,4.55,8.66,8.66,0,0,1-4.61,2.6q4.23,1.51,4.23,5.59a7.28,7.28,0,0,1-3.23,6.15c-2.16,1.57-5.31,2.35-9.47,2.35Zm9.22-6.23H132a5.44,5.44,0,0,0,3.16-.81,2.52,2.52,0,0,0,1.16-2.14c0-1.46-1.15-2.2-3.44-2.2h-5.35ZM129,403.7h5.23a5.5,5.5,0,0,0,3.13-.75,2.41,2.41,0,0,0,1.1-2.08c0-1.38-1.12-2.08-3.35-2.08h-4.83Z"/><path class="cls-1" d="M145.37,420.51l7.46-27.94h7.75l-2.36,8.78h3.48a11.43,11.43,0,0,1,7.46,2.25,7.1,7.1,0,0,1,2.76,5.73,9.9,9.9,0,0,1-3.74,8.23,15,15,0,0,1-9.64,2.95Zm9.46-6.5h4a6.7,6.7,0,0,0,3.66-.94,3.21,3.21,0,0,0,1.45-2.9,2.45,2.45,0,0,0-.94-1.95,3.79,3.79,0,0,0-2.57-.8h-3.83Zm17.41,6.5,7.46-27.94h7.75L180,420.51Z"/><path class="cls-2" d="M779.32,29a13.3,13.3,0,0,1-9.62-3.58,11.9,11.9,0,0,1-3.72-9,15.74,15.74,0,0,1,1.26-6.15,17.51,17.51,0,0,1,3.41-5.27,16.11,16.11,0,0,1,5.29-3.65A16.42,16.42,0,0,1,782.63,0a13.29,13.29,0,0,1,9.62,3.57,11.93,11.93,0,0,1,3.72,9,15.66,15.66,0,0,1-1.26,6.14A17.4,17.4,0,0,1,791.29,24,16.22,16.22,0,0,1,786,27.65,16.42,16.42,0,0,1,779.32,29Zm.68-7a7.18,7.18,0,0,0,5.79-2.78,9.46,9.46,0,0,0,2.27-6.12,6.27,6.27,0,0,0-1.62-4.48A5.86,5.86,0,0,0,782,7a7.18,7.18,0,0,0-5.77,2.79,9.41,9.41,0,0,0-2.29,6.11,6.27,6.27,0,0,0,1.61,4.47A5.87,5.87,0,0,0,780,22.08Z"/><path class="cls-2" d="M799.6,28.51l5.71-21.16h-8.39L798.76.56h24.47l-1.79,6.79h-8.39l-5.67,21.16Z"/><path class="cls-2" d="M829.58,29.07q-7.86,0-11.46-5.31l5.15-4.48a8.12,8.12,0,0,0,6.39,3.24,5,5,0,0,0,3.12-.9,2.61,2.61,0,0,0,1.15-2.1c0-1.46-1.15-2.19-3.47-2.19h-2.87l1.55-5.83h2.72a6,6,0,0,0,3.19-.74,2.3,2.3,0,0,0,1.2-2.06,1.82,1.82,0,0,0-.82-1.55,3.3,3.3,0,0,0-2-.6q-2.88,0-6.15,2.71l-4-4.87A15.42,15.42,0,0,1,834.37,0a10.88,10.88,0,0,1,7,2.12A6.38,6.38,0,0,1,844,7.23q0,5.55-6.51,7.34,4.15,1.52,4.15,5.63a7.6,7.6,0,0,1-3.41,6.37A14.38,14.38,0,0,1,829.58,29.07Z"/><path class="cls-2" d="M843.44,28.51,850.9.56h7.75l-2.36,8.78h3.48a11.38,11.38,0,0,1,7.46,2.26A7.07,7.07,0,0,1,870,17.33a9.9,9.9,0,0,1-3.74,8.22,15.06,15.06,0,0,1-9.64,3ZM852.9,22h4a6.58,6.58,0,0,0,3.65-.94A3.18,3.18,0,0,0,862,18.17a2.46,2.46,0,0,0-.94-2,3.84,3.84,0,0,0-2.57-.8H854.7Zm17.41,6.51L877.77.56h7.75l-7.47,28Z"/><path class="cls-2" d="M882.84,28.51,890.35.56H902c3.56,0,6.14.62,7.72,1.88a5.87,5.87,0,0,1,2.38,4.83,6.61,6.61,0,0,1-1.66,4.55,8.67,8.67,0,0,1-4.61,2.59c2.82,1,4.23,2.88,4.23,5.59a7.28,7.28,0,0,1-3.23,6.15q-3.24,2.36-9.46,2.36Zm9.23-6.23h5.87a5.33,5.33,0,0,0,3.15-.82,2.52,2.52,0,0,0,1.16-2.14c0-1.46-1.15-2.19-3.44-2.19h-5.35Zm2.87-10.58h5.23a5.42,5.42,0,0,0,3.13-.76,2.39,2.39,0,0,0,1.1-2.08c0-1.38-1.12-2.07-3.35-2.07h-4.83Z"/><path class="cls-2" d="M911.35,28.51,918.82.56h7.74l-2.35,8.78h3.47a11.42,11.42,0,0,1,7.47,2.26,7.09,7.09,0,0,1,2.75,5.73,9.89,9.89,0,0,1-3.73,8.22,15.08,15.08,0,0,1-9.64,3ZM920.81,22h4a6.59,6.59,0,0,0,3.66-.94A3.19,3.19,0,0,0,930,18.17a2.48,2.48,0,0,0-.93-2,3.88,3.88,0,0,0-2.58-.8h-3.83Zm17.41,6.51L945.69.56h7.74l-7.47,28Z"/><path class="cls-2" d="M524,29a13.3,13.3,0,0,1-9.62-3.58,11.9,11.9,0,0,1-3.72-9,15.74,15.74,0,0,1,1.26-6.15,17.35,17.35,0,0,1,3.42-5.27,16,16,0,0,1,5.29-3.65A16.34,16.34,0,0,1,527.3,0a13.33,13.33,0,0,1,9.63,3.57,12,12,0,0,1,3.71,9,15.66,15.66,0,0,1-1.26,6.14A17.56,17.56,0,0,1,536,24a16.66,16.66,0,0,1-12,5Zm.68-7a7.18,7.18,0,0,0,5.79-2.78,9.41,9.41,0,0,0,2.27-6.12,6.27,6.27,0,0,0-1.61-4.48A5.9,5.9,0,0,0,526.62,7a7.16,7.16,0,0,0-5.76,2.79,9.37,9.37,0,0,0-2.3,6.11,6.23,6.23,0,0,0,1.62,4.47A5.83,5.83,0,0,0,524.67,22.08Z"/><path class="cls-2" d="M544.27,28.51,550,7.35H541.6L543.43.56h24.48l-1.8,6.79h-8.38l-5.67,21.16Z"/><path class="cls-2" d="M574.26,29.07q-7.87,0-11.46-5.31L568,19.28a8.12,8.12,0,0,0,6.39,3.24,4.94,4.94,0,0,0,3.11-.9,2.63,2.63,0,0,0,1.16-2.1q0-2.19-3.48-2.19h-2.87l1.56-5.83h2.71a6,6,0,0,0,3.19-.74,2.3,2.3,0,0,0,1.2-2.06,1.82,1.82,0,0,0-.82-1.55,3.28,3.28,0,0,0-2-.6q-2.88,0-6.15,2.71l-4-4.87A15.4,15.4,0,0,1,579.05,0a10.87,10.87,0,0,1,7,2.12,6.35,6.35,0,0,1,2.62,5.11q0,5.55-6.51,7.34,4.15,1.52,4.15,5.63a7.6,7.6,0,0,1-3.41,6.37A14.37,14.37,0,0,1,574.26,29.07Z"/><path class="cls-2" d="M588.11,28.51,595.58.56h7.74L601,9.34h3.47a11.38,11.38,0,0,1,7.46,2.26,7.07,7.07,0,0,1,2.76,5.73,9.89,9.89,0,0,1-3.73,8.22,15.09,15.09,0,0,1-9.65,3ZM597.57,22h4a6.59,6.59,0,0,0,3.66-.94,3.19,3.19,0,0,0,1.45-2.89,2.48,2.48,0,0,0-.93-2,3.88,3.88,0,0,0-2.58-.8h-3.83ZM615,28.51,622.45.56h7.74l-7.47,28Z"/><path class="cls-2" d="M627.52,28.51,635,.56h11.62c3.57,0,6.14.62,7.73,1.88a5.88,5.88,0,0,1,2.37,4.83,6.61,6.61,0,0,1-1.66,4.55,8.67,8.67,0,0,1-4.61,2.59c2.82,1,4.24,2.88,4.24,5.59a7.27,7.27,0,0,1-3.24,6.15q-3.24,2.36-9.46,2.36Zm9.22-6.23h5.87a5.33,5.33,0,0,0,3.15-.82,2.52,2.52,0,0,0,1.16-2.14c0-1.46-1.15-2.19-3.43-2.19h-5.35Zm2.87-10.58h5.23a5.46,5.46,0,0,0,3.14-.76,2.41,2.41,0,0,0,1.1-2.08q0-2.07-3.36-2.07h-4.83Z"/><path class="cls-2" d="M656,28.51,663.49.56h7.74l-2.35,8.78h3.47a11.42,11.42,0,0,1,7.47,2.26,7.09,7.09,0,0,1,2.75,5.73,9.89,9.89,0,0,1-3.73,8.22,15.06,15.06,0,0,1-9.64,3ZM665.48,22h4a6.58,6.58,0,0,0,3.65-.94,3.2,3.2,0,0,0,1.46-2.89,2.49,2.49,0,0,0-.94-2,3.87,3.87,0,0,0-2.58-.8h-3.83Zm17.41,6.51L690.36.56h7.74l-7.46,28Z"/><path class="cls-2" d="M268.66,29A13.31,13.31,0,0,1,259,25.45a11.93,11.93,0,0,1-3.71-9,15.91,15.91,0,0,1,1.25-6.15A17.35,17.35,0,0,1,260,5.07a16.11,16.11,0,0,1,5.29-3.65A16.42,16.42,0,0,1,272,0a13.31,13.31,0,0,1,9.62,3.57,12,12,0,0,1,3.71,9,15.66,15.66,0,0,1-1.26,6.14A17.18,17.18,0,0,1,280.64,24a16.66,16.66,0,0,1-12,5Zm.68-7a7.18,7.18,0,0,0,5.79-2.78,9.42,9.42,0,0,0,2.28-6.12,6.27,6.27,0,0,0-1.62-4.48A5.89,5.89,0,0,0,271.3,7a7.16,7.16,0,0,0-5.77,2.79,9.42,9.42,0,0,0-2.3,6.11,6.23,6.23,0,0,0,1.62,4.47A5.85,5.85,0,0,0,269.34,22.08Z"/><path class="cls-2" d="M288.94,28.51l5.71-21.16h-8.38L288.11.56h24.47l-1.8,6.79H302.4l-5.67,21.16Z"/><path class="cls-2" d="M318.93,29.07q-7.87,0-11.46-5.31l5.15-4.48A8.12,8.12,0,0,0,319,22.52a4.94,4.94,0,0,0,3.11-.9,2.63,2.63,0,0,0,1.16-2.1c0-1.46-1.16-2.19-3.47-2.19h-2.88l1.56-5.83h2.71a6.09,6.09,0,0,0,3.2-.74,2.3,2.3,0,0,0,1.2-2.06,1.85,1.85,0,0,0-.82-1.55,3.33,3.33,0,0,0-2-.6q-2.88,0-6.15,2.71l-3.95-4.87A15.42,15.42,0,0,1,323.72,0a10.91,10.91,0,0,1,7,2.12,6.37,6.37,0,0,1,2.61,5.11q0,5.55-6.51,7.34Q331,16.09,331,20.2a7.58,7.58,0,0,1-3.42,6.37A14.35,14.35,0,0,1,318.93,29.07Z"/><path class="cls-2" d="M332.78,28.51,340.25.56H348l-2.35,8.78h3.47a11.42,11.42,0,0,1,7.47,2.26,7.09,7.09,0,0,1,2.75,5.73,9.89,9.89,0,0,1-3.73,8.22,15.06,15.06,0,0,1-9.64,3ZM342.24,22h4a6.58,6.58,0,0,0,3.65-.94,3.2,3.2,0,0,0,1.46-2.89,2.49,2.49,0,0,0-.94-2,3.88,3.88,0,0,0-2.58-.8H344Zm17.41,6.51L367.12.56h7.74l-7.46,28Z"/><path class="cls-2" d="M372.19,28.51,379.69.56h11.62c3.57,0,6.14.62,7.73,1.88a5.88,5.88,0,0,1,2.37,4.83,6.65,6.65,0,0,1-1.65,4.55,8.71,8.71,0,0,1-4.61,2.59c2.82,1,4.23,2.88,4.23,5.59a7.27,7.27,0,0,1-3.24,6.15c-2.15,1.57-5.31,2.36-9.46,2.36Zm9.22-6.23h5.87a5.33,5.33,0,0,0,3.15-.82,2.5,2.5,0,0,0,1.16-2.14c0-1.46-1.14-2.19-3.43-2.19h-5.35Zm2.88-10.58h5.23a5.44,5.44,0,0,0,3.13-.76,2.41,2.41,0,0,0,1.1-2.08q0-2.07-3.36-2.07h-4.83Z"/><path class="cls-2" d="M400.69,28.51,408.16.56h7.75l-2.36,8.78H417a11.42,11.42,0,0,1,7.47,2.26,7.07,7.07,0,0,1,2.76,5.73,9.9,9.9,0,0,1-3.74,8.22,15.06,15.06,0,0,1-9.64,3ZM410.16,22h4a6.58,6.58,0,0,0,3.65-.94,3.2,3.2,0,0,0,1.46-2.89,2.46,2.46,0,0,0-.94-2,3.84,3.84,0,0,0-2.57-.8H412Zm17.4,6.51L435,.56h7.75l-7.47,28Z"/><path class="cls-2" d="M13.34,29a13.34,13.34,0,0,1-9.63-3.58,11.93,11.93,0,0,1-3.71-9,15.74,15.74,0,0,1,1.26-6.15A17.32,17.32,0,0,1,4.67,5.07,16.11,16.11,0,0,1,10,1.42,16.42,16.42,0,0,1,16.65,0a13.29,13.29,0,0,1,9.62,3.57,11.92,11.92,0,0,1,3.71,9,15.82,15.82,0,0,1-1.25,6.14A17.4,17.4,0,0,1,25.31,24,16.15,16.15,0,0,1,20,27.65,16.41,16.41,0,0,1,13.34,29Zm.67-7A7.15,7.15,0,0,0,19.8,19.3a9.42,9.42,0,0,0,2.28-6.12A6.27,6.27,0,0,0,20.46,8.7,5.88,5.88,0,0,0,16,7,7.16,7.16,0,0,0,10.2,9.78a9.41,9.41,0,0,0-2.29,6.11,6.23,6.23,0,0,0,1.61,4.47A5.86,5.86,0,0,0,14,22.08Z"/><path class="cls-2" d="M33.62,28.51,39.33,7.35H30.94L32.78.56H57.25L55.46,7.35H47.07L41.4,28.51Z"/><path class="cls-2" d="M63.6,29.07q-7.86,0-11.46-5.31l5.15-4.48a8.12,8.12,0,0,0,6.39,3.24,4.94,4.94,0,0,0,3.11-.9A2.6,2.6,0,0,0,68,19.52c0-1.46-1.16-2.19-3.47-2.19H61.6l1.56-5.83h2.72a6,6,0,0,0,3.19-.74,2.3,2.3,0,0,0,1.2-2.06,1.85,1.85,0,0,0-.82-1.55,3.33,3.33,0,0,0-2-.6q-2.87,0-6.15,2.71l-4-4.87A15.42,15.42,0,0,1,68.39,0a10.89,10.89,0,0,1,7,2.12,6.37,6.37,0,0,1,2.61,5.11q0,5.55-6.5,7.34c2.76,1,4.15,2.89,4.15,5.63a7.58,7.58,0,0,1-3.42,6.37A14.35,14.35,0,0,1,63.6,29.07Z"/><path class="cls-2" d="M77.45,28.51,84.92.56h7.75L90.31,9.34h3.47a11.42,11.42,0,0,1,7.47,2.26A7.07,7.07,0,0,1,104,17.33a9.9,9.9,0,0,1-3.74,8.22,15.06,15.06,0,0,1-9.64,3ZM86.92,22h4a6.58,6.58,0,0,0,3.65-.94,3.2,3.2,0,0,0,1.46-2.89,2.46,2.46,0,0,0-.94-2,3.84,3.84,0,0,0-2.57-.8H88.71Zm17.4,6.51L111.79.56h7.75l-7.47,28Z"/><path class="cls-2" d="M116.86,28.51,124.37.56H136c3.56,0,6.14.62,7.72,1.88a5.89,5.89,0,0,1,2.38,4.83,6.66,6.66,0,0,1-1.66,4.55,8.71,8.71,0,0,1-4.61,2.59c2.82,1,4.23,2.88,4.23,5.59a7.28,7.28,0,0,1-3.23,6.15c-2.16,1.57-5.31,2.36-9.47,2.36Zm9.22-6.23H132a5.36,5.36,0,0,0,3.16-.82,2.52,2.52,0,0,0,1.16-2.14c0-1.46-1.15-2.19-3.44-2.19h-5.35ZM129,11.7h5.23a5.42,5.42,0,0,0,3.13-.76,2.41,2.41,0,0,0,1.1-2.08c0-1.38-1.12-2.07-3.35-2.07h-4.83Z"/><path class="cls-2" d="M145.37,28.51,152.83.56h7.75l-2.36,8.78h3.48a11.38,11.38,0,0,1,7.46,2.26,7.07,7.07,0,0,1,2.76,5.73,9.9,9.9,0,0,1-3.74,8.22,15,15,0,0,1-9.64,3ZM154.83,22h4a6.61,6.61,0,0,0,3.66-.94A3.19,3.19,0,0,0,164,18.17a2.46,2.46,0,0,0-.94-2,3.84,3.84,0,0,0-2.57-.8h-3.83Zm17.41,6.51L179.7.56h7.75l-7.47,28Z"/><path class="cls-2" d="M779.32,127a13.26,13.26,0,0,1-9.62-3.58,11.9,11.9,0,0,1-3.72-9,15.74,15.74,0,0,1,1.26-6.15,17.64,17.64,0,0,1,3.41-5.27,16.11,16.11,0,0,1,5.29-3.65A16.42,16.42,0,0,1,782.63,98a13.29,13.29,0,0,1,9.62,3.57,11.93,11.93,0,0,1,3.72,9,15.74,15.74,0,0,1-1.26,6.15,17.47,17.47,0,0,1-3.42,5.27,16.22,16.22,0,0,1-5.28,3.65A16.42,16.42,0,0,1,779.32,127Zm.68-7a7.17,7.17,0,0,0,5.79-2.77,9.49,9.49,0,0,0,2.27-6.13,6.23,6.23,0,0,0-1.62-4.47A5.83,5.83,0,0,0,782,105a7.18,7.18,0,0,0-5.77,2.79,9.43,9.43,0,0,0-2.29,6.11,6.27,6.27,0,0,0,1.61,4.47A5.87,5.87,0,0,0,780,120.08Z"/><path class="cls-2" d="M799.6,126.51l5.71-21.16h-8.39l1.84-6.79h24.47l-1.79,6.79h-8.39l-5.67,21.16Z"/><path class="cls-2" d="M829.58,127.07q-7.86,0-11.46-5.31l5.15-4.47a8.14,8.14,0,0,0,6.39,3.23,5,5,0,0,0,3.12-.9,2.61,2.61,0,0,0,1.15-2.09c0-1.47-1.15-2.2-3.47-2.2h-2.87l1.55-5.83h2.72a6,6,0,0,0,3.19-.74,2.3,2.3,0,0,0,1.2-2.05,1.84,1.84,0,0,0-.82-1.56,3.3,3.3,0,0,0-2-.6q-2.88,0-6.15,2.71l-4-4.87A15.46,15.46,0,0,1,834.37,98a10.88,10.88,0,0,1,7,2.12,6.38,6.38,0,0,1,2.62,5.11q0,5.55-6.51,7.34c2.77,1,4.15,2.89,4.15,5.63a7.58,7.58,0,0,1-3.41,6.37A14.31,14.31,0,0,1,829.58,127.07Z"/><path class="cls-2" d="M843.44,126.51l7.46-27.95h7.75l-2.36,8.78h3.48a11.43,11.43,0,0,1,7.46,2.26,7.07,7.07,0,0,1,2.76,5.73,9.9,9.9,0,0,1-3.74,8.22,15.06,15.06,0,0,1-9.64,3ZM852.9,120h4a6.58,6.58,0,0,0,3.65-.94,3.18,3.18,0,0,0,1.46-2.89,2.47,2.47,0,0,0-.94-2,3.84,3.84,0,0,0-2.57-.8H854.7Zm17.41,6.51,7.46-27.95h7.75l-7.47,28Z"/><path class="cls-2" d="M882.84,126.51l7.51-27.95H902c3.56,0,6.14.63,7.72,1.88a5.87,5.87,0,0,1,2.38,4.83,6.61,6.61,0,0,1-1.66,4.55,8.61,8.61,0,0,1-4.61,2.59Q910,113.94,910,118a7.28,7.28,0,0,1-3.23,6.15q-3.24,2.35-9.46,2.36Zm9.23-6.23h5.87a5.33,5.33,0,0,0,3.15-.82,2.51,2.51,0,0,0,1.16-2.13c0-1.47-1.15-2.2-3.44-2.2h-5.35Zm2.87-10.58h5.23a5.42,5.42,0,0,0,3.13-.76,2.37,2.37,0,0,0,1.1-2.08c0-1.38-1.12-2.07-3.35-2.07h-4.83Z"/><path class="cls-2" d="M911.35,126.51l7.47-27.95h7.74l-2.35,8.78h3.47a11.48,11.48,0,0,1,7.47,2.26,7.09,7.09,0,0,1,2.75,5.73,9.89,9.89,0,0,1-3.73,8.22,15.08,15.08,0,0,1-9.64,3Zm9.46-6.51h4a6.59,6.59,0,0,0,3.66-.94,3.19,3.19,0,0,0,1.45-2.89,2.49,2.49,0,0,0-.93-2,3.88,3.88,0,0,0-2.58-.8h-3.83Zm17.41,6.51,7.47-27.95h7.74l-7.47,28Z"/><path class="cls-2" d="M524,127a13.26,13.26,0,0,1-9.62-3.58,11.9,11.9,0,0,1-3.72-9,15.74,15.74,0,0,1,1.26-6.15,17.47,17.47,0,0,1,3.42-5.27,16,16,0,0,1,5.29-3.65A16.34,16.34,0,0,1,527.3,98a13.33,13.33,0,0,1,9.63,3.57,12,12,0,0,1,3.71,9,15.74,15.74,0,0,1-1.26,6.15A17.64,17.64,0,0,1,536,122a16.66,16.66,0,0,1-12,5Zm.68-7a7.17,7.17,0,0,0,5.79-2.77,9.43,9.43,0,0,0,2.27-6.13,6.23,6.23,0,0,0-1.61-4.47,5.87,5.87,0,0,0-4.5-1.72,7.16,7.16,0,0,0-5.76,2.79,9.39,9.39,0,0,0-2.3,6.11,6.23,6.23,0,0,0,1.62,4.47A5.83,5.83,0,0,0,524.67,120.08Z"/><path class="cls-2" d="M544.27,126.51,550,105.35H541.6l1.83-6.79h24.48l-1.8,6.79h-8.38l-5.67,21.16Z"/><path class="cls-2" d="M574.26,127.07q-7.87,0-11.46-5.31l5.15-4.47a8.14,8.14,0,0,0,6.39,3.23,4.94,4.94,0,0,0,3.11-.9,2.62,2.62,0,0,0,1.16-2.09c0-1.47-1.16-2.2-3.48-2.2h-2.87l1.56-5.83h2.71a6,6,0,0,0,3.19-.74,2.3,2.3,0,0,0,1.2-2.05,1.84,1.84,0,0,0-.82-1.56,3.28,3.28,0,0,0-2-.6q-2.88,0-6.15,2.71l-4-4.87A15.44,15.44,0,0,1,579.05,98a10.87,10.87,0,0,1,7,2.12,6.35,6.35,0,0,1,2.62,5.11q0,5.55-6.51,7.34c2.77,1,4.15,2.89,4.15,5.63a7.58,7.58,0,0,1-3.41,6.37A14.3,14.3,0,0,1,574.26,127.07Z"/><path class="cls-2" d="M588.11,126.51l7.47-27.95h7.74L601,107.34h3.47a11.43,11.43,0,0,1,7.46,2.26,7.07,7.07,0,0,1,2.76,5.73,9.89,9.89,0,0,1-3.73,8.22,15.09,15.09,0,0,1-9.65,3Zm9.46-6.51h4a6.59,6.59,0,0,0,3.66-.94,3.19,3.19,0,0,0,1.45-2.89,2.49,2.49,0,0,0-.93-2,3.88,3.88,0,0,0-2.58-.8h-3.83ZM615,126.51l7.47-27.95h7.74l-7.47,28Z"/><path class="cls-2" d="M627.52,126.51,635,98.56h11.62c3.57,0,6.14.63,7.73,1.88a5.88,5.88,0,0,1,2.37,4.83,6.61,6.61,0,0,1-1.66,4.55,8.61,8.61,0,0,1-4.61,2.59c2.82,1,4.24,2.88,4.24,5.59a7.27,7.27,0,0,1-3.24,6.15q-3.24,2.35-9.46,2.36Zm9.22-6.23h5.87a5.33,5.33,0,0,0,3.15-.82,2.51,2.51,0,0,0,1.16-2.13c0-1.47-1.15-2.2-3.43-2.2h-5.35Zm2.87-10.58h5.23a5.46,5.46,0,0,0,3.14-.76,2.4,2.4,0,0,0,1.1-2.08q0-2.07-3.36-2.07h-4.83Z"/><path class="cls-2" d="M656,126.51l7.47-27.95h7.74l-2.35,8.78h3.47a11.48,11.48,0,0,1,7.47,2.26,7.09,7.09,0,0,1,2.75,5.73,9.89,9.89,0,0,1-3.73,8.22,15.06,15.06,0,0,1-9.64,3Zm9.46-6.51h4a6.58,6.58,0,0,0,3.65-.94,3.2,3.2,0,0,0,1.46-2.89,2.5,2.5,0,0,0-.94-2,3.87,3.87,0,0,0-2.58-.8h-3.83Zm17.41,6.51,7.47-27.95h7.74l-7.46,28Z"/><path class="cls-2" d="M268.66,127a13.27,13.27,0,0,1-9.62-3.58,11.93,11.93,0,0,1-3.71-9,15.91,15.91,0,0,1,1.25-6.15,17.47,17.47,0,0,1,3.42-5.27,16.11,16.11,0,0,1,5.29-3.65A16.42,16.42,0,0,1,272,98a13.31,13.31,0,0,1,9.62,3.57,12,12,0,0,1,3.71,9,15.74,15.74,0,0,1-1.26,6.15,17.26,17.26,0,0,1-3.41,5.27,16.66,16.66,0,0,1-12,5Zm.68-7a7.17,7.17,0,0,0,5.79-2.77,9.45,9.45,0,0,0,2.28-6.13,6.23,6.23,0,0,0-1.62-4.47A5.86,5.86,0,0,0,271.3,105a7.16,7.16,0,0,0-5.77,2.79,9.44,9.44,0,0,0-2.3,6.11,6.23,6.23,0,0,0,1.62,4.47A5.85,5.85,0,0,0,269.34,120.08Z"/><path class="cls-2" d="M288.94,126.51l5.71-21.16h-8.38l1.84-6.79h24.47l-1.8,6.79H302.4l-5.67,21.16Z"/><path class="cls-2" d="M318.93,127.07q-7.87,0-11.46-5.31l5.15-4.47a8.14,8.14,0,0,0,6.39,3.23,4.94,4.94,0,0,0,3.11-.9,2.62,2.62,0,0,0,1.16-2.09c0-1.47-1.16-2.2-3.47-2.2h-2.88l1.56-5.83h2.71a6.09,6.09,0,0,0,3.2-.74,2.3,2.3,0,0,0,1.2-2.05,1.87,1.87,0,0,0-.82-1.56,3.33,3.33,0,0,0-2-.6q-2.88,0-6.15,2.71l-3.95-4.87A15.46,15.46,0,0,1,323.72,98a10.91,10.91,0,0,1,7,2.12,6.37,6.37,0,0,1,2.61,5.11q0,5.55-6.51,7.34c2.77,1,4.16,2.89,4.16,5.63a7.57,7.57,0,0,1-3.42,6.37A14.28,14.28,0,0,1,318.93,127.07Z"/><path class="cls-2" d="M332.78,126.51l7.47-27.95H348l-2.35,8.78h3.47a11.48,11.48,0,0,1,7.47,2.26,7.09,7.09,0,0,1,2.75,5.73,9.89,9.89,0,0,1-3.73,8.22,15.06,15.06,0,0,1-9.64,3Zm9.46-6.51h4a6.58,6.58,0,0,0,3.65-.94,3.2,3.2,0,0,0,1.46-2.89,2.5,2.5,0,0,0-.94-2,3.88,3.88,0,0,0-2.58-.8H344Zm17.41,6.51,7.47-27.95h7.74l-7.46,28Z"/><path class="cls-2" d="M372.19,126.51l7.5-27.95h11.62c3.57,0,6.14.63,7.73,1.88a5.88,5.88,0,0,1,2.37,4.83,6.65,6.65,0,0,1-1.65,4.55,8.65,8.65,0,0,1-4.61,2.59q4.23,1.53,4.23,5.59a7.27,7.27,0,0,1-3.24,6.15c-2.15,1.57-5.31,2.36-9.46,2.36Zm9.22-6.23h5.87a5.33,5.33,0,0,0,3.15-.82,2.48,2.48,0,0,0,1.16-2.13c0-1.47-1.14-2.2-3.43-2.2h-5.35Zm2.88-10.58h5.23a5.44,5.44,0,0,0,3.13-.76,2.4,2.4,0,0,0,1.1-2.08q0-2.07-3.36-2.07h-4.83Z"/><path class="cls-2" d="M400.69,126.51l7.47-27.95h7.75l-2.36,8.78H417a11.48,11.48,0,0,1,7.47,2.26,7.07,7.07,0,0,1,2.76,5.73,9.9,9.9,0,0,1-3.74,8.22,15.06,15.06,0,0,1-9.64,3Zm9.47-6.51h4a6.58,6.58,0,0,0,3.65-.94,3.2,3.2,0,0,0,1.46-2.89,2.47,2.47,0,0,0-.94-2,3.84,3.84,0,0,0-2.57-.8H412Zm17.4,6.51L435,98.56h7.75l-7.47,28Z"/><path class="cls-2" d="M13.34,127a13.3,13.3,0,0,1-9.63-3.58,11.93,11.93,0,0,1-3.71-9,15.74,15.74,0,0,1,1.26-6.15,17.44,17.44,0,0,1,3.41-5.27A16.11,16.11,0,0,1,10,99.42,16.42,16.42,0,0,1,16.65,98a13.29,13.29,0,0,1,9.62,3.57,11.92,11.92,0,0,1,3.71,9,15.91,15.91,0,0,1-1.25,6.15A17.47,17.47,0,0,1,25.31,122,16.15,16.15,0,0,1,20,125.65,16.41,16.41,0,0,1,13.34,127Zm.67-7a7.14,7.14,0,0,0,5.79-2.77,9.45,9.45,0,0,0,2.28-6.13,6.23,6.23,0,0,0-1.62-4.47A5.85,5.85,0,0,0,16,105a7.16,7.16,0,0,0-5.77,2.79,9.43,9.43,0,0,0-2.29,6.11,6.23,6.23,0,0,0,1.61,4.47A5.86,5.86,0,0,0,14,120.08Z"/><path class="cls-2" d="M33.62,126.51l5.71-21.16H30.94l1.84-6.79H57.25l-1.79,6.79H47.07L41.4,126.51Z"/><path class="cls-2" d="M63.6,127.07q-7.86,0-11.46-5.31l5.15-4.47a8.14,8.14,0,0,0,6.39,3.23,4.94,4.94,0,0,0,3.11-.9A2.6,2.6,0,0,0,68,117.53c0-1.47-1.16-2.2-3.47-2.2H61.6l1.56-5.83h2.72a6,6,0,0,0,3.19-.74,2.3,2.3,0,0,0,1.2-2.05,1.87,1.87,0,0,0-.82-1.56,3.33,3.33,0,0,0-2-.6q-2.87,0-6.15,2.71l-4-4.87A15.46,15.46,0,0,1,68.39,98a10.89,10.89,0,0,1,7,2.12,6.37,6.37,0,0,1,2.61,5.11q0,5.55-6.5,7.34c2.76,1,4.15,2.89,4.15,5.63a7.57,7.57,0,0,1-3.42,6.37A14.28,14.28,0,0,1,63.6,127.07Z"/><path class="cls-2" d="M77.45,126.51l7.47-27.95h7.75l-2.36,8.78h3.47a11.48,11.48,0,0,1,7.47,2.26,7.07,7.07,0,0,1,2.76,5.73,9.9,9.9,0,0,1-3.74,8.22,15.06,15.06,0,0,1-9.64,3ZM86.92,120h4a6.58,6.58,0,0,0,3.65-.94,3.2,3.2,0,0,0,1.46-2.89,2.47,2.47,0,0,0-.94-2,3.84,3.84,0,0,0-2.57-.8H88.71Zm17.4,6.51,7.47-27.95h7.75l-7.47,28Z"/><path class="cls-2" d="M116.86,126.51l7.51-27.95H136c3.56,0,6.14.63,7.72,1.88a5.89,5.89,0,0,1,2.38,4.83,6.66,6.66,0,0,1-1.66,4.55,8.65,8.65,0,0,1-4.61,2.59q4.23,1.53,4.23,5.59a7.28,7.28,0,0,1-3.23,6.15c-2.16,1.57-5.31,2.36-9.47,2.36Zm9.22-6.23H132a5.36,5.36,0,0,0,3.16-.82,2.51,2.51,0,0,0,1.16-2.13c0-1.47-1.15-2.2-3.44-2.2h-5.35ZM129,109.7h5.23a5.42,5.42,0,0,0,3.13-.76,2.4,2.4,0,0,0,1.1-2.08c0-1.38-1.12-2.07-3.35-2.07h-4.83Z"/><path class="cls-2" d="M145.37,126.51l7.46-27.95h7.75l-2.36,8.78h3.48a11.43,11.43,0,0,1,7.46,2.26,7.07,7.07,0,0,1,2.76,5.73,9.9,9.9,0,0,1-3.74,8.22,15,15,0,0,1-9.64,3Zm9.46-6.51h4a6.61,6.61,0,0,0,3.66-.94,3.19,3.19,0,0,0,1.45-2.89,2.47,2.47,0,0,0-.94-2,3.84,3.84,0,0,0-2.57-.8h-3.83Zm17.41,6.51,7.46-27.95h7.75l-7.47,28Z"/><path class="cls-2" d="M779.32,225a13.29,13.29,0,0,1-9.62-3.57,11.93,11.93,0,0,1-3.72-9,15.74,15.74,0,0,1,1.26-6.15,17.64,17.64,0,0,1,3.41-5.27,16.66,16.66,0,0,1,12-5,13.26,13.26,0,0,1,9.62,3.58,11.9,11.9,0,0,1,3.72,9,15.74,15.74,0,0,1-1.26,6.15,17.47,17.47,0,0,1-3.42,5.27,16.06,16.06,0,0,1-5.28,3.65A16.42,16.42,0,0,1,779.32,225Zm.68-6.95a7.17,7.17,0,0,0,5.79-2.77,9.49,9.49,0,0,0,2.27-6.13,6.23,6.23,0,0,0-1.62-4.47A5.83,5.83,0,0,0,782,203a7.18,7.18,0,0,0-5.77,2.79,9.43,9.43,0,0,0-2.29,6.11,6.27,6.27,0,0,0,1.61,4.47A5.87,5.87,0,0,0,780,218.08Z"/><path class="cls-2" d="M799.6,224.51l5.71-21.16h-8.39l1.84-6.79h24.47l-1.79,6.79h-8.39l-5.67,21.16Z"/><path class="cls-2" d="M829.58,225.07q-7.86,0-11.46-5.31l5.15-4.47a8.14,8.14,0,0,0,6.39,3.23,5,5,0,0,0,3.12-.9,2.6,2.6,0,0,0,1.15-2.09c0-1.47-1.15-2.2-3.47-2.2h-2.87l1.55-5.83h2.72a6,6,0,0,0,3.19-.74,2.28,2.28,0,0,0,1.2-2,1.84,1.84,0,0,0-.82-1.56,3.3,3.3,0,0,0-2-.6q-2.88,0-6.15,2.72l-4-4.88A15.46,15.46,0,0,1,834.37,196a10.88,10.88,0,0,1,7,2.12,6.38,6.38,0,0,1,2.62,5.11q0,5.55-6.51,7.35c2.77,1,4.15,2.88,4.15,5.63a7.58,7.58,0,0,1-3.41,6.36A14.31,14.31,0,0,1,829.58,225.07Z"/><path class="cls-2" d="M843.44,224.51l7.46-27.95h7.75l-2.36,8.79h3.48a11.43,11.43,0,0,1,7.46,2.25,7.1,7.1,0,0,1,2.76,5.73,9.92,9.92,0,0,1-3.74,8.23,15.06,15.06,0,0,1-9.64,2.95ZM852.9,218h4a6.58,6.58,0,0,0,3.65-.94,3.18,3.18,0,0,0,1.46-2.89,2.48,2.48,0,0,0-.94-2,3.84,3.84,0,0,0-2.57-.8H854.7Zm17.41,6.51,7.46-27.95h7.75l-7.47,27.95Z"/><path class="cls-2" d="M882.84,224.51l7.51-27.95H902c3.56,0,6.14.63,7.72,1.88a5.87,5.87,0,0,1,2.38,4.83,6.61,6.61,0,0,1-1.66,4.55,8.69,8.69,0,0,1-4.61,2.6Q910,211.94,910,216a7.28,7.28,0,0,1-3.23,6.14c-2.16,1.58-5.31,2.36-9.46,2.36Zm9.23-6.23h5.87a5.33,5.33,0,0,0,3.15-.82,2.49,2.49,0,0,0,1.16-2.13c0-1.47-1.15-2.2-3.44-2.2h-5.35Zm2.87-10.58h5.23a5.42,5.42,0,0,0,3.13-.76,2.37,2.37,0,0,0,1.1-2.07c0-1.39-1.12-2.08-3.35-2.08h-4.83Z"/><path class="cls-2" d="M911.35,224.51l7.47-27.95h7.74l-2.35,8.79h3.47a11.48,11.48,0,0,1,7.47,2.25,7.12,7.12,0,0,1,2.75,5.73,9.91,9.91,0,0,1-3.73,8.23,15.08,15.08,0,0,1-9.64,2.95Zm9.46-6.51h4a6.59,6.59,0,0,0,3.66-.94,3.19,3.19,0,0,0,1.45-2.89,2.5,2.5,0,0,0-.93-2,3.88,3.88,0,0,0-2.58-.8h-3.83Zm17.41,6.51,7.47-27.95h7.74L946,224.51Z"/><path class="cls-2" d="M524,225a13.29,13.29,0,0,1-9.62-3.57,11.93,11.93,0,0,1-3.72-9,15.74,15.74,0,0,1,1.26-6.15,17.47,17.47,0,0,1,3.42-5.27,16.15,16.15,0,0,1,5.29-3.65A16.34,16.34,0,0,1,527.3,196a13.3,13.3,0,0,1,9.63,3.58,11.93,11.93,0,0,1,3.71,9,15.74,15.74,0,0,1-1.26,6.15A17.64,17.64,0,0,1,536,220a16.11,16.11,0,0,1-5.29,3.65A16.42,16.42,0,0,1,524,225Zm.68-6.95a7.17,7.17,0,0,0,5.79-2.77,9.43,9.43,0,0,0,2.27-6.13,6.23,6.23,0,0,0-1.61-4.47,5.87,5.87,0,0,0-4.5-1.72,7.16,7.16,0,0,0-5.76,2.79,9.39,9.39,0,0,0-2.3,6.11,6.23,6.23,0,0,0,1.62,4.47A5.83,5.83,0,0,0,524.67,218.08Z"/><path class="cls-2" d="M544.27,224.51,550,203.35H541.6l1.83-6.79h24.48l-1.8,6.79h-8.38l-5.67,21.16Z"/><path class="cls-2" d="M574.26,225.07q-7.87,0-11.46-5.31l5.15-4.47a8.14,8.14,0,0,0,6.39,3.23,4.94,4.94,0,0,0,3.11-.9,2.61,2.61,0,0,0,1.16-2.09c0-1.47-1.16-2.2-3.48-2.2h-2.87l1.56-5.83h2.71a5.93,5.93,0,0,0,3.19-.74,2.28,2.28,0,0,0,1.2-2,1.84,1.84,0,0,0-.82-1.56,3.28,3.28,0,0,0-2-.6q-2.88,0-6.15,2.72l-4-4.88A15.44,15.44,0,0,1,579.05,196a10.87,10.87,0,0,1,7,2.12,6.35,6.35,0,0,1,2.62,5.11q0,5.55-6.51,7.35c2.77,1,4.15,2.88,4.15,5.63a7.58,7.58,0,0,1-3.41,6.36A14.3,14.3,0,0,1,574.26,225.07Z"/><path class="cls-2" d="M588.11,224.51l7.47-27.95h7.74L601,205.35h3.47a11.43,11.43,0,0,1,7.46,2.25,7.1,7.1,0,0,1,2.76,5.73,9.91,9.91,0,0,1-3.73,8.23,15.09,15.09,0,0,1-9.65,2.95Zm9.46-6.51h4a6.59,6.59,0,0,0,3.66-.94,3.19,3.19,0,0,0,1.45-2.89,2.5,2.5,0,0,0-.93-2,3.88,3.88,0,0,0-2.58-.8h-3.83ZM615,224.51l7.47-27.95h7.74l-7.47,27.95Z"/><path class="cls-2" d="M627.52,224.51l7.5-27.95h11.62c3.57,0,6.14.63,7.73,1.88a5.88,5.88,0,0,1,2.37,4.83,6.61,6.61,0,0,1-1.66,4.55,8.69,8.69,0,0,1-4.61,2.6c2.82,1,4.24,2.87,4.24,5.59a7.27,7.27,0,0,1-3.24,6.14c-2.16,1.58-5.31,2.36-9.46,2.36Zm9.22-6.23h5.87a5.33,5.33,0,0,0,3.15-.82,2.49,2.49,0,0,0,1.16-2.13c0-1.47-1.15-2.2-3.43-2.2h-5.35Zm2.87-10.58h5.23a5.46,5.46,0,0,0,3.14-.76,2.39,2.39,0,0,0,1.1-2.07c0-1.39-1.12-2.08-3.36-2.08h-4.83Z"/><path class="cls-2" d="M656,224.51l7.47-27.95h7.74l-2.35,8.79h3.47a11.48,11.48,0,0,1,7.47,2.25,7.12,7.12,0,0,1,2.75,5.73,9.91,9.91,0,0,1-3.73,8.23,15.06,15.06,0,0,1-9.64,2.95Zm9.46-6.51h4a6.58,6.58,0,0,0,3.65-.94,3.2,3.2,0,0,0,1.46-2.89,2.51,2.51,0,0,0-.94-2,3.87,3.87,0,0,0-2.58-.8h-3.83Zm17.41,6.51,7.47-27.95h7.74l-7.46,27.95Z"/><path class="cls-2" d="M268.66,225a13.31,13.31,0,0,1-9.62-3.57,12,12,0,0,1-3.71-9,15.91,15.91,0,0,1,1.25-6.15,17.47,17.47,0,0,1,3.42-5.27,16.66,16.66,0,0,1,12-5,13.27,13.27,0,0,1,9.62,3.58,11.93,11.93,0,0,1,3.71,9,15.74,15.74,0,0,1-1.26,6.15,17.26,17.26,0,0,1-3.41,5.27,16.11,16.11,0,0,1-5.29,3.65A16.42,16.42,0,0,1,268.66,225Zm.68-6.95a7.17,7.17,0,0,0,5.79-2.77,9.45,9.45,0,0,0,2.28-6.13,6.23,6.23,0,0,0-1.62-4.47A5.86,5.86,0,0,0,271.3,203a7.16,7.16,0,0,0-5.77,2.79,9.44,9.44,0,0,0-2.3,6.11,6.23,6.23,0,0,0,1.62,4.47A5.85,5.85,0,0,0,269.34,218.08Z"/><path class="cls-2" d="M288.94,224.51l5.71-21.16h-8.38l1.84-6.79h24.47l-1.8,6.79H302.4l-5.67,21.16Z"/><path class="cls-2" d="M318.93,225.07q-7.87,0-11.46-5.31l5.15-4.47a8.14,8.14,0,0,0,6.39,3.23,4.94,4.94,0,0,0,3.11-.9,2.61,2.61,0,0,0,1.16-2.09c0-1.47-1.16-2.2-3.47-2.2h-2.88l1.56-5.83h2.71a6,6,0,0,0,3.2-.74,2.28,2.28,0,0,0,1.2-2,1.87,1.87,0,0,0-.82-1.56,3.33,3.33,0,0,0-2-.6q-2.88,0-6.15,2.72l-3.95-4.88A15.46,15.46,0,0,1,323.72,196a10.91,10.91,0,0,1,7,2.12,6.37,6.37,0,0,1,2.61,5.11q0,5.55-6.51,7.35c2.77,1,4.16,2.88,4.16,5.63a7.57,7.57,0,0,1-3.42,6.36A14.28,14.28,0,0,1,318.93,225.07Z"/><path class="cls-2" d="M332.78,224.51l7.47-27.95H348l-2.35,8.79h3.47a11.48,11.48,0,0,1,7.47,2.25,7.12,7.12,0,0,1,2.75,5.73,9.91,9.91,0,0,1-3.73,8.23,15.06,15.06,0,0,1-9.64,2.95Zm9.46-6.51h4a6.58,6.58,0,0,0,3.65-.94,3.2,3.2,0,0,0,1.46-2.89,2.51,2.51,0,0,0-.94-2,3.88,3.88,0,0,0-2.58-.8H344Zm17.41,6.51,7.47-27.95h7.74l-7.46,27.95Z"/><path class="cls-2" d="M372.19,224.51l7.5-27.95h11.62c3.57,0,6.14.63,7.73,1.88a5.88,5.88,0,0,1,2.37,4.83,6.65,6.65,0,0,1-1.65,4.55,8.72,8.72,0,0,1-4.61,2.6q4.23,1.52,4.23,5.59a7.27,7.27,0,0,1-3.24,6.14c-2.15,1.58-5.31,2.36-9.46,2.36Zm9.22-6.23h5.87a5.33,5.33,0,0,0,3.15-.82,2.47,2.47,0,0,0,1.16-2.13c0-1.47-1.14-2.2-3.43-2.2h-5.35Zm2.88-10.58h5.23a5.44,5.44,0,0,0,3.13-.76,2.39,2.39,0,0,0,1.1-2.07c0-1.39-1.12-2.08-3.36-2.08h-4.83Z"/><path class="cls-2" d="M400.69,224.51l7.47-27.95h7.75l-2.36,8.79H417a11.48,11.48,0,0,1,7.47,2.25,7.1,7.1,0,0,1,2.76,5.73,9.92,9.92,0,0,1-3.74,8.23,15.06,15.06,0,0,1-9.64,2.95Zm9.47-6.51h4a6.58,6.58,0,0,0,3.65-.94,3.2,3.2,0,0,0,1.46-2.89,2.48,2.48,0,0,0-.94-2,3.84,3.84,0,0,0-2.57-.8H412Zm17.4,6.51L435,196.56h7.75l-7.47,27.95Z"/><path class="cls-2" d="M13.34,225a13.33,13.33,0,0,1-9.63-3.57,12,12,0,0,1-3.71-9,15.74,15.74,0,0,1,1.26-6.15,17.44,17.44,0,0,1,3.41-5.27A16.26,16.26,0,0,1,10,197.42,16.42,16.42,0,0,1,16.65,196a13.26,13.26,0,0,1,9.62,3.58,11.9,11.9,0,0,1,3.71,9,15.91,15.91,0,0,1-1.25,6.15A17.47,17.47,0,0,1,25.31,220,16,16,0,0,1,20,223.65,16.41,16.41,0,0,1,13.34,225Zm.67-6.95a7.14,7.14,0,0,0,5.79-2.77,9.45,9.45,0,0,0,2.28-6.13,6.23,6.23,0,0,0-1.62-4.47A5.85,5.85,0,0,0,16,203a7.16,7.16,0,0,0-5.77,2.79,9.43,9.43,0,0,0-2.29,6.11,6.23,6.23,0,0,0,1.61,4.47A5.86,5.86,0,0,0,14,218.08Z"/><path class="cls-2" d="M33.62,224.51l5.71-21.16H30.94l1.84-6.79H57.25l-1.79,6.79H47.07L41.4,224.51Z"/><path class="cls-2" d="M63.6,225.07q-7.86,0-11.46-5.31l5.15-4.47a8.14,8.14,0,0,0,6.39,3.23,4.94,4.94,0,0,0,3.11-.9A2.58,2.58,0,0,0,68,215.53c0-1.47-1.16-2.2-3.47-2.2H61.6l1.56-5.83h2.72a6,6,0,0,0,3.19-.74,2.28,2.28,0,0,0,1.2-2,1.87,1.87,0,0,0-.82-1.56,3.33,3.33,0,0,0-2-.6q-2.87,0-6.15,2.72l-4-4.88A15.46,15.46,0,0,1,68.39,196a10.89,10.89,0,0,1,7,2.12,6.37,6.37,0,0,1,2.61,5.11q0,5.55-6.5,7.35c2.76,1,4.15,2.88,4.15,5.63a7.57,7.57,0,0,1-3.42,6.36A14.28,14.28,0,0,1,63.6,225.07Z"/><path class="cls-2" d="M77.45,224.51l7.47-27.95h7.75l-2.36,8.79h3.47a11.48,11.48,0,0,1,7.47,2.25,7.1,7.1,0,0,1,2.76,5.73,9.92,9.92,0,0,1-3.74,8.23,15.06,15.06,0,0,1-9.64,2.95ZM86.92,218h4a6.58,6.58,0,0,0,3.65-.94,3.2,3.2,0,0,0,1.46-2.89,2.48,2.48,0,0,0-.94-2,3.84,3.84,0,0,0-2.57-.8H88.71Zm17.4,6.51,7.47-27.95h7.75l-7.47,27.95Z"/><path class="cls-2" d="M116.86,224.51l7.51-27.95H136c3.56,0,6.14.63,7.72,1.88a5.89,5.89,0,0,1,2.38,4.83,6.66,6.66,0,0,1-1.66,4.55,8.72,8.72,0,0,1-4.61,2.6q4.23,1.52,4.23,5.59a7.28,7.28,0,0,1-3.23,6.14c-2.16,1.58-5.31,2.36-9.47,2.36Zm9.22-6.23H132a5.36,5.36,0,0,0,3.16-.82,2.49,2.49,0,0,0,1.16-2.13c0-1.47-1.15-2.2-3.44-2.2h-5.35ZM129,207.7h5.23a5.42,5.42,0,0,0,3.13-.76,2.39,2.39,0,0,0,1.1-2.07c0-1.39-1.12-2.08-3.35-2.08h-4.83Z"/><path class="cls-2" d="M145.37,224.51l7.46-27.95h7.75l-2.36,8.79h3.48a11.43,11.43,0,0,1,7.46,2.25,7.1,7.1,0,0,1,2.76,5.73,9.92,9.92,0,0,1-3.74,8.23,15,15,0,0,1-9.64,2.95Zm9.46-6.51h4a6.61,6.61,0,0,0,3.66-.94,3.19,3.19,0,0,0,1.45-2.89,2.48,2.48,0,0,0-.94-2,3.84,3.84,0,0,0-2.57-.8h-3.83Zm17.41,6.51,7.46-27.95h7.75L180,224.51Z"/><path class="cls-2" d="M779.32,323a13.29,13.29,0,0,1-9.62-3.57,11.91,11.91,0,0,1-3.72-9,15.66,15.66,0,0,1,1.26-6.14,17.39,17.39,0,0,1,3.41-5.27,16.13,16.13,0,0,1,5.29-3.66,16.42,16.42,0,0,1,6.69-1.38,13.3,13.3,0,0,1,9.62,3.58,11.9,11.9,0,0,1,3.72,9,15.74,15.74,0,0,1-1.26,6.15,17.35,17.35,0,0,1-3.42,5.27,16.06,16.06,0,0,1-5.28,3.65A16.42,16.42,0,0,1,779.32,323Zm.68-6.95a7.17,7.17,0,0,0,5.79-2.77,9.47,9.47,0,0,0,2.27-6.13,6.23,6.23,0,0,0-1.62-4.47A5.83,5.83,0,0,0,782,301a7.16,7.16,0,0,0-5.77,2.8,9.4,9.4,0,0,0-2.29,6.1,6.31,6.31,0,0,0,1.61,4.48A5.9,5.9,0,0,0,780,316.08Z"/><path class="cls-2" d="M799.6,322.51l5.71-21.16h-8.39l1.84-6.79h24.47l-1.79,6.79h-8.39l-5.67,21.16Z"/><path class="cls-2" d="M829.58,323.07q-7.86,0-11.46-5.31l5.15-4.47a8.14,8.14,0,0,0,6.39,3.23,5,5,0,0,0,3.12-.9,2.58,2.58,0,0,0,1.15-2.09c0-1.47-1.15-2.2-3.47-2.2h-2.87l1.55-5.83h2.72a6,6,0,0,0,3.19-.74,2.28,2.28,0,0,0,1.2-2.05,1.84,1.84,0,0,0-.82-1.56,3.3,3.3,0,0,0-2-.6q-2.88,0-6.15,2.72l-4-4.87a15.43,15.43,0,0,1,11.06-4.4,10.88,10.88,0,0,1,7,2.12,6.38,6.38,0,0,1,2.62,5.11q0,5.55-6.51,7.35,4.15,1.51,4.15,5.63a7.58,7.58,0,0,1-3.41,6.36A14.31,14.31,0,0,1,829.58,323.07Z"/><path class="cls-2" d="M843.44,322.51l7.46-27.95h7.75l-2.36,8.79h3.48a11.43,11.43,0,0,1,7.46,2.25,7.1,7.1,0,0,1,2.76,5.73,9.9,9.9,0,0,1-3.74,8.23,15.06,15.06,0,0,1-9.64,2.95ZM852.9,316h4a6.66,6.66,0,0,0,3.65-.93,3.19,3.19,0,0,0,1.46-2.9,2.48,2.48,0,0,0-.94-2,3.84,3.84,0,0,0-2.57-.79H854.7Zm17.41,6.51,7.46-27.95h7.75l-7.47,27.95Z"/><path class="cls-2" d="M882.84,322.51l7.51-27.95H902c3.56,0,6.14.63,7.72,1.88a5.87,5.87,0,0,1,2.38,4.83,6.61,6.61,0,0,1-1.66,4.55,8.69,8.69,0,0,1-4.61,2.6Q910,309.94,910,314a7.28,7.28,0,0,1-3.23,6.15q-3.24,2.35-9.46,2.35Zm9.23-6.23h5.87a5.33,5.33,0,0,0,3.15-.82,2.49,2.49,0,0,0,1.16-2.13c0-1.47-1.15-2.2-3.44-2.2h-5.35Zm2.87-10.58h5.23a5.42,5.42,0,0,0,3.13-.76,2.36,2.36,0,0,0,1.1-2.07c0-1.39-1.12-2.08-3.35-2.08h-4.83Z"/><path class="cls-2" d="M911.35,322.51l7.47-27.95h7.74l-2.35,8.79h3.47a11.48,11.48,0,0,1,7.47,2.25,7.12,7.12,0,0,1,2.75,5.73,9.9,9.9,0,0,1-3.73,8.23,15.08,15.08,0,0,1-9.64,2.95Zm9.46-6.51h4a6.67,6.67,0,0,0,3.66-.93,3.21,3.21,0,0,0,1.45-2.9,2.5,2.5,0,0,0-.93-2,3.88,3.88,0,0,0-2.58-.79h-3.83Zm17.41,6.51,7.47-27.95h7.74L946,322.51Z"/><path class="cls-2" d="M524,323a13.29,13.29,0,0,1-9.62-3.57,11.91,11.91,0,0,1-3.72-9,15.66,15.66,0,0,1,1.26-6.14,17.23,17.23,0,0,1,3.42-5.27,16,16,0,0,1,5.29-3.66A16.34,16.34,0,0,1,527.3,294a13.34,13.34,0,0,1,9.63,3.58,11.93,11.93,0,0,1,3.71,9,15.74,15.74,0,0,1-1.26,6.15A17.51,17.51,0,0,1,536,318a16.11,16.11,0,0,1-5.29,3.65A16.42,16.42,0,0,1,524,323Zm.68-6.95a7.17,7.17,0,0,0,5.79-2.77,9.42,9.42,0,0,0,2.27-6.13,6.23,6.23,0,0,0-1.61-4.47,5.87,5.87,0,0,0-4.5-1.72,7.14,7.14,0,0,0-5.76,2.8,9.36,9.36,0,0,0-2.3,6.1,6.27,6.27,0,0,0,1.62,4.48A5.86,5.86,0,0,0,524.67,316.08Z"/><path class="cls-2" d="M544.27,322.51,550,301.35H541.6l1.83-6.79h24.48l-1.8,6.79h-8.38l-5.67,21.16Z"/><path class="cls-2" d="M574.26,323.07q-7.87,0-11.46-5.31l5.15-4.47a8.14,8.14,0,0,0,6.39,3.23,4.94,4.94,0,0,0,3.11-.9,2.59,2.59,0,0,0,1.16-2.09c0-1.47-1.16-2.2-3.48-2.2h-2.87l1.56-5.83h2.71a5.93,5.93,0,0,0,3.19-.74,2.28,2.28,0,0,0,1.2-2.05,1.84,1.84,0,0,0-.82-1.56,3.28,3.28,0,0,0-2-.6q-2.88,0-6.15,2.72l-4-4.87a15.41,15.41,0,0,1,11.06-4.4,10.87,10.87,0,0,1,7,2.12,6.35,6.35,0,0,1,2.62,5.11q0,5.55-6.51,7.35,4.15,1.51,4.15,5.63a7.58,7.58,0,0,1-3.41,6.36A14.3,14.3,0,0,1,574.26,323.07Z"/><path class="cls-2" d="M588.11,322.51l7.47-27.95h7.74L601,303.35h3.47a11.43,11.43,0,0,1,7.46,2.25,7.1,7.1,0,0,1,2.76,5.73,9.9,9.9,0,0,1-3.73,8.23,15.09,15.09,0,0,1-9.65,2.95Zm9.46-6.51h4a6.67,6.67,0,0,0,3.66-.93,3.21,3.21,0,0,0,1.45-2.9,2.5,2.5,0,0,0-.93-2,3.88,3.88,0,0,0-2.58-.79h-3.83ZM615,322.51l7.47-27.95h7.74l-7.47,27.95Z"/><path class="cls-2" d="M627.52,322.51l7.5-27.95h11.62c3.57,0,6.14.63,7.73,1.88a5.88,5.88,0,0,1,2.37,4.83,6.61,6.61,0,0,1-1.66,4.55,8.69,8.69,0,0,1-4.61,2.6c2.82,1,4.24,2.87,4.24,5.59a7.27,7.27,0,0,1-3.24,6.15q-3.24,2.35-9.46,2.35Zm9.22-6.23h5.87a5.33,5.33,0,0,0,3.15-.82,2.49,2.49,0,0,0,1.16-2.13c0-1.47-1.15-2.2-3.43-2.2h-5.35Zm2.87-10.58h5.23a5.46,5.46,0,0,0,3.14-.76,2.38,2.38,0,0,0,1.1-2.07c0-1.39-1.12-2.08-3.36-2.08h-4.83Z"/><path class="cls-2" d="M656,322.51l7.47-27.95h7.74l-2.35,8.79h3.47a11.48,11.48,0,0,1,7.47,2.25,7.12,7.12,0,0,1,2.75,5.73,9.9,9.9,0,0,1-3.73,8.23,15.06,15.06,0,0,1-9.64,2.95Zm9.46-6.51h4a6.66,6.66,0,0,0,3.65-.93,3.21,3.21,0,0,0,1.46-2.9,2.51,2.51,0,0,0-.94-2,3.86,3.86,0,0,0-2.58-.79h-3.83Zm17.41,6.51,7.47-27.95h7.74l-7.46,27.95Z"/><path class="cls-2" d="M268.66,323a13.31,13.31,0,0,1-9.62-3.57,11.94,11.94,0,0,1-3.71-9,15.82,15.82,0,0,1,1.25-6.14,17.23,17.23,0,0,1,3.42-5.27,16.13,16.13,0,0,1,5.29-3.66A16.42,16.42,0,0,1,272,294a13.31,13.31,0,0,1,9.62,3.58,11.93,11.93,0,0,1,3.71,9,15.74,15.74,0,0,1-1.26,6.15,17.14,17.14,0,0,1-3.41,5.27,16.11,16.11,0,0,1-5.29,3.65A16.42,16.42,0,0,1,268.66,323Zm.68-6.95a7.17,7.17,0,0,0,5.79-2.77,9.43,9.43,0,0,0,2.28-6.13,6.23,6.23,0,0,0-1.62-4.47A5.86,5.86,0,0,0,271.3,301a7.14,7.14,0,0,0-5.77,2.8,9.42,9.42,0,0,0-2.3,6.1,6.27,6.27,0,0,0,1.62,4.48A5.88,5.88,0,0,0,269.34,316.08Z"/><path class="cls-2" d="M288.94,322.51l5.71-21.16h-8.38l1.84-6.79h24.47l-1.8,6.79H302.4l-5.67,21.16Z"/><path class="cls-2" d="M318.93,323.07q-7.87,0-11.46-5.31l5.15-4.47a8.14,8.14,0,0,0,6.39,3.23,4.94,4.94,0,0,0,3.11-.9,2.59,2.59,0,0,0,1.16-2.09c0-1.47-1.16-2.2-3.47-2.2h-2.88l1.56-5.83h2.71a6,6,0,0,0,3.2-.74,2.28,2.28,0,0,0,1.2-2.05,1.87,1.87,0,0,0-.82-1.56,3.33,3.33,0,0,0-2-.6q-2.88,0-6.15,2.72l-3.95-4.87a15.43,15.43,0,0,1,11.06-4.4,10.91,10.91,0,0,1,7,2.12,6.37,6.37,0,0,1,2.61,5.11q0,5.55-6.51,7.35,4.15,1.51,4.16,5.63a7.57,7.57,0,0,1-3.42,6.36A14.28,14.28,0,0,1,318.93,323.07Z"/><path class="cls-2" d="M332.78,322.51l7.47-27.95H348l-2.35,8.79h3.47a11.48,11.48,0,0,1,7.47,2.25,7.12,7.12,0,0,1,2.75,5.73,9.9,9.9,0,0,1-3.73,8.23,15.06,15.06,0,0,1-9.64,2.95Zm9.46-6.51h4a6.66,6.66,0,0,0,3.65-.93,3.21,3.21,0,0,0,1.46-2.9,2.51,2.51,0,0,0-.94-2,3.88,3.88,0,0,0-2.58-.79H344Zm17.41,6.51,7.47-27.95h7.74l-7.46,27.95Z"/><path class="cls-2" d="M372.19,322.51l7.5-27.95h11.62c3.57,0,6.14.63,7.73,1.88a5.88,5.88,0,0,1,2.37,4.83,6.65,6.65,0,0,1-1.65,4.55,8.72,8.72,0,0,1-4.61,2.6q4.23,1.51,4.23,5.59a7.27,7.27,0,0,1-3.24,6.15c-2.15,1.57-5.31,2.35-9.46,2.35Zm9.22-6.23h5.87a5.33,5.33,0,0,0,3.15-.82,2.47,2.47,0,0,0,1.16-2.13c0-1.47-1.14-2.2-3.43-2.2h-5.35Zm2.88-10.58h5.23a5.44,5.44,0,0,0,3.13-.76,2.38,2.38,0,0,0,1.1-2.07c0-1.39-1.12-2.08-3.36-2.08h-4.83Z"/><path class="cls-2" d="M400.69,322.51l7.47-27.95h7.75l-2.36,8.79H417a11.48,11.48,0,0,1,7.47,2.25,7.1,7.1,0,0,1,2.76,5.73,9.9,9.9,0,0,1-3.74,8.23,15.06,15.06,0,0,1-9.64,2.95Zm9.47-6.51h4a6.66,6.66,0,0,0,3.65-.93,3.21,3.21,0,0,0,1.46-2.9,2.48,2.48,0,0,0-.94-2,3.84,3.84,0,0,0-2.57-.79H412Zm17.4,6.51L435,294.56h7.75l-7.47,27.95Z"/><path class="cls-2" d="M13.34,323a13.33,13.33,0,0,1-9.63-3.57,11.94,11.94,0,0,1-3.71-9,15.66,15.66,0,0,1,1.26-6.14,17.2,17.2,0,0,1,3.41-5.27A16.13,16.13,0,0,1,10,295.42,16.42,16.42,0,0,1,16.65,294a13.3,13.3,0,0,1,9.62,3.58,11.9,11.9,0,0,1,3.71,9,15.91,15.91,0,0,1-1.25,6.15A17.35,17.35,0,0,1,25.31,318,16,16,0,0,1,20,321.65,16.41,16.41,0,0,1,13.34,323Zm.67-6.95a7.14,7.14,0,0,0,5.79-2.77,9.43,9.43,0,0,0,2.28-6.13,6.23,6.23,0,0,0-1.62-4.47A5.85,5.85,0,0,0,16,301a7.14,7.14,0,0,0-5.77,2.8,9.4,9.4,0,0,0-2.29,6.1,6.27,6.27,0,0,0,1.61,4.48A5.89,5.89,0,0,0,14,316.08Z"/><path class="cls-2" d="M33.62,322.51l5.71-21.16H30.94l1.84-6.79H57.25l-1.79,6.79H47.07L41.4,322.51Z"/><path class="cls-2" d="M63.6,323.07q-7.86,0-11.46-5.31l5.15-4.47a8.14,8.14,0,0,0,6.39,3.23,4.94,4.94,0,0,0,3.11-.9A2.57,2.57,0,0,0,68,313.53c0-1.47-1.16-2.2-3.47-2.2H61.6l1.56-5.83h2.72a6,6,0,0,0,3.19-.74,2.28,2.28,0,0,0,1.2-2.05,1.87,1.87,0,0,0-.82-1.56,3.33,3.33,0,0,0-2-.6q-2.87,0-6.15,2.72l-4-4.87A15.43,15.43,0,0,1,68.39,294a10.89,10.89,0,0,1,7,2.12,6.37,6.37,0,0,1,2.61,5.11q0,5.55-6.5,7.35c2.76,1,4.15,2.89,4.15,5.63a7.57,7.57,0,0,1-3.42,6.36A14.28,14.28,0,0,1,63.6,323.07Z"/><path class="cls-2" d="M77.45,322.51l7.47-27.95h7.75l-2.36,8.79h3.47a11.48,11.48,0,0,1,7.47,2.25,7.1,7.1,0,0,1,2.76,5.73,9.9,9.9,0,0,1-3.74,8.23,15.06,15.06,0,0,1-9.64,2.95ZM86.92,316h4a6.66,6.66,0,0,0,3.65-.93,3.21,3.21,0,0,0,1.46-2.9,2.48,2.48,0,0,0-.94-2,3.84,3.84,0,0,0-2.57-.79H88.71Zm17.4,6.51,7.47-27.95h7.75l-7.47,27.95Z"/><path class="cls-2" d="M116.86,322.51l7.51-27.95H136c3.56,0,6.14.63,7.72,1.88a5.89,5.89,0,0,1,2.38,4.83,6.66,6.66,0,0,1-1.66,4.55,8.72,8.72,0,0,1-4.61,2.6q4.23,1.51,4.23,5.59a7.28,7.28,0,0,1-3.23,6.15c-2.16,1.57-5.31,2.35-9.47,2.35Zm9.22-6.23H132a5.36,5.36,0,0,0,3.16-.82,2.49,2.49,0,0,0,1.16-2.13c0-1.47-1.15-2.2-3.44-2.2h-5.35ZM129,305.7h5.23a5.42,5.42,0,0,0,3.13-.76,2.38,2.38,0,0,0,1.1-2.07c0-1.39-1.12-2.08-3.35-2.08h-4.83Z"/><path class="cls-2" d="M145.37,322.51l7.46-27.95h7.75l-2.36,8.79h3.48a11.43,11.43,0,0,1,7.46,2.25,7.1,7.1,0,0,1,2.76,5.73,9.9,9.9,0,0,1-3.74,8.23,15,15,0,0,1-9.64,2.95Zm9.46-6.51h4a6.7,6.7,0,0,0,3.66-.93,3.21,3.21,0,0,0,1.45-2.9,2.48,2.48,0,0,0-.94-2,3.84,3.84,0,0,0-2.57-.79h-3.83Zm17.41,6.51,7.46-27.95h7.75L180,322.51Z"/><path class="cls-2" d="M779.32,421a13.29,13.29,0,0,1-9.62-3.57,11.9,11.9,0,0,1-3.72-9,15.67,15.67,0,0,1,1.26-6.15,17.39,17.39,0,0,1,3.41-5.27,16.13,16.13,0,0,1,5.29-3.66,16.58,16.58,0,0,1,6.69-1.37,13.29,13.29,0,0,1,9.62,3.57,11.9,11.9,0,0,1,3.72,9,15.7,15.7,0,0,1-1.26,6.15,17.35,17.35,0,0,1-3.42,5.27,15.92,15.92,0,0,1-5.28,3.65A16.42,16.42,0,0,1,779.32,421Zm.68-6.95a7.17,7.17,0,0,0,5.79-2.77,9.47,9.47,0,0,0,2.27-6.13,6.25,6.25,0,0,0-1.62-4.47A5.87,5.87,0,0,0,782,399a7.18,7.18,0,0,0-5.77,2.8,9.41,9.41,0,0,0-2.29,6.11,6.3,6.3,0,0,0,1.61,4.47A5.9,5.9,0,0,0,780,414.08Z"/><path class="cls-2" d="M799.6,420.51l5.71-21.16h-8.39l1.84-6.78h24.47l-1.79,6.78h-8.39l-5.67,21.16Z"/><path class="cls-2" d="M829.58,421.07q-7.86,0-11.46-5.31l5.15-4.47a8.11,8.11,0,0,0,6.39,3.23,5,5,0,0,0,3.12-.89,2.61,2.61,0,0,0,1.15-2.1c0-1.46-1.15-2.2-3.47-2.2h-2.87l1.55-5.83h2.72a6.05,6.05,0,0,0,3.19-.73,2.31,2.31,0,0,0,1.2-2.06,1.84,1.84,0,0,0-.82-1.56,3.3,3.3,0,0,0-2-.6q-2.88,0-6.15,2.72l-4-4.87A15.42,15.42,0,0,1,834.37,392a10.87,10.87,0,0,1,7,2.11,6.4,6.4,0,0,1,2.62,5.11q0,5.55-6.51,7.35,4.15,1.51,4.15,5.63a7.61,7.61,0,0,1-3.41,6.37A14.37,14.37,0,0,1,829.58,421.07Z"/><path class="cls-2" d="M843.44,420.51l7.46-27.94h7.75l-2.36,8.78h3.48a11.43,11.43,0,0,1,7.46,2.25,7.1,7.1,0,0,1,2.76,5.73,9.9,9.9,0,0,1-3.74,8.23,15.06,15.06,0,0,1-9.64,2.95Zm9.46-6.5h4a6.66,6.66,0,0,0,3.65-.94,3.19,3.19,0,0,0,1.46-2.9,2.45,2.45,0,0,0-.94-1.95,3.79,3.79,0,0,0-2.57-.8H854.7Zm17.41,6.5,7.46-27.94h7.75l-7.47,27.94Z"/><path class="cls-2" d="M882.84,420.51l7.51-27.94H902c3.56,0,6.14.62,7.72,1.87a5.87,5.87,0,0,1,2.38,4.83,6.6,6.6,0,0,1-1.66,4.55,8.62,8.62,0,0,1-4.61,2.6Q910,407.94,910,412a7.28,7.28,0,0,1-3.23,6.15q-3.24,2.35-9.46,2.35Zm9.23-6.23h5.87a5.4,5.4,0,0,0,3.15-.81,2.52,2.52,0,0,0,1.16-2.14c0-1.46-1.15-2.2-3.44-2.2h-5.35Zm2.87-10.58h5.23a5.5,5.5,0,0,0,3.13-.75,2.39,2.39,0,0,0,1.1-2.08c0-1.38-1.12-2.08-3.35-2.08h-4.83Z"/><path class="cls-2" d="M911.35,420.51l7.47-27.94h7.74l-2.35,8.78h3.47a11.48,11.48,0,0,1,7.47,2.25,7.12,7.12,0,0,1,2.75,5.73,9.9,9.9,0,0,1-3.73,8.23,15.08,15.08,0,0,1-9.64,2.95Zm9.46-6.5h4a6.68,6.68,0,0,0,3.66-.94,3.21,3.21,0,0,0,1.45-2.9,2.47,2.47,0,0,0-.93-1.95,3.83,3.83,0,0,0-2.58-.8h-3.83Zm17.41,6.5,7.47-27.94h7.74L946,420.51Z"/><path class="cls-2" d="M524,421a13.29,13.29,0,0,1-9.62-3.57,11.9,11.9,0,0,1-3.72-9,15.67,15.67,0,0,1,1.26-6.15,17.23,17.23,0,0,1,3.42-5.27,16,16,0,0,1,5.29-3.66,16.5,16.5,0,0,1,6.68-1.37,13.33,13.33,0,0,1,9.63,3.57,11.93,11.93,0,0,1,3.71,9,15.7,15.7,0,0,1-1.26,6.15A17.51,17.51,0,0,1,536,416a16,16,0,0,1-5.29,3.65A16.42,16.42,0,0,1,524,421Zm.68-6.95a7.17,7.17,0,0,0,5.79-2.77,9.42,9.42,0,0,0,2.27-6.13,6.24,6.24,0,0,0-1.61-4.47,5.91,5.91,0,0,0-4.5-1.72,7.17,7.17,0,0,0-5.76,2.8,9.37,9.37,0,0,0-2.3,6.11,6.27,6.27,0,0,0,1.62,4.47A5.86,5.86,0,0,0,524.67,414.08Z"/><path class="cls-2" d="M544.27,420.51,550,399.35H541.6l1.83-6.78h24.48l-1.8,6.78h-8.38l-5.67,21.16Z"/><path class="cls-2" d="M574.26,421.07q-7.87,0-11.46-5.31l5.15-4.47a8.11,8.11,0,0,0,6.39,3.23,5,5,0,0,0,3.11-.89,2.63,2.63,0,0,0,1.16-2.1c0-1.46-1.16-2.2-3.48-2.2h-2.87l1.56-5.83h2.71a6,6,0,0,0,3.19-.73,2.31,2.31,0,0,0,1.2-2.06,1.84,1.84,0,0,0-.82-1.56,3.28,3.28,0,0,0-2-.6q-2.88,0-6.15,2.72l-4-4.87A15.4,15.4,0,0,1,579.05,392a10.86,10.86,0,0,1,7,2.11,6.37,6.37,0,0,1,2.62,5.11q0,5.55-6.51,7.35,4.15,1.51,4.15,5.63a7.61,7.61,0,0,1-3.41,6.37A14.36,14.36,0,0,1,574.26,421.07Z"/><path class="cls-2" d="M588.11,420.51l7.47-27.94h7.74L601,401.35h3.47a11.43,11.43,0,0,1,7.46,2.25,7.1,7.1,0,0,1,2.76,5.73,9.9,9.9,0,0,1-3.73,8.23,15.09,15.09,0,0,1-9.65,2.95Zm9.46-6.5h4a6.68,6.68,0,0,0,3.66-.94,3.21,3.21,0,0,0,1.45-2.9,2.47,2.47,0,0,0-.93-1.95,3.83,3.83,0,0,0-2.58-.8h-3.83Zm17.41,6.5,7.47-27.94h7.74l-7.47,27.94Z"/><path class="cls-2" d="M627.52,420.51l7.5-27.94h11.62c3.57,0,6.14.62,7.73,1.87a5.88,5.88,0,0,1,2.37,4.83,6.6,6.6,0,0,1-1.66,4.55,8.62,8.62,0,0,1-4.61,2.6c2.82,1,4.24,2.87,4.24,5.59a7.27,7.27,0,0,1-3.24,6.15q-3.24,2.35-9.46,2.35Zm9.22-6.23h5.87a5.4,5.4,0,0,0,3.15-.81,2.52,2.52,0,0,0,1.16-2.14c0-1.46-1.15-2.2-3.43-2.2h-5.35Zm2.87-10.58h5.23A5.54,5.54,0,0,0,648,403a2.41,2.41,0,0,0,1.1-2.08c0-1.38-1.12-2.08-3.36-2.08h-4.83Z"/><path class="cls-2" d="M656,420.51l7.47-27.94h7.74l-2.35,8.78h3.47a11.48,11.48,0,0,1,7.47,2.25,7.12,7.12,0,0,1,2.75,5.73,9.9,9.9,0,0,1-3.73,8.23,15.06,15.06,0,0,1-9.64,2.95Zm9.46-6.5h4a6.66,6.66,0,0,0,3.65-.94,3.21,3.21,0,0,0,1.46-2.9,2.48,2.48,0,0,0-.94-1.95,3.81,3.81,0,0,0-2.58-.8h-3.83Zm17.41,6.5,7.47-27.94h7.74l-7.46,27.94Z"/><path class="cls-2" d="M268.66,421a13.31,13.31,0,0,1-9.62-3.57,11.93,11.93,0,0,1-3.71-9,15.84,15.84,0,0,1,1.25-6.15,17.23,17.23,0,0,1,3.42-5.27,16.13,16.13,0,0,1,5.29-3.66,16.58,16.58,0,0,1,6.69-1.37,13.31,13.31,0,0,1,9.62,3.57,11.93,11.93,0,0,1,3.71,9,15.7,15.7,0,0,1-1.26,6.15,17.14,17.14,0,0,1-3.41,5.27,16,16,0,0,1-5.29,3.65A16.42,16.42,0,0,1,268.66,421Zm.68-6.95a7.17,7.17,0,0,0,5.79-2.77,9.43,9.43,0,0,0,2.28-6.13,6.25,6.25,0,0,0-1.62-4.47A5.9,5.9,0,0,0,271.3,399a7.17,7.17,0,0,0-5.77,2.8,9.42,9.42,0,0,0-2.3,6.11,6.27,6.27,0,0,0,1.62,4.47A5.88,5.88,0,0,0,269.34,414.08Z"/><path class="cls-2" d="M288.94,420.51l5.71-21.16h-8.38l1.84-6.78h24.47l-1.8,6.78H302.4l-5.67,21.16Z"/><path class="cls-2" d="M318.93,421.07q-7.87,0-11.46-5.31l5.15-4.47a8.11,8.11,0,0,0,6.39,3.23,5,5,0,0,0,3.11-.89,2.63,2.63,0,0,0,1.16-2.1c0-1.46-1.16-2.2-3.47-2.2h-2.88l1.56-5.83h2.71a6.09,6.09,0,0,0,3.2-.73,2.31,2.31,0,0,0,1.2-2.06,1.87,1.87,0,0,0-.82-1.56,3.33,3.33,0,0,0-2-.6q-2.88,0-6.15,2.72l-3.95-4.87A15.42,15.42,0,0,1,323.72,392a10.91,10.91,0,0,1,7,2.11,6.39,6.39,0,0,1,2.61,5.11q0,5.55-6.51,7.35,4.15,1.51,4.16,5.63a7.6,7.6,0,0,1-3.42,6.37A14.34,14.34,0,0,1,318.93,421.07Z"/><path class="cls-2" d="M332.78,420.51l7.47-27.94H348l-2.35,8.78h3.47a11.48,11.48,0,0,1,7.47,2.25,7.12,7.12,0,0,1,2.75,5.73,9.9,9.9,0,0,1-3.73,8.23,15.06,15.06,0,0,1-9.64,2.95Zm9.46-6.5h4a6.66,6.66,0,0,0,3.65-.94,3.21,3.21,0,0,0,1.46-2.9,2.48,2.48,0,0,0-.94-1.95,3.83,3.83,0,0,0-2.58-.8H344Zm17.41,6.5,7.47-27.94h7.74l-7.46,27.94Z"/><path class="cls-2" d="M372.19,420.51l7.5-27.94h11.62c3.57,0,6.14.62,7.73,1.87a5.88,5.88,0,0,1,2.37,4.83,6.64,6.64,0,0,1-1.65,4.55,8.66,8.66,0,0,1-4.61,2.6q4.23,1.51,4.23,5.59a7.27,7.27,0,0,1-3.24,6.15c-2.15,1.57-5.31,2.35-9.46,2.35Zm9.22-6.23h5.87a5.4,5.4,0,0,0,3.15-.81,2.5,2.5,0,0,0,1.16-2.14c0-1.46-1.14-2.2-3.43-2.2h-5.35Zm2.88-10.58h5.23a5.53,5.53,0,0,0,3.13-.75,2.41,2.41,0,0,0,1.1-2.08c0-1.38-1.12-2.08-3.36-2.08h-4.83Z"/><path class="cls-2" d="M400.69,420.51l7.47-27.94h7.75l-2.36,8.78H417a11.48,11.48,0,0,1,7.47,2.25,7.1,7.1,0,0,1,2.76,5.73,9.9,9.9,0,0,1-3.74,8.23,15.06,15.06,0,0,1-9.64,2.95Zm9.47-6.5h4a6.66,6.66,0,0,0,3.65-.94,3.21,3.21,0,0,0,1.46-2.9,2.45,2.45,0,0,0-.94-1.95,3.79,3.79,0,0,0-2.57-.8H412Zm17.4,6.5L435,392.57h7.75l-7.47,27.94Z"/><path class="cls-2" d="M13.34,421a13.33,13.33,0,0,1-9.63-3.57,11.93,11.93,0,0,1-3.71-9,15.67,15.67,0,0,1,1.26-6.15,17.2,17.2,0,0,1,3.41-5.27A16.13,16.13,0,0,1,10,393.42a16.58,16.58,0,0,1,6.69-1.37,13.29,13.29,0,0,1,9.62,3.57,11.9,11.9,0,0,1,3.71,9,15.87,15.87,0,0,1-1.25,6.15A17.35,17.35,0,0,1,25.31,416,15.86,15.86,0,0,1,20,419.65,16.41,16.41,0,0,1,13.34,421Zm.67-6.95a7.14,7.14,0,0,0,5.79-2.77,9.43,9.43,0,0,0,2.28-6.13,6.25,6.25,0,0,0-1.62-4.47A5.88,5.88,0,0,0,16,399a7.17,7.17,0,0,0-5.77,2.8,9.41,9.41,0,0,0-2.29,6.11,6.26,6.26,0,0,0,1.61,4.47A5.89,5.89,0,0,0,14,414.08Z"/><path class="cls-2" d="M33.62,420.51l5.71-21.16H30.94l1.84-6.78H57.25l-1.79,6.78H47.07L41.4,420.51Z"/><path class="cls-2" d="M63.6,421.07q-7.86,0-11.46-5.31l5.15-4.47a8.11,8.11,0,0,0,6.39,3.23,5,5,0,0,0,3.11-.89,2.6,2.6,0,0,0,1.16-2.1c0-1.46-1.16-2.2-3.47-2.2H61.6l1.56-5.83h2.72a6.05,6.05,0,0,0,3.19-.73,2.31,2.31,0,0,0,1.2-2.06,1.87,1.87,0,0,0-.82-1.56,3.33,3.33,0,0,0-2-.6q-2.87,0-6.15,2.72l-4-4.87A15.42,15.42,0,0,1,68.39,392a10.89,10.89,0,0,1,7,2.11,6.39,6.39,0,0,1,2.61,5.11q0,5.55-6.5,7.35c2.76,1,4.15,2.89,4.15,5.63a7.6,7.6,0,0,1-3.42,6.37A14.34,14.34,0,0,1,63.6,421.07Z"/><path class="cls-2" d="M77.45,420.51l7.47-27.94h7.75l-2.36,8.78h3.47a11.48,11.48,0,0,1,7.47,2.25,7.1,7.1,0,0,1,2.76,5.73,9.9,9.9,0,0,1-3.74,8.23,15.06,15.06,0,0,1-9.64,2.95Zm9.47-6.5h4a6.66,6.66,0,0,0,3.65-.94,3.21,3.21,0,0,0,1.46-2.9,2.45,2.45,0,0,0-.94-1.95,3.79,3.79,0,0,0-2.57-.8H88.71Zm17.4,6.5,7.47-27.94h7.75l-7.47,27.94Z"/><path class="cls-2" d="M116.86,420.51l7.51-27.94H136c3.56,0,6.14.62,7.72,1.87a5.89,5.89,0,0,1,2.38,4.83,6.64,6.64,0,0,1-1.66,4.55,8.66,8.66,0,0,1-4.61,2.6q4.23,1.51,4.23,5.59a7.28,7.28,0,0,1-3.23,6.15c-2.16,1.57-5.31,2.35-9.47,2.35Zm9.22-6.23H132a5.44,5.44,0,0,0,3.16-.81,2.52,2.52,0,0,0,1.16-2.14c0-1.46-1.15-2.2-3.44-2.2h-5.35ZM129,403.7h5.23a5.5,5.5,0,0,0,3.13-.75,2.41,2.41,0,0,0,1.1-2.08c0-1.38-1.12-2.08-3.35-2.08h-4.83Z"/><path class="cls-2" d="M145.37,420.51l7.46-27.94h7.75l-2.36,8.78h3.48a11.43,11.43,0,0,1,7.46,2.25,7.1,7.1,0,0,1,2.76,5.73,9.9,9.9,0,0,1-3.74,8.23,15,15,0,0,1-9.64,2.95Zm9.46-6.5h4a6.7,6.7,0,0,0,3.66-.94,3.21,3.21,0,0,0,1.45-2.9,2.45,2.45,0,0,0-.94-1.95,3.79,3.79,0,0,0-2.57-.8h-3.83Zm17.41,6.5,7.46-27.94h7.75L180,420.51Z"/></g></g></svg>