<svg xmlns="http://www.w3.org/2000/svg" viewBox="0 0 149.17 149.17"><defs><style>.cls-1{fill:none;stroke:#eb431f;stroke-miterlimit:10;stroke-width:2px;}</style></defs><g id="Слой_2" data-name="Слой 2"><g id="Layer_1" data-name="Layer 1"><path class="cls-1" d="M1,76v-1.6c.55-.8,1.41-.76,2.22-.79,1.18,0,2.38,0,3.74,0,0-1,0-1.77,0-2.59,0-1-.13-1.06-1.18-1.19-1.23-.17-2.46-.41-3.69-.63-1-.18-1-.9-.93-1.66s.38-1.25,1.14-1.3a22.91,22.91,0,0,1,2.62,0c.82,0,1.63.12,2.47.18.12-.76.26-1.43.32-2.12.1-1.12,0-1.24-1.13-1.54s-2.45-.72-3.66-1.12A1.2,1.2,0,0,1,2.26,61,1.9,1.9,0,0,1,4,58.54c1.08.12,2.15.37,3.22.58,1.45.28,1.45.29,1.86-1.14a7.65,7.65,0,0,0,.35-1.39A1,1,0,0,0,9,55.88c-.18-.16-.49-.17-.74-.27-1.21-.49-2.42-1-3.6-1.5a1.16,1.16,0,0,1-.6-.76,1.69,1.69,0,0,1,2.25-2c1.19.25,2.37.58,3.54.93.53.15.85,0,1-.46,1-2.66,1.28-2.16-1-3.43l-.29-.15c-.79-.48-1.61-.92-2.38-1.45s-.32-1.23-.1-1.87.58-.9,1.21-.72c1.07.31,2.15.61,3.18,1,1.88.73,1.87.76,2.76-1.08.57-1.18.57-1.19-.52-1.88-.32-.2-.65-.36-1-.58-1-.71-2-1.43-3-2.18.44-.7.74-1.26,1.13-1.76a1,1,0,0,1,.78-.31c1.07.39,2.11.85,3.15,1.31a11.91,11.91,0,0,0,1.27.67,1,1,0,0,0,.87-.19c.56-.76,1-1.58,1.55-2.41-.87-.64-1.67-1.17-2.41-1.78a9,9,0,0,1-1.55-1.6,1.44,1.44,0,0,1,.23-1.9,1.2,1.2,0,0,1,1.7-.29c.74.43,1.49.84,2.21,1.3s1.25.86,1.89,1.31l1.87-2.2.26-.35-.5-.53c-.93-1-1.91-1.94-2.79-3a1.78,1.78,0,0,1-.48-1.33,1.56,1.56,0,0,1,2.56-.92c1.24.87,2.42,1.83,3.66,2.77.55-.56,1.11-1.17,1.72-1.71s.47-.83,0-1.33c-.85-1-1.64-2-2.41-3.09a1.43,1.43,0,0,1-.32-1,1.77,1.77,0,0,1,2.66-1,10.8,10.8,0,0,1,1.09.94l1.76,1.75a.84.84,0,0,0,1.21.15c.67-.51,1.31-1.06,2-1.61-.35-.5-.67-.9-.93-1.33-.6-1-1.18-2-1.74-3a1.09,1.09,0,0,1,.41-1.52c1.17-.93,1.26-.95,2.29.09.23.23.44.47.65.71l2.37,2.84c.77-.51,1.48-1,2.2-1.43.45-.28.49-.6.23-1.06a36.24,36.24,0,0,1-1.71-3.34c-.61-1.42-.41-1.73,1-2.36a1,1,0,0,1,1.27.28c.84,1.13,1.66,2.27,2.45,3.44.3.46.62.61,1.11.38l2.42-1.15c-.32-.76-.63-1.45-.9-2.17a22.5,22.5,0,0,1-.78-2.27c-.34-1.23-.18-1.43,1-2A1.14,1.14,0,0,1,45.78,8c.42.64.86,1.28,1.22,2s.76,1.63,1.16,2.51c.79-.31,1.54-.64,2.32-.9s.75-.58.58-1.22c-.36-1.3-.66-2.63-.94-4A1.13,1.13,0,0,1,51,4.83c1.18-.35,1.49-.33,2,.59a18.5,18.5,0,0,1,1.08,2.4c1,2.5.47,2.26,3.1,1.54.69-.19.88-.52.75-1.21-.24-1.22-.48-2.46-.6-3.7S57.71,2.94,59,2.64c1-.22,1.22.44,1.44,1.1.37,1.16.64,2.36,1,3.51.11.34.5.81.77.82a23,23,0,0,0,2.8-.24c0-.51-.08-.91-.09-1.3,0-1.28-.11-2.56-.07-3.84a1.37,1.37,0,0,1,.58-1c1.34-.6,2.12-.24,2.47,1.2s.53,2.8.81,4.3c.58,0,1.24.1,1.91.11,1.09,0,1.38-.21,1.5-1.3s.15-2.34.26-3.51c.11-1.33.53-1.62,1.86-1.42A1.21,1.21,0,0,1,75.5,2.28c0,.45.11.9.12,1.35,0,1.11,0,2.22,0,3.35,1,.11,1.86.18,2.7.29.61.08.87-.19,1-.77.18-1.24.35-2.48.63-3.7.36-1.58.55-1.63,2.16-1.34.63.11.87.4.87,1s0,1.27,0,1.91c0,1.07,0,2.13,0,3.2l2.18.36c1,.17,1,.12,1.32-.89a35.14,35.14,0,0,1,1.15-3.65c.37-.95.9-1.1,1.87-.82s1.27.64,1.14,1.69-.34,2.1-.55,3.14c-.28,1.33-.25,1.4,1,1.8l.84.24c1,.27,1.14.21,1.54-.79.18-.47.3-1,.5-1.43.35-.78.7-1.56,1.11-2.3a1.24,1.24,0,0,1,.69-.61,1.64,1.64,0,0,1,2,1.93,27.59,27.59,0,0,1-.93,3.46c-.27.77-.08,1.14.66,1.46,2.19.95,2.16,1,3.23-1.16a27.49,27.49,0,0,1,1.51-2.63c.43-.66,1-.47,1.64-.22s1.21.45,1,1.28a26,26,0,0,1-.86,2.89c-.89,2.29-.91,2.27,1.36,3.23a.91.91,0,0,0,1.36-.42c.71-1.16,1.52-2.26,2.29-3.38a.93.93,0,0,1,1.32-.32c.31.15.62.3.92.47a.79.79,0,0,1,.41,1.07,20.84,20.84,0,0,1-.81,2.08c-.45.92-1,1.8-1.52,2.74.78.49,1.55.93,2.26,1.44.53.38.81.2,1.17-.25a37.61,37.61,0,0,1,2.51-3c1-1,1.22-.91,2.27,0a1.26,1.26,0,0,1,.28,1.83c-.71,1.16-1.48,2.28-2.17,3.45a.93.93,0,0,0,0,.86c.67.62,1.43,1.16,2.12,1.71,1.38-1.27,2.67-2.47,4-3.62a.88.88,0,0,1,.82-.13c.61.4,1.16.9,1.86,1.47-1.1,1.4-2.11,2.74-3.19,4-.47.55-.53,1,0,1.5s1.14,1.19,1.72,1.8c.54-.48,1-.91,1.46-1.28A24.69,24.69,0,0,1,127,24.7c.95-.57,1.31-.43,2,.46.59.73.6,1-.13,1.87-.92,1-1.88,2-2.83,3-.29.31-.36.56-.07.89.59.68,1.17,1.38,1.71,2,1.45-.89,2.81-1.79,4.22-2.57.93-.52,1.21-.32,2,.71a1.05,1.05,0,0,1-.21,1.69c-.64.56-1.25,1.16-1.9,1.72s-1.23,1-1.87,1.5c.34.52.63,1,.94,1.46.88,1.33.87,1.3,2.29.59,1.15-.57,2.31-1.09,3.5-1.55a1.08,1.08,0,0,1,1,.25c.93,1.06.91,1.75-.17,2.63s-2.1,1.44-3.14,2.19c-.21.15-.48.55-.41.7.42.94.92,1.83,1.41,2.76.71-.33,1.27-.65,1.86-.86a31.26,31.26,0,0,1,3.13-.94,1,1,0,0,1,.88.3c.95,1.19.86,1.85-.39,2.7-.64.43-1.33.78-2,1.15-.39.22-.8.41-1.21.61a.86.86,0,0,0-.47,1.19c.29.77.59,1.53.91,2.34,1.35-.4,2.61-.8,3.89-1.14,1.68-.44,2.12-.16,2.66,1.48.16.48.1.82-.38,1-1,.45-2,1-3,1.36-2.44.89-2.12.47-1.43,3A.91.91,0,0,0,141,58c1.27-.13,2.55-.22,3.83-.32,1.47-.11,1.44-.1,1.78,1.37.16.71,0,1.13-.7,1.34-1.25.37-2.49.77-3.74,1.11-1,.27-1.12.36-1,1.42,0,.5.14,1,.18,1.51s.23.66.76.65c1.57-.05,3.15-.05,4.72,0a1,1,0,0,1,.73.3c.79,1.49.43,2.26-1.18,2.69l-.08,0c-1,.16-2,.35-3.07.48s-1.36.34-1.25,1.46c.07.75.22,1.5.34,2.29.82,0,1.54,0,2.26,0s1.49.06,2.23.13c1.11.11,1.42.42,1.43,1.32,0,1.3-.33,1.77-1.46,1.85-1.48.11-3,.16-4.5.23-.05.86-.07,1.72-.17,2.56s.23.89.87,1c1.37.19,2.73.45,4.09.72a1,1,0,0,1,.87,1.22c-.07,1.46-.36,1.8-1.81,1.81-.85,0-1.7,0-2.55-.07L141.7,83c-.09.35-.17.61-.22.87s-.09.74-.13,1.11c-.15,1.26,0,1.4,1.18,1.7a31.08,31.08,0,0,1,3.3.94,1.56,1.56,0,0,1,.88.9c.34,1.37-.25,2.09-1.65,2.16a5.16,5.16,0,0,1-1-.06c-1-.16-1.93-.34-2.9-.52-.51-.1-.87,0-1,.59a14.06,14.06,0,0,1-.46,1.69c-.24.68,0,1,.67,1.21a34,34,0,0,1,3.76,1.52c1,.46,1,.63.63,1.73s-.56,1.26-1.53,1.12a24,24,0,0,1-3.25-.76c-1.57-.47-1.56-.5-2.2,1s-.56,1.72.92,2.46c1,.52,2,1,3,1.59a1,1,0,0,1,.41,1.45c-.25.59-.35,1.43-1.28,1.23a21.12,21.12,0,0,1-3.36-.93c-1.78-.7-1.76-.76-2.64,1-.69,1.35-.67,1.33.61,2.15s2.55,1.71,3.84,2.59l-.61,1.07c-.75,1.29-.92,1.36-2.28.74s-2.67-1.3-4.08-2l-1.75,2.83c1.25,1,2.45,2,3.57,3,.84.75.84,1.32.16,2.23s-1.08.89-2.07.36l-.62-.38-3.16-2.1-2.14,2.48c.43.45.82.85,1.19,1.26.81.88,1.65,1.75,2.39,2.68a1.24,1.24,0,0,1,.18,1.08c-.66,1.35-1.4,1.52-2.66.71l-.46-.32-3.21-2.57-2.1,2.53,3.54,4.58c-1.62,2-2.26,2.06-3.92.42-.63-.61-1.2-1.29-1.88-1.85a1.28,1.28,0,0,0-1.11-.22,22.85,22.85,0,0,0-2.17,1.58,34.64,34.64,0,0,1,2.1,3.17c1.15,2.27,1.16,2.28-1,3.59,0,0-.1,0-.26,0l-3.81-4.4c-.71.45-1.42.92-2.14,1.37-.48.29-.53.63-.26,1.12.61,1.1,1.21,2.2,1.71,3.34.6,1.38.43,1.65-.91,2.27a1,1,0,0,1-1.42-.26c-.52-.64-1-1.29-1.51-2-.37-.52-.65-1.11-1-1.6a.86.86,0,0,0-.78-.25c-.87.33-1.7.74-2.6,1.15.2.48.37.86.52,1.25.43,1.2.89,2.4,1.25,3.62a1.26,1.26,0,0,1-.23,1.07A1.55,1.55,0,0,1,103,141a21.64,21.64,0,0,1-1.24-2.14c-.32-.63-.56-1.3-.87-2-.92.37-1.8.69-2.63,1.09a.81.81,0,0,0-.32.72c.28,1.3.66,2.58.93,3.88s-.07,1.65-1.22,2.06c-.88.31-1.2.2-1.76-.94a32.09,32.09,0,0,1-1.38-3.39c-.26-.72-.6-.93-1.37-.69-2.36.73-2.25.27-1.81,2.87a16.08,16.08,0,0,1,.27,2.85c0,.87-.53,1.18-1.82,1.42-.74.13-.89-.46-1-.88-.43-1.22-.79-2.47-1.15-3.72-.25-.86-.48-1.05-1.37-.93-.73.09-1.46.21-2.24.33,0,.25,0,.45,0,.66.06,1.43.16,2.87.14,4.31a1.48,1.48,0,0,1-.56,1.12c-1.27.68-2.12.27-2.55-1.1a7.31,7.31,0,0,1-.18-.78c-.18-1.18-.35-2.36-.54-3.66H77.89c-.69,0-1,.34-1,1,0,1.15-.08,2.29-.13,3.44a1.8,1.8,0,0,1-.79,1.63h-1.6a1.46,1.46,0,0,1-.81-1.35c-.06-1.47-.14-2.93-.22-4.48-.71-.07-1.45-.15-2.19-.21-1.29-.1-1.27-.08-1.47,1.22a36.54,36.54,0,0,1-.68,3.76c-.21.87-.75,1.06-1.86.89-.72-.11-.94-.59-1-1.25,0-.3-.06-.59-.06-.88,0-1.36,0-2.71,0-4.12a18,18,0,0,1-2.2-.37c-.78-.23-1.09,0-1.28.77a30.88,30.88,0,0,1-1.11,3.66c-.41,1-.92,1.22-1.88.94s-1.32-.59-1.17-1.81.4-2.46.63-3.69c.09-.5,0-.82-.56-.94a13.51,13.51,0,0,1-1.76-.49c-.63-.23-.9,0-1.12.6-.47,1.27-1,2.54-1.54,3.77-.44.95-.66.94-2,.61a1.09,1.09,0,0,1-.89-1.43c.28-1.29.59-2.58,1-3.85.2-.67.08-1-.57-1.3-2.6-1.08-2.25-1-3.39,1.15a22.47,22.47,0,0,1-1.49,2.56c-.62.91-1.36.29-2.06,0a.9.9,0,0,1-.57-1.28c.27-.92.54-1.84.88-2.73.9-2.29.91-2.27-1.4-3.21a.89.89,0,0,0-1.31.4c-.73,1.17-1.54,2.3-2.35,3.43a1.1,1.1,0,0,1-.69.45,1.65,1.65,0,0,1-1.77-2.26,25.73,25.73,0,0,1,1.11-2.38c.32-.61.69-1.19,1.07-1.85-.7-.45-1.37-.88-2-1.3-.26-.17-.55-.31-.87-.49-.25.32-.47.62-.72.89-.89,1-1.76,2.06-2.69,3a1.16,1.16,0,0,1-.92.31,1.67,1.67,0,0,1-1.11-2.69c.63-1.08,1.35-2.11,2-3.15.25-.36.29-.64-.09-.94-.69-.55-1.36-1.12-2-1.66-.12,0-.18,0-.21.08-.84.78-1.66,1.58-2.5,2.36-2,1.83-1.51,2-3.82-.07a1.46,1.46,0,0,1-.1-.28c1-1.26,2.05-2.63,3.15-3.95.36-.44.49-.78.05-1.23-.63-.63-1.24-1.3-1.8-1.89l-4.89,3.81c-.37-.4-.63-.67-.87-.94-.91-1.05-.93-1.28,0-2.3.76-.85,1.61-1.63,2.35-2.51.24-.29.48-.9.34-1.15a20.61,20.61,0,0,0-1.54-2.16c-1.57.94-3,1.81-4.45,2.65a1,1,0,0,1-1.51-.32c-1-1.3-1-1.31.17-2.45.21-.21.43-.41.65-.6L19,113.27c-.39-.58-.76-1.13-1.14-1.67-.75-1.08-.74-1-1.94-.45s-2.2,1.09-3.32,1.57a1,1,0,0,1-1.47-.5c-.64-1.21-.71-1.42,0-2a21.76,21.76,0,0,1,2-1.55c.67-.47,1.38-.88,2.14-1.36l-1.63-3-1.61.75c-.51.22-1,.47-1.54.65-2.38.82-2.51.76-3.55-1.49,0,0,0-.1,0-.31,1.11-.66,2.26-1.44,3.49-2,1.72-.85,1.77-.86,1.07-2.68a1.45,1.45,0,0,1-.09-.22c-.22-.78-.65-1-1.49-.76-1.24.38-2.52.64-3.8.91a1.16,1.16,0,0,1-1.51-1,3.91,3.91,0,0,0-.17-.61.73.73,0,0,1,.45-1.08c1.24-.54,2.48-1.11,3.74-1.6s1.15-.4.83-1.56c-.64-2.34-.19-2.07-2.68-1.77a28,28,0,0,1-3.17.22c-1.05,0-1-.93-1.21-1.62s.28-.91.72-1.06c1.17-.42,2.36-.81,3.57-1.12S8,87.53,7.89,86.25a4.47,4.47,0,0,1-.11-1c.11-1-.45-1.09-1.21-1.08-1.42,0-2.83,0-4.25,0-.55,0-.86-.19-.85-.78a3.47,3.47,0,0,0-.11-.63c-.13-.74.08-1.27.88-1.43,1.36-.26,2.71-.55,4.07-.76.59-.09.87-.32.81-.92S7,78.33,7,77.64s-.26-.7-.79-.71c-1.3,0-2.61-.09-3.91-.14A1.29,1.29,0,0,1,1,76Zm41.34,48.92a14,14,0,0,0,1.46,1.06c1.3.74,2.62,1.44,3.94,2.12a54.24,54.24,0,0,0,23.68,6.17A82.41,82.41,0,0,0,81.73,134a51.39,51.39,0,0,0,14.5-3.69c3-1.23,5.9-2.7,8.83-4.11,1.08-.52,1.21-1.07.66-2.14a12,12,0,0,0-1.15-1.83c-3.16-4.09-6.31-8.2-9.52-12.25-2.93-3.71-5.93-7.35-8.88-11a.85.85,0,0,0-1.1-.33c-.67.26-1.37.46-2,.69a26.31,26.31,0,0,1-10.78,1.36,29.28,29.28,0,0,1-8.1-2,1,1,0,0,0-1.25.29c-.62.73-1.29,1.42-1.88,2.18q-7.19,9.11-14.35,18.23C45.24,121.15,43.82,123,42.34,124.88ZM55.56,93a2,2,0,0,0-.16-.33c-.3-.41-.6-.81-.92-1.21A26.53,26.53,0,0,1,49,80.26,52.88,52.88,0,0,1,48.46,72a1.19,1.19,0,0,0-.92-1.29c-3.49-1.23-7-2.49-10.45-3.75q-9.77-3.51-19.52-7.05c-.71-.26-1-.1-1.17.63a66.08,66.08,0,0,0-1.6,11.38A60.41,60.41,0,0,0,18.32,95a55.15,55.15,0,0,0,9.06,16.35c2.29,2.8,4.93,5.32,7.43,8,.48.51,1.06.94,1.74,1.53ZM71.07,15A59.46,59.46,0,0,0,35.71,29.26,60.13,60.13,0,0,0,18.86,52.84c.34.12.48.19.63.23l29.38,8.48c2.55.74,2.55.74,4-1.48a25.32,25.32,0,0,1,6.78-6.83,28.68,28.68,0,0,1,9.53-4.16.76.76,0,0,0,.67-.86c.07-2.48.18-5,.26-7.44q.34-9.51.67-19C70.88,19.57,71,17.39,71.07,15Zm41.56,105.74c.34-.27.63-.47.88-.7,5.89-5.59,11.14-11.66,14.69-19.08A59.1,59.1,0,0,0,134,79.35a66.59,66.59,0,0,0,0-9.58c-.24-3-.89-6-1.42-9-.17-1-.34-1-1.27-.69q-15.14,5.41-30.27,10.86a1,1,0,0,0-.44.69c-.05,1.07,0,2.13,0,3.2a25.81,25.81,0,0,1-3.51,13c-1,1.57-2,3.06-3.07,4.58a1.06,1.06,0,0,0,0,1.37q8.19,11.92,16.35,23.88C111.1,118.61,111.86,119.64,112.63,120.73ZM77.94,15.06v.47c.19,4.13.4,8.25.55,12.38.24,6.45.44,12.9.67,19.35.06,1.68.07,1.67,1.71,2.11a26.19,26.19,0,0,1,13.67,8.56c1,1.14,1.79,2.39,2.66,3.6a1.18,1.18,0,0,0,1.49.48c3.26-1,6.54-1.9,9.81-2.87q10.25-3,20.49-6.12c.37-.11.72-.28,1.08-.42A59.93,59.93,0,0,0,77.94,15.06Z"/></g></g></svg>