<svg xmlns="http://www.w3.org/2000/svg" viewBox="0 0 269.84 188.3"><defs><style>.cls-1{fill:none;stroke:#f94b1c;stroke-miterlimit:10;stroke-width:3px;}</style></defs><g id="Слой_2" data-name="Слой 2"><g id="Layer_1" data-name="Layer 1"><path class="cls-1" d="M268.34,155.69c-2.23,4.93-6.2,6.42-11.37,6.25-7-.24-14.06-.06-20.78-.06-2.09,3.84-3.65,7.76-6.09,11C222,183.69,211,188.35,197.71,186.24c-12.81-2.05-21.66-9.6-26.27-21.81-.72-1.91-1.5-2.63-3.64-2.61q-22.4.17-44.8,0a2.74,2.74,0,0,0-3.11,2.2,33.59,33.59,0,0,1-63.54.16c-.27-.73-.53-1.45-.84-2.31-7,0-13.91,0-20.85,0-5,0-8.61-2.93-9.16-7.14-.74-5.55,2.91-9.8,8.7-9.9,6.08-.1,12.16,0,18.24,0h3a34.2,34.2,0,0,1,10.31-16.87A33.52,33.52,0,0,1,119.9,142.2c.75,2.15,1.73,2.67,3.84,2.65,14.76-.08,29.52,0,44.29,0,1.35,0,2.32,0,2.91-1.71,5.09-14.77,18-24.13,32.5-23.8,15.07.34,27.33,9.82,32.07,24.8a6.26,6.26,0,0,0,.25.58h15.57c0-.93.14-1.84.14-2.75,0-12.68.05-25.37-.06-38a7.91,7.91,0,0,0-1.48-4.21c-3-4.07-6.17-8-9.18-12a4.31,4.31,0,0,0-3.9-1.91c-20,.06-39.95-.17-59.92.14-8.36.13-11.75-3.84-11.63-11.8.26-17.36.08-34.74.08-52.11V18.59h-3.49q-63.16,0-126.34,0A15.46,15.46,0,0,1,30.94,18a8.14,8.14,0,0,1-5.5-8.74A8,8,0,0,1,32,1.91a20.13,20.13,0,0,1,3.88-.33c45.24,0,90.48,0,135.72-.08,6.87,0,11.34,3.68,10.73,10.79-.16,2,0,3.94,0,6.2h3.07c10.33,0,20.67.12,31,0,5-.09,8.09,2,10.24,6.4,5.61,11.44,11.69,22.65,17.05,34.19a135.85,135.85,0,0,0,18.63,29c2.24,2.73,4,5.83,6,8.76Zm-38.83-87a14.5,14.5,0,0,0-.56-1.46C223.87,57.12,218.8,47,213.61,36.88a3.4,3.4,0,0,0-2.51-1.49c-6.85-.12-13.7-.06-20.56-.06h-8V68.71ZM104.79,153.17a16.61,16.61,0,0,0-16.55-16.8,16.71,16.71,0,1,0,16.55,16.8Zm81.6-.33a16.68,16.68,0,0,0,16.43,16.94,17,17,0,0,0,17-16.51c.3-8.81-7.33-16.72-16.3-16.89A16.59,16.59,0,0,0,186.39,152.84Z"/><path class="cls-1" d="M45.67,86.19c-11.19,0-22.39,0-33.59,0A16.92,16.92,0,0,1,7,85.48,8.28,8.28,0,0,1,1.58,76.4a8.57,8.57,0,0,1,7.53-7.17c.43,0,.87,0,1.3,0q35.42,0,70.84,0c4.54,0,8,2.86,8.78,7a8.27,8.27,0,0,1-5.15,9.21,15.34,15.34,0,0,1-5.09.77C68.42,86.22,57,86.19,45.67,86.19Z"/><path class="cls-1" d="M59.36,53c-11.89,0-23.78,0-35.67,0a8.4,8.4,0,0,1-8.43-7.35,8.3,8.3,0,0,1,5.37-8.85A13.13,13.13,0,0,1,25,36.14q34.63-.06,69.26,0c4.86,0,8,2,9.2,5.74a8,8,0,0,1-2.87,9.27,11.41,11.41,0,0,1-5.77,1.79C83,53.09,71.17,53,59.36,53Z"/><path class="cls-1" d="M42.94,119.19c-6.08,0-12.16,0-18.24,0-5.59,0-9.53-3.52-9.53-8.47,0-4.8,3.81-8.43,9.3-8.49,9.9-.1,19.79,0,29.69,0a83.15,83.15,0,0,1,9.35.28,8.19,8.19,0,0,1,7.29,8.65,8.37,8.37,0,0,1-8.33,8c-6.51.1-13,0-19.53,0Z"/></g></g></svg>